<?xml version="1.0" encoding="iso-8859-1"?>
<!-- Generator: Adobe Illustrator 19.0.0, SVG Export Plug-In . SVG Version: 6.00 Build 0)  -->
<svg version="1.1" id="Layer_1" xmlns="http://www.w3.org/2000/svg" xmlns:xlink="http://www.w3.org/1999/xlink" x="0px" y="0px"
	 viewBox="0 0 512 512" style="enable-background:new 0 0 512 512;" xml:space="preserve">
<path style="fill:#464655;" d="M494.345,39.724H17.655C7.904,39.724,0,47.628,0,57.379v282.483h512V57.379
	C512,47.628,504.096,39.724,494.345,39.724z M485.517,313.379H26.483V66.207h459.034V313.379z"/>
<g>
	<path style="fill:#FFFFFF;" d="M203.033,176.552c2.44,0,4.414,1.974,4.414,4.414h13.241v-13.241h-17.655
		c-2.44,0-4.414-1.974-4.414-4.414c0-2.44,1.974-4.414,4.414-4.414h17.655v-57.379H141.24v79.448h57.379
		C198.62,178.526,200.594,176.552,203.033,176.552z"/>
	<path style="fill:#FFFFFF;" d="M26.483,313.379h459.034V66.207H26.483V313.379z M220.689,291.31h-17.655
		c-2.44,0-4.414-1.974-4.414-4.414s1.974-4.414,4.414-4.414h17.655c2.44,0,4.414,1.974,4.414,4.414S223.128,291.31,220.689,291.31z
		 M203.033,247.172c2.44,0,4.414,1.974,4.414,4.414v17.655c0,2.44-1.974,4.414-4.414,4.414s-4.414-1.974-4.414-4.414v-17.655
		C198.62,249.146,200.594,247.172,203.033,247.172z M198.62,233.931v-17.655c0-2.44,1.974-4.414,4.414-4.414
		s4.414,1.974,4.414,4.414v17.655c0,2.44-1.974,4.414-4.414,4.414S198.62,236.371,198.62,233.931z M255.999,291.31h-17.655
		c-2.44,0-4.414-1.974-4.414-4.414s1.974-4.414,4.414-4.414h17.655c2.44,0,4.414,1.974,4.414,4.414S258.439,291.31,255.999,291.31z
		 M331.033,269.241c0,2.44-1.974,4.414-4.414,4.414s-4.414-1.974-4.414-4.414v-17.655c0-2.44,1.974-4.414,4.414-4.414
		s4.414,1.974,4.414,4.414V269.241z M331.033,233.931c0,2.44-1.974,4.414-4.414,4.414s-4.414-1.974-4.414-4.414v-17.655
		c0-2.44,1.974-4.414,4.414-4.414s4.414,1.974,4.414,4.414V233.931z M331.033,198.621c0,2.44-1.974,4.414-4.414,4.414
		s-4.414-1.974-4.414-4.414v-17.655c0-2.44,1.974-4.414,4.414-4.414s4.414,1.974,4.414,4.414V198.621z M370.759,207.448v-61.793
		V92.69c0-4.875,3.953-8.828,8.828-8.828h79.448c4.875,0,8.828,3.953,8.828,8.828v52.966v61.793v79.448
		c0,4.875-3.953,8.828-8.828,8.828h-79.448c-4.875,0-8.828-3.953-8.828-8.828V207.448z M308.964,158.897h17.655
		c2.44,0,4.414,1.974,4.414,4.414c0,2.44-1.974,4.414-4.414,4.414h-17.655c-2.44,0-4.414-1.974-4.414-4.414
		C304.551,160.871,306.525,158.897,308.964,158.897z M308.964,282.483h17.655c2.44,0,4.414,1.974,4.414,4.414
		s-1.974,4.414-4.414,4.414h-17.655c-2.44,0-4.414-1.974-4.414-4.414S306.525,282.483,308.964,282.483z M273.654,158.897h17.655
		c2.44,0,4.414,1.974,4.414,4.414c0,2.44-1.974,4.414-4.414,4.414h-17.655c-2.44,0-4.414-1.974-4.414-4.414
		C269.24,160.871,271.214,158.897,273.654,158.897z M273.654,282.483h17.655c2.44,0,4.414,1.974,4.414,4.414
		s-1.974,4.414-4.414,4.414h-17.655c-2.44,0-4.414-1.974-4.414-4.414S271.214,282.483,273.654,282.483z M123.585,92.69
		c0-4.879,3.953-8.828,8.828-8.828h97.103c4.875,0,8.828,3.948,8.828,8.828v66.207h17.655c2.44,0,4.414,1.974,4.414,4.414
		c0,2.44-1.974,4.414-4.414,4.414h-17.655v22.069c0,0.957-0.157,1.877-0.438,2.739l23.165,20.754
		c1.919,1.719,1.419,4.847-0.94,5.884l-8.778,3.853l7.84,17.857c0.979,2.232-0.039,4.836-2.268,5.818
		c-0.577,0.25-1.181,0.371-1.771,0.371c-1.703,0-3.319-0.983-4.047-2.638l-7.841-17.859l-8.781,3.854
		c-2.359,1.036-5.001-0.714-4.967-3.29l0.371-28.534c-0.125,0.006-0.247,0.019-0.373,0.019h-22.069c0,2.44-1.974,4.414-4.414,4.414
		s-4.414-1.974-4.414-4.414h-66.207c-4.875,0-8.828-3.948-8.828-8.828V92.69H123.585z M44.138,92.69
		c0-4.875,3.953-8.828,8.828-8.828h26.483c4.875,0,8.828,3.953,8.828,8.828v194.207c0,4.875-3.953,8.828-8.828,8.828H52.966
		c-4.875,0-8.828-3.953-8.828-8.828V92.69z"/>
</g>
<path style="fill:#BEC8DC;" d="M0,375.172c0,9.751,7.904,17.655,17.655,17.655h167.724h141.241h167.724
	c9.751,0,17.655-7.904,17.655-17.655v-35.31H0V375.172z M256,353.103c7.313,0,13.241,5.929,13.241,13.241
	s-5.929,13.241-13.241,13.241c-7.313,0-13.241-5.929-13.241-13.241S248.687,353.103,256,353.103z"/>
<polygon style="fill:#AFBBD0;" points="177.655,454.621 334.345,454.621 328.828,410.483 183.172,410.483 "/>
<path style="fill:#BEC8DC;" d="M176.552,454.621c-4.875,0-8.828,3.953-8.828,8.828s3.953,8.828,8.828,8.828h158.897
	c4.875,0,8.828-3.953,8.828-8.828s-3.953-8.828-8.828-8.828h-1.103h-156.69H176.552z"/>
<g>
	<polygon style="fill:#96A5B9;" points="183.172,410.483 328.828,410.483 326.621,392.828 185.379,392.828 	"/>
	<circle style="fill:#96A5B9;" cx="256" cy="366.345" r="13.241"/>
</g>
<path style="fill:#BEC8DC;" d="M52.966,295.724h26.483c4.875,0,8.828-3.953,8.828-8.828V92.69c0-4.875-3.953-8.828-8.828-8.828
	H52.966c-4.875,0-8.828,3.953-8.828,8.828v194.207C44.138,291.772,48.09,295.724,52.966,295.724z M61.793,101.517h8.828
	c4.875,0,8.828,3.953,8.828,8.828c0,4.875-3.953,8.828-8.828,8.828h-8.828c-4.875,0-8.828-3.953-8.828-8.828
	C52.966,105.47,56.918,101.517,61.793,101.517z M61.793,128h8.828c4.875,0,8.828,3.953,8.828,8.828c0,4.875-3.953,8.828-8.828,8.828
	h-8.828c-4.875,0-8.828-3.953-8.828-8.828C52.966,131.953,56.918,128,61.793,128z M61.793,154.483h8.828
	c4.875,0,8.828,3.953,8.828,8.828s-3.953,8.828-8.828,8.828h-8.828c-4.875,0-8.828-3.953-8.828-8.828S56.918,154.483,61.793,154.483
	z M61.793,180.966h8.828c4.875,0,8.828,3.953,8.828,8.828s-3.953,8.828-8.828,8.828h-8.828c-4.875,0-8.828-3.953-8.828-8.828
	S56.918,180.966,61.793,180.966z M61.793,207.448h8.828c4.875,0,8.828,3.953,8.828,8.828s-3.953,8.828-8.828,8.828h-8.828
	c-4.875,0-8.828-3.953-8.828-8.828S56.918,207.448,61.793,207.448z M52.966,251.586c0-4.875,3.953-8.828,8.828-8.828h8.828
	c4.875,0,8.828,3.953,8.828,8.828v17.655c0,4.875-3.953,8.828-8.828,8.828h-8.828c-4.875,0-8.828-3.953-8.828-8.828V251.586z"/>
<path style="fill:#E4EAF6;" d="M61.793,119.172h8.828c4.875,0,8.828-3.953,8.828-8.828c0-4.875-3.953-8.828-8.828-8.828h-8.828
	c-4.875,0-8.828,3.953-8.828,8.828C52.966,115.22,56.918,119.172,61.793,119.172z"/>
<path style="fill:#96A5B9;" d="M61.793,145.655h8.828c4.875,0,8.828-3.953,8.828-8.828c0-4.875-3.953-8.828-8.828-8.828h-8.828
	c-4.875,0-8.828,3.953-8.828,8.828C52.966,141.703,56.918,145.655,61.793,145.655z"/>
<g>
	<path style="fill:#E4EAF6;" d="M61.793,172.138h8.828c4.875,0,8.828-3.953,8.828-8.828s-3.953-8.828-8.828-8.828h-8.828
		c-4.875,0-8.828,3.953-8.828,8.828S56.918,172.138,61.793,172.138z"/>
	<path style="fill:#E4EAF6;" d="M61.793,198.621h8.828c4.875,0,8.828-3.953,8.828-8.828s-3.953-8.828-8.828-8.828h-8.828
		c-4.875,0-8.828,3.953-8.828,8.828S56.918,198.621,61.793,198.621z"/>
	<path style="fill:#E4EAF6;" d="M61.793,225.103h8.828c4.875,0,8.828-3.953,8.828-8.828s-3.953-8.828-8.828-8.828h-8.828
		c-4.875,0-8.828,3.953-8.828,8.828S56.918,225.103,61.793,225.103z"/>
</g>
<path style="fill:#96A5B9;" d="M61.793,278.069h8.828c4.875,0,8.828-3.953,8.828-8.828v-17.655c0-4.875-3.953-8.828-8.828-8.828
	h-8.828c-4.875,0-8.828,3.953-8.828,8.828v17.655C52.966,274.116,56.917,278.069,61.793,278.069z"/>
<g>
	<path style="fill:#BEC8DC;" d="M467.862,92.69c0-4.875-3.953-8.828-8.828-8.828h-79.448c-4.875,0-8.828,3.953-8.828,8.828v52.966
		h97.103V92.69z M454.621,136.828h-35.31h-8.828H384c-2.438,0-4.414-1.976-4.414-4.414S381.562,128,384,128h26.483h8.828h35.31
		c2.438,0,4.414,1.976,4.414,4.414S457.058,136.828,454.621,136.828z M454.621,119.172h-8.828h-8.828H384
		c-2.438,0-4.414-1.976-4.414-4.414s1.976-4.414,4.414-4.414h52.966h8.828h8.828c2.438,0,4.414,1.976,4.414,4.414
		S457.058,119.172,454.621,119.172z M454.621,101.517h-52.966h-8.828H384c-2.438,0-4.414-1.976-4.414-4.414s1.976-4.414,4.414-4.414
		h8.828h8.828h52.966c2.438,0,4.414,1.976,4.414,4.414S457.058,101.517,454.621,101.517z"/>
	<path style="fill:#BEC8DC;" d="M379.586,295.724h79.448c4.875,0,8.828-3.953,8.828-8.828v-79.448h-97.103v79.448
		C370.759,291.772,374.711,295.724,379.586,295.724z M419.31,216.276h35.31c2.438,0,4.414,1.976,4.414,4.414
		s-1.976,4.414-4.414,4.414h-35.31c-2.438,0-4.414-1.976-4.414-4.414S416.873,216.276,419.31,216.276z M419.31,233.931h35.31
		c2.438,0,4.414,1.976,4.414,4.414c0,2.438-1.976,4.414-4.414,4.414h-35.31c-2.438,0-4.414-1.976-4.414-4.414
		C414.897,235.907,416.873,233.931,419.31,233.931z M419.31,251.586h35.31c2.438,0,4.414,1.976,4.414,4.414
		c0,2.438-1.976,4.414-4.414,4.414h-35.31c-2.438,0-4.414-1.976-4.414-4.414C414.897,253.562,416.873,251.586,419.31,251.586z
		 M419.31,269.241h35.31c2.438,0,4.414,1.976,4.414,4.414c0,2.438-1.976,4.414-4.414,4.414h-35.31c-2.438,0-4.414-1.976-4.414-4.414
		C414.897,271.218,416.873,269.241,419.31,269.241z M401.655,216.276L401.655,216.276c2.438,0,4.414,1.976,4.414,4.414
		s-1.976,4.414-4.414,4.414l0,0c-2.438,0-4.414-1.976-4.414-4.414S399.218,216.276,401.655,216.276z M401.655,233.931
		L401.655,233.931c2.438,0,4.414,1.976,4.414,4.414c0,2.438-1.976,4.414-4.414,4.414l0,0c-2.438,0-4.414-1.976-4.414-4.414
		C397.241,235.907,399.218,233.931,401.655,233.931z M401.655,251.586L401.655,251.586c2.438,0,4.414,1.976,4.414,4.414
		c0,2.438-1.976,4.414-4.414,4.414l0,0c-2.438,0-4.414-1.976-4.414-4.414C397.241,253.562,399.218,251.586,401.655,251.586z
		 M401.655,269.241L401.655,269.241c2.438,0,4.414,1.976,4.414,4.414c0,2.438-1.976,4.414-4.414,4.414l0,0
		c-2.438,0-4.414-1.976-4.414-4.414C397.241,271.218,399.218,269.241,401.655,269.241z M384,216.276L384,216.276
		c2.438,0,4.414,1.976,4.414,4.414s-1.976,4.414-4.414,4.414l0,0c-2.438,0-4.414-1.976-4.414-4.414S381.562,216.276,384,216.276z
		 M384,233.931L384,233.931c2.438,0,4.414,1.976,4.414,4.414c0,2.438-1.976,4.414-4.414,4.414l0,0c-2.438,0-4.414-1.976-4.414-4.414
		C379.586,235.907,381.562,233.931,384,233.931z M384,251.586L384,251.586c2.438,0,4.414,1.976,4.414,4.414
		c0,2.438-1.976,4.414-4.414,4.414l0,0c-2.438,0-4.414-1.976-4.414-4.414C379.586,253.562,381.562,251.586,384,251.586z
		 M384,269.241L384,269.241c2.438,0,4.414,1.976,4.414,4.414c0,2.438-1.976,4.414-4.414,4.414l0,0c-2.438,0-4.414-1.976-4.414-4.414
		C379.586,271.218,381.562,269.241,384,269.241z"/>
</g>
<g>
	<path style="fill:#96A5B9;" d="M467.862,145.655h-97.103v61.793h97.103V145.655z M392.828,198.621H384
		c-2.438,0-4.414-1.976-4.414-4.414s1.976-4.414,4.414-4.414h8.828c2.438,0,4.414,1.976,4.414,4.414
		S395.265,198.621,392.828,198.621z M392.828,180.966H384c-2.438,0-4.414-1.976-4.414-4.414s1.976-4.414,4.414-4.414h8.828
		c2.438,0,4.414,1.976,4.414,4.414S395.265,180.966,392.828,180.966z M392.828,163.31H384c-2.438,0-4.414-1.976-4.414-4.414
		s1.976-4.414,4.414-4.414h8.828c2.438,0,4.414,1.976,4.414,4.414S395.265,163.31,392.828,163.31z M454.621,198.621h-44.138
		c-2.438,0-4.414-1.976-4.414-4.414s1.976-4.414,4.414-4.414h44.138c2.438,0,4.414,1.976,4.414,4.414
		S457.058,198.621,454.621,198.621z M454.621,180.966h-44.138c-2.438,0-4.414-1.976-4.414-4.414s1.976-4.414,4.414-4.414h44.138
		c2.438,0,4.414,1.976,4.414,4.414S457.058,180.966,454.621,180.966z M454.621,163.31h-44.138c-2.438,0-4.414-1.976-4.414-4.414
		s1.976-4.414,4.414-4.414h44.138c2.438,0,4.414,1.976,4.414,4.414S457.058,163.31,454.621,163.31z"/>
	<path style="fill:#96A5B9;" d="M454.621,92.69h-52.966c2.438,0,4.414,1.976,4.414,4.414s-1.976,4.414-4.414,4.414h52.966
		c2.438,0,4.414-1.976,4.414-4.414S457.058,92.69,454.621,92.69z"/>
	<path style="fill:#96A5B9;" d="M388.414,97.103c0-2.438,1.976-4.414,4.414-4.414H384c-2.438,0-4.414,1.976-4.414,4.414
		s1.976,4.414,4.414,4.414h8.828C390.39,101.517,388.414,99.541,388.414,97.103z"/>
	<path style="fill:#96A5B9;" d="M454.621,128h-35.31c2.438,0,4.414,1.976,4.414,4.414s-1.976,4.414-4.414,4.414h35.31
		c2.438,0,4.414-1.976,4.414-4.414S457.058,128,454.621,128z"/>
	<path style="fill:#96A5B9;" d="M406.069,132.414c0-2.438,1.976-4.414,4.414-4.414H384c-2.438,0-4.414,1.976-4.414,4.414
		s1.976,4.414,4.414,4.414h26.483C408.045,136.828,406.069,134.851,406.069,132.414z"/>
</g>
<path style="fill:#BEC8DC;" d="M454.621,154.483h-44.138c-2.438,0-4.414,1.976-4.414,4.414s1.976,4.414,4.414,4.414h44.138
	c2.438,0,4.414-1.976,4.414-4.414S457.058,154.483,454.621,154.483z"/>
<g>
	<path style="fill:#96A5B9;" d="M432.552,114.759c0-2.438,1.976-4.414,4.414-4.414H384c-2.438,0-4.414,1.976-4.414,4.414
		s1.976,4.414,4.414,4.414h52.966C434.528,119.172,432.552,117.196,432.552,114.759z"/>
	<path style="fill:#96A5B9;" d="M454.621,110.345h-8.828c2.438,0,4.414,1.976,4.414,4.414s-1.976,4.414-4.414,4.414h8.828
		c2.438,0,4.414-1.976,4.414-4.414S457.058,110.345,454.621,110.345z"/>
</g>
<g>
	<path style="fill:#E4EAF6;" d="M406.069,97.103c0-2.438-1.976-4.414-4.414-4.414h-8.828c-2.438,0-4.414,1.976-4.414,4.414
		s1.976,4.414,4.414,4.414h8.828C404.093,101.517,406.069,99.541,406.069,97.103z"/>
	<path style="fill:#E4EAF6;" d="M423.724,132.414c0-2.438-1.976-4.414-4.414-4.414h-8.828c-2.438,0-4.414,1.976-4.414,4.414
		s1.976,4.414,4.414,4.414h8.828C421.748,136.828,423.724,134.851,423.724,132.414z"/>
	<path style="fill:#E4EAF6;" d="M392.828,154.483H384c-2.438,0-4.414,1.976-4.414,4.414s1.976,4.414,4.414,4.414h8.828
		c2.438,0,4.414-1.976,4.414-4.414S395.265,154.483,392.828,154.483z"/>
</g>
<path style="fill:#BEC8DC;" d="M454.621,172.138h-44.138c-2.438,0-4.414,1.976-4.414,4.414s1.976,4.414,4.414,4.414h44.138
	c2.438,0,4.414-1.976,4.414-4.414S457.058,172.138,454.621,172.138z"/>
<path style="fill:#E4EAF6;" d="M392.828,172.138H384c-2.438,0-4.414,1.976-4.414,4.414s1.976,4.414,4.414,4.414h8.828
	c2.438,0,4.414-1.976,4.414-4.414S395.265,172.138,392.828,172.138z"/>
<path style="fill:#BEC8DC;" d="M454.621,189.793h-44.138c-2.438,0-4.414,1.976-4.414,4.414s1.976,4.414,4.414,4.414h44.138
	c2.438,0,4.414-1.976,4.414-4.414S457.058,189.793,454.621,189.793z"/>
<g>
	<path style="fill:#E4EAF6;" d="M392.828,189.793H384c-2.438,0-4.414,1.976-4.414,4.414s1.976,4.414,4.414,4.414h8.828
		c2.438,0,4.414-1.976,4.414-4.414S395.265,189.793,392.828,189.793z"/>
	<path style="fill:#E4EAF6;" d="M384,242.759L384,242.759c2.438,0,4.414-1.976,4.414-4.414c0-2.438-1.976-4.414-4.414-4.414l0,0
		c-2.438,0-4.414,1.976-4.414,4.414C379.586,240.782,381.562,242.759,384,242.759z"/>
	<path style="fill:#E4EAF6;" d="M384,225.103L384,225.103c2.438,0,4.414-1.976,4.414-4.414s-1.976-4.414-4.414-4.414l0,0
		c-2.438,0-4.414,1.976-4.414,4.414S381.562,225.103,384,225.103z"/>
	<path style="fill:#E4EAF6;" d="M384,278.069L384,278.069c2.438,0,4.414-1.976,4.414-4.414c0-2.438-1.976-4.414-4.414-4.414l0,0
		c-2.438,0-4.414,1.976-4.414,4.414C379.586,276.093,381.562,278.069,384,278.069z"/>
	<path style="fill:#E4EAF6;" d="M384,260.414L384,260.414c2.438,0,4.414-1.976,4.414-4.414c0-2.438-1.976-4.414-4.414-4.414l0,0
		c-2.438,0-4.414,1.976-4.414,4.414C379.586,258.438,381.562,260.414,384,260.414z"/>
</g>
<g>
	<path style="fill:#96A5B9;" d="M401.655,242.759L401.655,242.759c2.438,0,4.414-1.976,4.414-4.414c0-2.438-1.976-4.414-4.414-4.414
		l0,0c-2.438,0-4.414,1.976-4.414,4.414C397.241,240.782,399.218,242.759,401.655,242.759z"/>
	<path style="fill:#96A5B9;" d="M401.655,225.103L401.655,225.103c2.438,0,4.414-1.976,4.414-4.414s-1.976-4.414-4.414-4.414l0,0
		c-2.438,0-4.414,1.976-4.414,4.414S399.218,225.103,401.655,225.103z"/>
	<path style="fill:#96A5B9;" d="M401.655,278.069L401.655,278.069c2.438,0,4.414-1.976,4.414-4.414c0-2.438-1.976-4.414-4.414-4.414
		l0,0c-2.438,0-4.414,1.976-4.414,4.414C397.241,276.093,399.218,278.069,401.655,278.069z"/>
	<path style="fill:#96A5B9;" d="M401.655,260.414L401.655,260.414c2.438,0,4.414-1.976,4.414-4.414c0-2.438-1.976-4.414-4.414-4.414
		l0,0c-2.438,0-4.414,1.976-4.414,4.414C397.241,258.438,399.218,260.414,401.655,260.414z"/>
	<path style="fill:#96A5B9;" d="M419.31,242.759h35.31c2.438,0,4.414-1.976,4.414-4.414c0-2.438-1.976-4.414-4.414-4.414h-35.31
		c-2.438,0-4.414,1.976-4.414,4.414C414.897,240.782,416.873,242.759,419.31,242.759z"/>
	<path style="fill:#96A5B9;" d="M419.31,225.103h35.31c2.438,0,4.414-1.976,4.414-4.414s-1.976-4.414-4.414-4.414h-35.31
		c-2.438,0-4.414,1.976-4.414,4.414S416.873,225.103,419.31,225.103z"/>
	<path style="fill:#96A5B9;" d="M419.31,278.069h35.31c2.438,0,4.414-1.976,4.414-4.414c0-2.438-1.976-4.414-4.414-4.414h-35.31
		c-2.438,0-4.414,1.976-4.414,4.414C414.897,276.093,416.873,278.069,419.31,278.069z"/>
	<path style="fill:#96A5B9;" d="M419.31,260.414h35.31c2.438,0,4.414-1.976,4.414-4.414c0-2.438-1.976-4.414-4.414-4.414h-35.31
		c-2.438,0-4.414,1.976-4.414,4.414C414.897,258.438,416.873,260.414,419.31,260.414z"/>
</g>
<path style="fill:#E4EAF6;" d="M450.207,114.759c0-2.438-1.976-4.414-4.414-4.414h-8.828c-2.438,0-4.414,1.976-4.414,4.414
	s1.976,4.414,4.414,4.414h8.828C448.231,119.172,450.207,117.196,450.207,114.759z"/>
<path style="fill:#FF6469;" d="M132.413,198.621h66.207v-17.655H141.24v-79.448h79.448v57.379c2.44,0,4.414,1.974,4.414,4.414
	c0,2.44-1.974,4.414-4.414,4.414v13.241h-13.241v17.655h22.069c0.126,0,0.248-0.013,0.373-0.019l0.07-5.305
	c0.04-3.042,3.641-4.622,5.907-2.593l2.041,1.828c0.281-0.863,0.438-1.782,0.438-2.739v-22.069c-2.44,0-4.414-1.974-4.414-4.414
	c0-2.44,1.974-4.414,4.414-4.414V92.69c0-4.879-3.953-8.828-8.828-8.828h-97.103c-4.875,0-8.828,3.948-8.828,8.828v97.103
	C123.585,194.673,127.538,198.621,132.413,198.621z"/>
<g>
	<path style="fill:#96A5B9;" d="M203.033,238.345c2.44,0,4.414-1.974,4.414-4.414v-17.655c0-2.44-1.974-4.414-4.414-4.414
		s-4.414,1.974-4.414,4.414v17.655C198.62,236.371,200.594,238.345,203.033,238.345z"/>
	<path style="fill:#96A5B9;" d="M308.964,291.31h17.655c2.44,0,4.414-1.974,4.414-4.414s-1.974-4.414-4.414-4.414h-17.655
		c-2.44,0-4.414,1.974-4.414,4.414S306.525,291.31,308.964,291.31z"/>
	<path style="fill:#96A5B9;" d="M326.62,247.172c-2.44,0-4.414,1.974-4.414,4.414v17.655c0,2.44,1.974,4.414,4.414,4.414
		s4.414-1.974,4.414-4.414v-17.655C331.033,249.146,329.059,247.172,326.62,247.172z"/>
	<path style="fill:#96A5B9;" d="M308.964,167.724h17.655c2.44,0,4.414-1.974,4.414-4.414c0-2.44-1.974-4.414-4.414-4.414h-17.655
		c-2.44,0-4.414,1.974-4.414,4.414C304.551,165.75,306.525,167.724,308.964,167.724z"/>
	<path style="fill:#96A5B9;" d="M326.62,176.552c-2.44,0-4.414,1.974-4.414,4.414v17.655c0,2.44,1.974,4.414,4.414,4.414
		s4.414-1.974,4.414-4.414v-17.655C331.033,178.526,329.059,176.552,326.62,176.552z"/>
	<path style="fill:#96A5B9;" d="M255.999,282.483h-17.655c-2.44,0-4.414,1.974-4.414,4.414s1.974,4.414,4.414,4.414h17.655
		c2.44,0,4.414-1.974,4.414-4.414S258.439,282.483,255.999,282.483z"/>
	<path style="fill:#96A5B9;" d="M203.033,176.552c-2.44,0-4.414,1.974-4.414,4.414v17.655c0,2.44,1.974,4.414,4.414,4.414
		s4.414-1.974,4.414-4.414v-17.655C207.447,178.526,205.473,176.552,203.033,176.552z"/>
	<path style="fill:#96A5B9;" d="M220.689,282.483h-17.655c-2.44,0-4.414,1.974-4.414,4.414s1.974,4.414,4.414,4.414h17.655
		c2.44,0,4.414-1.974,4.414-4.414S223.128,282.483,220.689,282.483z"/>
	<path style="fill:#96A5B9;" d="M198.62,269.241c0,2.44,1.974,4.414,4.414,4.414s4.414-1.974,4.414-4.414v-17.655
		c0-2.44-1.974-4.414-4.414-4.414s-4.414,1.974-4.414,4.414V269.241z"/>
	<path style="fill:#96A5B9;" d="M326.62,211.862c-2.44,0-4.414,1.974-4.414,4.414v17.655c0,2.44,1.974,4.414,4.414,4.414
		s4.414-1.974,4.414-4.414v-17.655C331.033,213.836,329.059,211.862,326.62,211.862z"/>
	<path style="fill:#96A5B9;" d="M273.654,167.724h17.655c2.44,0,4.414-1.974,4.414-4.414c0-2.44-1.974-4.414-4.414-4.414h-17.655
		c-2.44,0-4.414,1.974-4.414,4.414C269.24,165.75,271.214,167.724,273.654,167.724z"/>
	<path style="fill:#96A5B9;" d="M198.62,163.31c0,2.44,1.974,4.414,4.414,4.414h17.655c2.44,0,4.414-1.974,4.414-4.414
		c0-2.44-1.974-4.414-4.414-4.414h-17.655C200.594,158.897,198.62,160.871,198.62,163.31z"/>
	<path style="fill:#96A5B9;" d="M273.654,291.31h17.655c2.44,0,4.414-1.974,4.414-4.414s-1.974-4.414-4.414-4.414h-17.655
		c-2.44,0-4.414,1.974-4.414,4.414S271.214,291.31,273.654,291.31z"/>
	<path style="fill:#96A5B9;" d="M233.93,163.31c0,2.44,1.974,4.414,4.414,4.414h17.655c2.44,0,4.414-1.974,4.414-4.414
		c0-2.44-1.974-4.414-4.414-4.414h-17.655C235.904,158.897,233.93,160.871,233.93,163.31z"/>
</g>
<path style="fill:#464655;" d="M229.958,193.297l-0.07,5.305l-0.371,28.534c-0.033,2.577,2.607,4.327,4.967,3.29l8.781-3.854
	l7.841,17.859c0.728,1.655,2.345,2.638,4.047,2.638c0.59,0,1.194-0.12,1.771-0.371c2.229-0.983,3.245-3.586,2.268-5.818
	l-7.84-17.857l8.778-3.853c2.359-1.036,2.859-4.163,0.94-5.884l-23.165-20.754l-2.041-1.828
	C233.599,188.674,229.997,190.255,229.958,193.297z"/>
<g>
</g>
<g>
</g>
<g>
</g>
<g>
</g>
<g>
</g>
<g>
</g>
<g>
</g>
<g>
</g>
<g>
</g>
<g>
</g>
<g>
</g>
<g>
</g>
<g>
</g>
<g>
</g>
<g>
</g>
</svg>
