<?xml version="1.0" encoding="UTF-8" standalone="no"?>
<!-- Created with Inkscape (http://www.inkscape.org/) -->

<svg
   xmlns:dc="http://purl.org/dc/elements/1.1/"
   xmlns:cc="http://creativecommons.org/ns#"
   xmlns:rdf="http://www.w3.org/1999/02/22-rdf-syntax-ns#"
   xmlns:svg="http://www.w3.org/2000/svg"
   xmlns="http://www.w3.org/2000/svg"
   xmlns:sodipodi="http://sodipodi.sourceforge.net/DTD/sodipodi-0.dtd"
   xmlns:inkscape="http://www.inkscape.org/namespaces/inkscape"
   width="278.46942"
   height="62.666241"
   id="svg2"
   version="1.1"
   inkscape:version="0.48.5 r10040"
   sodipodi:docname="pegasus.svg">
  <defs
     id="defs4" />
  <sodipodi:namedview
     id="base"
     pagecolor="#ffffff"
     bordercolor="#666666"
     borderopacity="1.0"
     inkscape:pageopacity="0.0"
     inkscape:pageshadow="2"
     inkscape:zoom="0.98994949"
     inkscape:cx="63.300775"
     inkscape:cy="-4.7524286"
     inkscape:document-units="px"
     inkscape:current-layer="layer1"
     showgrid="false"
     inkscape:window-width="1366"
     inkscape:window-height="745"
     inkscape:window-x="-8"
     inkscape:window-y="-8"
     inkscape:window-maximized="1"
     fit-margin-top="0"
     fit-margin-left="0"
     fit-margin-right="0"
     fit-margin-bottom="0" />
  <metadata
     id="metadata7">
    <rdf:RDF>
      <cc:Work
         rdf:about="">
        <dc:format>image/svg+xml</dc:format>
        <dc:type
           rdf:resource="http://purl.org/dc/dcmitype/StillImage" />
        <dc:title></dc:title>
      </cc:Work>
    </rdf:RDF>
  </metadata>
  <g
     inkscape:label="Camada 1"
     inkscape:groupmode="layer"
     id="layer1"
     transform="translate(-208.82976,-772.13284)">
    <path
       style="fill:#ffffff"
       inkscape:connector-curvature="0"
       d="m 229.07419,778.64512 h -7.50754 v -4.48555 c 0,-1.11929 -0.90743,-2.02673 -2.02672,-2.02673 -1.11929,0 -2.02673,0.90744 -2.02673,2.02673 v 4.48555 h -6.65672 c -1.11929,0 -2.02672,0.90743 -2.02672,2.02673 v 29.55912 c 0,1.11929 0.90743,2.02673 2.02672,2.02673 h 5.48487 c 0.53762,0 1.05295,-0.21348 1.43303,-0.59356 l 6.58794,-6.58767 v 11.32358 l -14.93886,14.93914 a 2.0268612,2.0268612 0 0 0 1.43302,3.45989 h 37.09018 c 1.11929,0 2.02672,-0.90743 2.02672,-2.02672 v -33.2271 c 0,-11.52423 -9.37536,-20.90014 -20.89919,-20.90014 z"
       id="path2987" />
    <path
       style="fill:#808080"
       inkscape:connector-curvature="0"
       d="m 229.40157,778.64931 v 56.14977 h 18.54509 c 1.11929,0 2.02672,-0.90743 2.02672,-2.02672 v -33.2271 c 0,-11.41492 -9.1985,-20.72016 -20.57181,-20.89595 z"
       id="path2989" />
    <path
       style="fill:#4d4d4d"
       inkscape:connector-curvature="0"
       d="m 277.56888,803.47644 a 2.0264559,2.0264559 0 0 0 -1.58693,-0.76624 h -23.69351 c -7.10259,0 -12.88106,5.77846 -12.88106,12.88106 v 17.1811 c 0,1.11929 0.90744,2.02672 2.02673,2.02672 h 28.03529 a 2.0267261,2.0267261 0 0 0 1.97417,-1.56801 l 6.51255,-28.0353"
       id="path2991" />
    <path
       style="fill:#4d4d4d"
       inkscape:connector-curvature="0"
       d="m 239.40738,818.75471 v 14.01765 c 0,1.11929 0.90744,2.02672 2.02673,2.02672 h 28.03529 a 2.0267261,2.0267261 0 0 0 1.97417,-1.56801 l 3.36288,-14.47623 -35.39907,-1.3e-4 z"
       id="path2993" />
    <path
       style="fill:#ffffff"
       inkscape:connector-curvature="0"
       d="m 271.6403,825.45398 h -13.02509 c -1.1193,0 -2.02673,-0.90743 -2.02673,-2.02672 0,-1.1193 0.90743,-2.02673 2.02673,-2.02673 h 13.02509 c 1.11929,0 2.02672,0.90743 2.02672,2.02673 0,1.11929 -0.90743,2.02672 -2.02672,2.02672 z m 2.17103,-9.3451 h -13.02537 c -1.11929,0 -2.02672,-0.90743 -2.02672,-2.02673 0,-1.11929 0.90743,-2.02672 2.02672,-2.02672 h 13.02537 c 1.11929,0 2.02672,0.90743 2.02672,2.02672 0,1.1193 -0.90743,2.02673 -2.02672,2.02673 z"
       id="path2995" />
    <text
       xml:space="preserve"
       style="font-size:32.50643539px;font-style:normal;font-variant:normal;font-weight:normal;font-stretch:normal;line-height:125%;letter-spacing:0px;word-spacing:0px;fill:#ffffff;fill-opacity:1;stroke:none;font-family:Righteous;-inkscape-font-specification:Righteous"
       x="286.03864"
       y="821.74457"
       id="text3010"
       sodipodi:linespacing="125%"><tspan
         sodipodi:role="line"
         id="tspan3012"
         x="286.03864"
         y="821.74457">Pegasus Web</tspan></text>
  </g>
</svg>
