<?xml version="1.0" encoding="iso-8859-1"?>
<!-- Generator: Adobe Illustrator 19.0.0, SVG Export Plug-In . SVG Version: 6.00 Build 0)  -->
<svg version="1.1" id="Capa_1" xmlns="http://www.w3.org/2000/svg" xmlns:xlink="http://www.w3.org/1999/xlink" x="0px" y="0px"
	 viewBox="0 0 512 512" style="enable-background:new 0 0 512 512;" xml:space="preserve">
<path style="fill:#D5E3EF;" d="M267.636,418.909v-23.273h-93.091v23.273c0,12.8-10.473,23.273-23.273,23.273H128
	c-6.982,0-11.636,4.655-11.636,11.636l0,0c0,6.982,4.655,11.636,11.636,11.636h186.182c6.982,0,11.636-4.655,11.636-11.636l0,0
	c0-6.982-4.655-11.636-11.636-11.636h-23.273C278.109,442.182,267.636,431.709,267.636,418.909z"/>
<g>
	<path style="fill:#B0C4D9;" d="M174.545,395.636v11.636h58.182c6.982,0,11.636,4.655,11.636,11.636l0,0
		c0,6.982,4.655,11.636,11.636,11.636h5.818c3.491,0,5.818-2.327,5.818-5.818v-17.455v-11.636H174.545z"/>
	<path style="fill:#B0C4D9;" d="M314.182,465.455H128c-6.982,0-11.636-4.655-11.636-11.636h209.455
		C325.818,460.8,321.164,465.455,314.182,465.455z"/>
</g>
<path style="fill:#D5E3EF;" d="M442.182,395.636H23.273C10.473,395.636,0,385.164,0,372.364V69.818
	c0-12.8,10.473-23.273,23.273-23.273h418.909c12.8,0,23.273,10.473,23.273,23.273v302.545
	C465.455,385.164,454.982,395.636,442.182,395.636z"/>
<g>
	<path style="fill:#595A66;" d="M465.455,325.818H0v-256c0-12.8,10.473-23.273,23.273-23.273h418.909
		c12.8,0,23.273,10.473,23.273,23.273V325.818z"/>
	<circle style="fill:#595A66;" cx="221.091" cy="360.727" r="11.636"/>
</g>
<rect x="23.273" y="69.818" style="fill:#70B7E5;" width="418.909" height="232.727"/>
<g>
	<path style="fill:#90CEF1;" d="M418.909,290.909h-93.091l104.727-104.727v93.091C430.545,286.255,425.891,290.909,418.909,290.909z
		"/>
	<polygon style="fill:#90CEF1;" points="290.909,290.909 430.545,151.273 430.545,116.364 256,290.909 	"/>
</g>
<path style="fill:#6F707E;" d="M86.109,58.182c-10.473,0-44.218-4.655-51.2-11.636l0,0h256l0,0
	c-6.982,6.982-17.455,11.636-27.927,11.636H86.109z"/>
<g>
	<circle style="fill:#1470B8;" cx="197.818" cy="244.364" r="11.636"/>
	<circle style="fill:#1470B8;" cx="267.636" cy="244.364" r="11.636"/>
	<path style="fill:#1470B8;" d="M300.218,155.927c-2.327-3.491-5.818-4.655-9.309-4.655h-81.455
		c0-19.782-15.127-34.909-34.909-34.909c-6.982,0-11.636,4.655-11.636,11.636c0,6.982,4.655,11.636,11.636,11.636
		c6.982,0,11.636,4.655,11.636,11.636v11.636v46.545c0,6.982,4.655,11.636,11.636,11.636h81.455c5.818,0,10.473-3.491,11.636-9.309
		l11.636-46.545C302.545,161.745,302.545,158.255,300.218,155.927z"/>
	<path style="fill:#1470B8;" d="M168.727,209.455h-34.909c-3.491,0-5.818-2.327-5.818-5.818s2.327-5.818,5.818-5.818h34.909
		c3.491,0,5.818,2.327,5.818,5.818S172.218,209.455,168.727,209.455z"/>
	<path style="fill:#1470B8;" d="M157.091,186.182h-46.545c-3.491,0-5.818-2.327-5.818-5.818c0-3.491,2.327-5.818,5.818-5.818h46.545
		c3.491,0,5.818,2.327,5.818,5.818C162.909,183.855,160.582,186.182,157.091,186.182z"/>
	<path style="fill:#1470B8;" d="M145.455,162.909H87.273c-3.491,0-5.818-2.327-5.818-5.818s2.327-5.818,5.818-5.818h58.182
		c3.491,0,5.818,2.327,5.818,5.818S148.945,162.909,145.455,162.909z"/>
</g>
<circle style="fill:#F6B545;" cx="430.545" cy="290.909" r="81.455"/>
<path style="fill:#FFCB5B;" d="M430.545,209.455c-45.382,0-81.455,36.073-81.455,81.455s36.073,81.455,81.455,81.455
	S512,336.291,512,290.909S475.927,209.455,430.545,209.455z M430.545,349.091c-32.582,0-58.182-25.6-58.182-58.182
	s25.6-58.182,58.182-58.182s58.182,25.6,58.182,58.182S463.127,349.091,430.545,349.091z"/>
<path style="fill:#F6B545;" d="M430.545,371.2L430.545,371.2C475.927,372.364,512,335.127,512,290.909h-1.164
	c-5.818,0-10.473,4.655-11.636,10.473c-2.327,16.291-10.473,31.418-22.109,41.891c-9.309,9.309-22.109,15.127-36.073,17.455
	C435.2,360.727,430.545,365.382,430.545,371.2z"/>
<path style="fill:#FFE27A;" d="M430.545,210.618L430.545,210.618c-45.382-1.164-81.455,36.073-81.455,80.291h1.164
	c5.818,0,10.473-4.655,11.636-10.473c2.327-16.291,10.473-31.418,22.109-41.891c9.309-9.309,22.109-15.127,36.073-17.455
	C425.891,221.091,430.545,216.436,430.545,210.618z"/>
<path style="fill:#F19920;" d="M380.509,299.055c0-32.582,25.6-58.182,58.182-58.182c13.964,0,26.764,4.655,37.236,13.964
	c-11.636-13.964-26.764-22.109-45.382-22.109c-32.582,0-58.182,25.6-58.182,58.182c0,18.618,8.145,33.745,20.945,44.218
	C385.164,325.818,380.509,313.018,380.509,299.055z"/>
<path style="fill:#FFCB5B;" d="M465.455,326.982c-1.164,0-2.327,0-3.491-1.164c-2.327-2.327-2.327-5.818,0-8.145
	c6.982-6.982,10.473-17.455,10.473-26.764c0-3.491,2.327-5.818,5.818-5.818s5.818,2.327,5.818,5.818c0,12.8-4.655,25.6-12.8,34.909
	C468.945,326.982,466.618,326.982,465.455,326.982z"/>
<g>
	<path style="fill:#F19920;" d="M430.545,325.818c-6.982,0-11.636-4.655-11.636-11.636v-46.545c0-6.982,4.655-11.636,11.636-11.636
		s11.636,4.655,11.636,11.636v46.545C442.182,321.164,437.527,325.818,430.545,325.818z"/>
	<path style="fill:#F19920;" d="M473.6,359.564c-8.145-29.091-29.091-52.364-55.855-62.836c-4.655-26.764-22.109-50.036-44.218-64
		c-13.964,15.127-23.273,34.909-23.273,57.018c0,45.382,36.073,81.455,81.455,81.455C446.836,372.364,460.8,367.709,473.6,359.564z"
		/>
</g>
<g>
	<path style="fill:#E78825;" d="M393.309,335.127c-8.145-10.473-13.964-23.273-13.964-37.236c0-16.291,6.982-31.418,18.618-41.891
		c-2.327-3.491-4.655-5.818-6.982-8.145c-11.636,10.473-18.618,25.6-18.618,43.055C372.364,309.527,380.509,324.655,393.309,335.127
		z"/>
	<path style="fill:#E78825;" d="M418.909,297.891v16.291c0,6.982,4.655,11.636,11.636,11.636s11.636-4.655,11.636-11.636v-2.327
		C435.2,306.036,427.055,301.382,418.909,297.891z"/>
</g>
<path style="fill:#F6B545;" d="M473.6,359.564c-2.327-8.145-4.655-15.127-9.309-22.109c-9.309,6.982-20.945,11.636-33.745,11.636
	c-32.582,0-58.182-25.6-58.182-58.182c0-17.455,6.982-32.582,18.618-43.055c-5.818-5.818-11.636-10.473-18.618-13.964
	c-13.964,15.127-23.273,34.909-23.273,57.018c0,45.382,36.073,81.455,81.455,81.455C446.836,372.364,460.8,367.709,473.6,359.564z"
	/>
<path style="fill:#F19920;" d="M470.109,349.091c-8.145,5.818-18.618,9.309-29.091,11.636c-5.818,1.164-10.473,5.818-10.473,11.636
	l0,0c16.291,0,30.255-4.655,43.055-12.8C472.436,356.073,471.273,352.582,470.109,349.091z"/>
<path style="fill:#FFCB5B;" d="M372.364,233.891c-13.964,15.127-23.273,34.909-23.273,57.018h1.164
	c5.818,0,10.473-4.655,11.636-10.473c2.327-16.291,10.473-30.255,20.945-40.727C379.345,238.545,375.855,236.218,372.364,233.891z"
	/>
<circle style="fill:#F6B545;" cx="325.818" cy="314.182" r="81.455"/>
<path style="fill:#F19920;" d="M314.182,372.364c0,8.145,1.164,15.127,3.491,23.273c2.327,0,5.818,0,8.145,0
	c45.382,0,81.455-36.073,81.455-81.455c0-8.145-1.164-15.127-3.491-23.273c-2.327,0-5.818,0-8.145,0
	C350.255,290.909,314.182,326.982,314.182,372.364z"/>
<path style="fill:#FFCB5B;" d="M325.818,232.727c-45.382,0-81.455,36.073-81.455,81.455s36.073,81.455,81.455,81.455
	s81.455-36.073,81.455-81.455S371.2,232.727,325.818,232.727z M325.818,372.364c-32.582,0-58.182-25.6-58.182-58.182
	S293.236,256,325.818,256S384,281.6,384,314.182S358.4,372.364,325.818,372.364z"/>
<path style="fill:#F6B545;" d="M325.818,394.473L325.818,394.473c45.382,1.164,81.455-36.073,81.455-80.291h-1.164
	c-5.818,0-10.473,4.655-11.636,10.473c-2.327,16.291-10.473,31.418-22.109,41.891c-9.309,9.309-22.109,15.127-36.073,17.454
	C330.473,384,325.818,388.655,325.818,394.473z"/>
<path style="fill:#FFE27A;" d="M325.818,233.891L325.818,233.891c-45.382-1.164-81.455,36.073-81.455,80.291h1.164
	c5.818,0,10.473-4.655,11.636-10.473c2.327-16.291,10.473-31.418,22.109-41.891c9.309-9.309,22.109-15.127,36.073-17.455
	C321.164,244.364,325.818,239.709,325.818,233.891z"/>
<path style="fill:#F19920;" d="M275.782,322.327c0-32.582,25.6-58.182,58.182-58.182c13.964,0,26.764,4.655,37.236,13.964
	C359.564,264.145,344.436,256,325.818,256c-32.582,0-58.182,25.6-58.182,58.182c0,18.618,8.145,33.745,20.945,44.218
	C280.436,349.091,275.782,336.291,275.782,322.327z"/>
<path style="fill:#FFCB5B;" d="M360.727,350.255c-1.164,0-2.327,0-3.491-1.164c-2.327-2.327-2.327-5.818,0-8.145
	c6.982-6.982,10.473-17.455,10.473-26.764c0-3.491,2.327-5.818,5.818-5.818s5.818,2.327,5.818,5.818c0,12.8-4.655,25.6-12.8,34.909
	C364.218,350.255,361.891,350.255,360.727,350.255z"/>
<path style="fill:#F19920;" d="M325.818,349.091c-6.982,0-11.636-4.655-11.636-11.636v-46.545c0-6.982,4.655-11.636,11.636-11.636
	c6.982,0,11.636,4.655,11.636,11.636v46.545C337.455,344.436,332.8,349.091,325.818,349.091z"/>
<g>
	<path style="fill:#F6B545;" d="M379.345,292.073c2.327,6.982,4.655,13.964,4.655,22.109c0,32.582-25.6,58.182-58.182,58.182
		c-3.491,0-8.145,0-11.636-1.164v1.164c0,8.145,1.164,15.127,3.491,23.273c2.327,0,5.818,0,8.145,0
		c45.382,0,81.455-36.073,81.455-81.455c0-8.145-1.164-15.127-3.491-23.273c-2.327,0-5.818,0-8.145,0
		C389.818,290.909,385.164,290.909,379.345,292.073z"/>
	<circle style="fill:#F6B545;" cx="384" cy="384" r="81.455"/>
</g>
<path style="fill:#FFCB5B;" d="M384,302.545c-45.382,0-81.455,36.073-81.455,81.455s36.073,81.455,81.455,81.455
	s81.455-36.073,81.455-81.455S429.382,302.545,384,302.545z M384,442.182c-32.582,0-58.182-25.6-58.182-58.182
	s25.6-58.182,58.182-58.182s58.182,25.6,58.182,58.182S416.582,442.182,384,442.182z"/>
<path style="fill:#F6B545;" d="M384,464.291L384,464.291c45.382,1.164,81.455-36.073,81.455-80.291h-1.164
	c-5.818,0-10.473,4.655-11.636,10.473c-2.327,16.291-10.473,31.418-22.109,41.891c-9.309,9.309-22.109,15.127-36.073,17.455
	C388.655,453.818,384,458.473,384,464.291z"/>
<path style="fill:#FFE27A;" d="M384,303.709L384,303.709c-45.382-1.164-81.455,36.073-81.455,80.291h1.164
	c5.818,0,10.473-4.655,11.636-10.473c2.327-16.291,10.473-31.418,22.109-41.891c9.309-9.309,22.109-15.127,36.073-17.455
	C379.345,314.182,384,309.527,384,303.709z"/>
<path style="fill:#F19920;" d="M333.964,392.145c0-32.582,25.6-58.182,58.182-58.182c13.964,0,26.764,4.655,37.236,13.964
	c-11.636-13.964-26.764-22.109-45.382-22.109c-32.582,0-58.182,25.6-58.182,58.182c0,18.618,8.145,33.745,20.945,44.218
	C338.618,418.909,333.964,406.109,333.964,392.145z"/>
<path style="fill:#FFCB5B;" d="M418.909,420.073c-1.164,0-2.327,0-3.491-1.164c-2.327-2.327-2.327-5.818,0-8.145
	c6.982-6.982,10.473-17.455,10.473-26.764c0-3.491,2.327-5.818,5.818-5.818s5.818,2.327,5.818,5.818c0,12.8-4.655,25.6-12.8,34.909
	C422.4,420.073,420.073,420.073,418.909,420.073z"/>
<path style="fill:#F19920;" d="M384,418.909c-6.982,0-11.636-4.655-11.636-11.636v-46.545c0-6.982,4.655-11.636,11.636-11.636
	c6.982,0,11.636,4.655,11.636,11.636v46.545C395.636,414.255,390.982,418.909,384,418.909z"/>
<g>
</g>
<g>
</g>
<g>
</g>
<g>
</g>
<g>
</g>
<g>
</g>
<g>
</g>
<g>
</g>
<g>
</g>
<g>
</g>
<g>
</g>
<g>
</g>
<g>
</g>
<g>
</g>
<g>
</g>
</svg>
