<?xml version="1.0" encoding="iso-8859-1"?>
<!-- Generator: Adobe Illustrator 19.0.0, SVG Export Plug-In . SVG Version: 6.00 Build 0)  -->
<svg version="1.1" id="Layer_1" xmlns="http://www.w3.org/2000/svg" xmlns:xlink="http://www.w3.org/1999/xlink" x="0px" y="0px"
	 viewBox="0 0 512 512" style="enable-background:new 0 0 512 512;" xml:space="preserve">
<path style="fill:#FFE5BB;" d="M391.813,398.853v-34.184h-63.852v34.184c-33.473,2.232-59.693,30.325-59.693,63.958v44.797
	c0,2.425,1.964,4.392,4.383,4.392h174.467c2.423,0,4.385-1.965,4.385-4.392v-44.797
	C451.504,429.178,425.285,401.085,391.813,398.853z"/>
<path style="fill:#F4D6AB;" d="M449.563,292.279c0,44.321-35.847,80.25-80.066,80.25h-19.218c-44.221,0-80.071-35.929-80.071-80.25
	v-73.83c0-44.321,35.849-80.251,80.071-80.251h19.218c44.219,0,80.066,35.931,80.066,80.251V292.279z"/>
<path style="opacity:0.1;enable-background:new    ;" d="M292.566,292.279v-73.83c0-43.782,34.988-79.353,78.47-80.211
	c-0.535-0.01-1.064-0.041-1.601-0.041h-19.217c-44.223,0-80.071,35.931-80.071,80.251v73.83c0,44.321,35.847,80.25,80.071,80.25
	h19.217c0.538,0,1.067-0.03,1.601-0.042C327.556,371.631,292.566,336.062,292.566,292.279z"/>
<g>
	<path style="fill:#684223;" d="M322.298,295.286c-4.562,0-8.259-3.698-8.259-8.259v-11.608c0-4.561,3.697-8.259,8.259-8.259
		c4.561,0,8.258,3.698,8.258,8.259v11.608C330.557,291.589,326.86,295.286,322.298,295.286z"/>
	<path style="fill:#684223;" d="M397.353,295.286c-4.561,0-8.259-3.698-8.259-8.259v-11.608c0-4.561,3.698-8.259,8.259-8.259
		c4.562,0,8.259,3.698,8.259,8.259v11.608C405.613,291.589,401.916,295.286,397.353,295.286z"/>
</g>
<path style="fill:#FFFFFF;" d="M349.682,347.191c-10.438,0-18.928-8.512-18.928-18.974v-5.422c0-1.871,1.512-3.389,3.378-3.389
	h51.385c1.865,0,3.378,1.517,3.378,3.389v5.422c0,10.463-8.491,18.974-18.927,18.974H349.682z"/>
<path style="fill:#E84731;" d="M272.651,512h174.467c2.421,0,4.379-1.96,4.385-4.382v-14.079c0-25.703-20.681-46.539-46.193-46.539
	c-22.655,0-41.487,16.434-45.428,38.114C355.948,463.434,337.116,447,314.46,447c-25.511,0-46.193,20.835-46.193,46.539v14.07
	C268.267,510.035,270.232,512,272.651,512z"/>
<path style="fill:#C69C6D;" d="M364.17,125.818h-8.566c-60.071,0-108.768,48.748-108.768,108.884v152.607
	c0,24.701,8.222,47.478,22.068,65.748c4.491-29.159,28.764-52.192,58.939-54.204v-29.488c-33.363-9.686-57.751-40.529-57.751-77.086
	v-46.273h112.82l12.738-22.109l12.74,22.109h41.055v46.273c0,36.557-24.392,67.402-57.749,77.086v29.488
	c30.261,2.018,54.59,25.177,58.978,54.455c13.962-18.313,22.262-41.185,22.262-65.999V234.702
	C472.936,174.566,424.239,125.818,364.17,125.818z"/>
<g style="opacity:0.1;">
	<path d="M270.044,387.309V234.702c0-57.702,44.838-104.912,101.539-108.638c-2.391-0.157-4.8-0.246-7.23-0.246h-8.567
		c-60.071,0-108.768,48.748-108.768,108.884v152.607c0,24.701,8.222,47.478,22.068,65.748c1.357-8.816,4.535-17.064,9.123-24.348
		C272.961,415.944,270.044,401.971,270.044,387.309z"/>
</g>
<path style="fill:#FFC529;" d="M359.823,430.174c19.657,0,36.523-12.194,43.539-29.447c-3.627-0.933-7.378-1.559-11.228-1.838
	c-5.879,11.998-18.15,20.273-32.31,20.273c-14.158,0-26.428-8.276-32.304-20.273c-3.85,0.279-7.602,0.904-11.228,1.838
	C323.304,417.98,340.171,430.174,359.823,430.174z"/>
<path style="fill:#CC961D;" d="M373.409,426.799c0,7.718-6.246,13.974-13.947,13.974l0,0c-7.704,0-13.951-6.257-13.951-13.974l0,0
	c0-7.718,6.247-13.974,13.951-13.974l0,0C367.164,412.825,373.409,419.081,373.409,426.799L373.409,426.799z"/>
<g>
	<path style="fill:#FF9C88;" d="M307.073,315.749h-12.273c-4.562,0-8.259-3.698-8.259-8.259s3.697-8.259,8.259-8.259h12.273
		c4.562,0,8.259,3.698,8.259,8.259S311.635,315.749,307.073,315.749z"/>
	<path style="fill:#FF9C88;" d="M426.308,315.749h-12.274c-4.561,0-8.259-3.698-8.259-8.259s3.698-8.259,8.259-8.259h12.274
		c4.561,0,8.259,3.698,8.259,8.259C434.568,312.052,430.87,315.749,426.308,315.749z"/>
</g>
<path style="fill:#A5B8C4;" d="M43.396,511.843c-2.394,0-4.331-1.943-4.331-4.34v-64.461c0-18.03,14.637-32.7,32.628-32.7h192.425
	c17.992,0,32.628,14.67,32.628,32.7v64.461c0,2.397-1.936,4.34-4.329,4.34H43.396z"/>
<path style="opacity:0.1;enable-background:new    ;" d="M73.288,507.503v-64.461c0-18.03,14.638-32.7,32.63-32.7H71.693
	c-17.991,0-32.628,14.67-32.628,32.7v64.461c0,2.397,1.937,4.34,4.331,4.34H77.62C75.225,511.843,73.288,509.9,73.288,507.503z"/>
<g>
	<rect x="135.242" y="354.22" style="fill:#FFE5BB;" width="65.327" height="60.635"/>
	<path style="fill:#FFE5BB;" d="M259.871,250.662c-1.685,0-3.33,0.18-4.915,0.515v46.484c1.586,0.335,3.23,0.515,4.915,0.515
		c13.09,0,23.704-10.638,23.704-23.756C283.575,261.298,272.962,250.662,259.871,250.662z"/>
	<path style="fill:#FFE5BB;" d="M80.458,251.098c-1.463-0.283-2.974-0.437-4.52-0.437c-13.088,0-23.7,10.637-23.7,23.759
		c0,13.118,10.611,23.756,23.7,23.756c1.546,0,3.057-0.154,4.52-0.437V251.098z"/>
</g>
<path style="fill:#F4D6AB;" d="M259.661,278.128c0,45.346-36.68,82.107-81.925,82.107h-19.661
	c-45.246,0-81.924-36.761-81.924-82.107v-75.541c0-45.348,36.679-82.11,81.924-82.11h19.661c45.246,0,81.925,36.763,81.925,82.11
	V278.128z"/>
<path style="opacity:0.1;enable-background:new    ;" d="M99.011,278.188v-62.986c-8.504-0.381-16.357-3.253-22.86-7.903v70.827
	c0,45.346,36.679,82.107,81.924,82.107h19.661c0.138,0,0.275-0.009,0.412-0.009C134.195,358.749,99.011,322.598,99.011,278.188z"/>
<path style="fill:#8C6239;" d="M177.736,120.477h-19.661c-45.246,0-81.924,36.763-81.924,82.11v16.509
	c6.995,5,15.55,7.949,24.799,7.949c13.562,0,25.641-6.333,33.479-16.2c7.839,9.867,19.918,16.2,33.477,16.2
	c13.562,0,25.641-6.333,33.477-16.2c7.837,9.867,19.92,16.2,33.477,16.2c9.252,0,17.804-2.949,24.801-7.949v-16.509
	C259.661,157.238,222.981,120.477,177.736,120.477z"/>
<g style="opacity:0.1;">
	<path d="M110.739,219.096v-16.509c0-42.825,32.715-77.974,74.462-81.756c-2.46-0.223-4.947-0.354-7.464-0.354h-19.661
		c-45.246,0-81.924,36.763-81.924,82.11v16.509c6.995,5,15.55,7.949,24.799,7.949c6.158,0,12.003-1.317,17.291-3.665
		C115.588,222.201,113.075,220.766,110.739,219.096z"/>
</g>
<g>
	<path style="fill:#684223;" d="M129.508,281.014c-4.561,0-8.258-3.698-8.258-8.259v-11.877c0-4.561,3.697-8.259,8.258-8.259
		c4.561,0,8.259,3.698,8.259,8.259v11.877C137.768,277.316,134.07,281.014,129.508,281.014z"/>
	<path style="fill:#684223;" d="M206.305,281.014c-4.562,0-8.259-3.698-8.259-8.259v-11.877c0-4.561,3.697-8.259,8.259-8.259
		c4.56,0,8.258,3.698,8.258,8.259v11.877C214.562,277.316,210.865,281.014,206.305,281.014z"/>
</g>
<path style="fill:#FFFFFF;" d="M194.193,305.883h-52.575c-1.909,0-3.458,1.552-3.458,3.466v5.547
	c0,10.706,8.689,19.413,19.368,19.413h20.753c10.68,0,19.368-8.707,19.368-19.413v-5.547
	C197.651,307.436,196.103,305.883,194.193,305.883z"/>
<rect x="159.641" y="424.458" style="fill:#889DA8;" width="16.519" height="87.385"/>
<path style="fill:#6C8796;" d="M221.853,374.25c-2.266-1.213-4.534-1.213-6.8,0l-47.148,27.212l-47.147-27.212
	c-4.133-2.39-10.202,0.471-10.202,5.888v56.147c0,5.418,6.069,8.28,10.202,5.89l47.147-27.213l47.148,27.213
	c4.135,2.389,10.2-0.469,10.2-5.89v-56.147C225.253,374.526,222.242,374.475,221.853,374.25
	C220.799,373.642,223.956,375.464,221.853,374.25C219.586,373.036,223.956,375.464,221.853,374.25
	C219.586,373.036,223.956,375.464,221.853,374.25z"/>
<ellipse style="fill:#506672;" cx="167.906" cy="407.918" rx="20.637" ry="20.696"/>
<path style="fill:#E84731;" d="M266.489,136.257c-2.239,0.005-4.392-0.89-5.982-2.483l-58.412-58.619
	c-8.257-8.281-12.817-19.3-12.838-31.03c-0.022-11.73,4.499-22.77,12.726-31.08c8.229-8.313,19.179-12.899,30.837-12.922
	c11.659-0.02,22.628,4.526,30.884,12.809l2.567,2.571l2.557-2.583C277.055,4.611,288.005,0.024,299.663,0
	c11.658-0.018,22.628,4.526,30.885,12.809c8.259,8.281,12.821,19.301,12.841,31.028c0.023,11.733-4.498,22.773-12.728,31.083
	l-58.2,58.832C270.88,135.35,268.732,136.254,266.489,136.257z"/>
<g style="opacity:0.1;">
	<path d="M236.997,63.882c-8.257-8.281-12.817-19.301-12.838-31.03c-0.022-11.73,4.499-22.77,12.725-31.079
		c0.446-0.449,0.902-0.883,1.364-1.31c-1.789-0.218-3.598-0.341-5.427-0.338c-11.657,0.023-22.608,4.609-30.837,12.922
		c-8.226,8.309-12.748,19.35-12.726,31.08c0.022,11.73,4.581,22.75,12.838,31.03l58.412,58.619c1.589,1.592,3.743,2.488,5.982,2.483
		c2.242-0.003,4.392-0.907,5.973-2.506l17.017-17.202L236.997,63.882z"/>
</g>
<g>
</g>
<g>
</g>
<g>
</g>
<g>
</g>
<g>
</g>
<g>
</g>
<g>
</g>
<g>
</g>
<g>
</g>
<g>
</g>
<g>
</g>
<g>
</g>
<g>
</g>
<g>
</g>
<g>
</g>
</svg>
