<?xml version="1.0" encoding="iso-8859-1"?>
<!-- Generator: Adobe Illustrator 19.0.0, SVG Export Plug-In . SVG Version: 6.00 Build 0)  -->
<svg version="1.1" id="Layer_1" xmlns="http://www.w3.org/2000/svg" xmlns:xlink="http://www.w3.org/1999/xlink" x="0px" y="0px"
	 viewBox="0 0 512 512" style="enable-background:new 0 0 512 512;" xml:space="preserve">
<rect x="248.203" y="23.391" style="fill:#459492;" width="15.594" height="119.553"/>
<g>
	<path style="fill:#FFD102;" d="M71.472,296.284H40.284c-4.306,0-7.797-3.49-7.797-7.797c0-4.307,3.491-7.797,7.797-7.797h31.188
		c4.306,0,7.797,3.49,7.797,7.797C79.269,292.794,75.778,296.284,71.472,296.284z"/>
	<path style="fill:#FFD102;" d="M471.716,296.284h-31.188c-4.307,0-7.797-3.49-7.797-7.797c0-4.307,3.49-7.797,7.797-7.797h31.188
		c4.307,0,7.797,3.49,7.797,7.797C479.513,292.794,476.023,296.284,471.716,296.284z"/>
	<path style="fill:#FFD102;" d="M103.466,448.819c-1.995,0-3.991-0.761-5.513-2.283c-3.045-3.046-3.045-7.982,0-11.027
		l22.053-22.053c3.045-3.044,7.982-3.044,11.026,0c3.045,3.046,3.045,7.982,0,11.027l-22.053,22.053
		C107.457,448.057,105.461,448.819,103.466,448.819z"/>
	<path style="fill:#FFD102;" d="M386.482,165.803c-1.995,0-3.991-0.761-5.514-2.283c-3.045-3.046-3.045-7.982,0-11.027
		l22.053-22.053c3.046-3.044,7.982-3.044,11.027,0c3.045,3.046,3.045,7.982,0,11.027l-22.053,22.053
		C390.473,165.042,388.477,165.803,386.482,165.803z"/>
	<path style="fill:#FFD102;" d="M125.52,165.803c-1.995,0-3.991-0.761-5.513-2.283l-22.053-22.053
		c-3.045-3.046-3.045-7.982,0-11.027c3.045-3.044,7.982-3.044,11.026,0l22.053,22.053c3.045,3.046,3.045,7.982,0,11.027
		C129.511,165.042,127.515,165.803,125.52,165.803z"/>
	<path style="fill:#FFD102;" d="M408.534,448.819c-1.995,0-3.991-0.761-5.514-2.283l-22.053-22.053
		c-3.045-3.046-3.045-7.982,0-11.027c3.046-3.044,7.982-3.044,11.027,0l22.053,22.053c3.045,3.046,3.045,7.982,0,11.027
		C412.524,448.057,410.529,448.819,408.534,448.819z"/>
	<path style="fill:#FFD102;" d="M256,512c-4.306,0-7.797-3.49-7.797-7.797v-31.188c0-4.307,3.491-7.797,7.797-7.797
		c4.307,0,7.797,3.49,7.797,7.797v31.188C263.797,508.51,260.307,512,256,512z"/>
</g>
<path style="fill:#57BAB7;" d="M204.02,0v15.594c0,8.577,7.017,15.594,15.594,15.594h72.772c8.577,0,15.594-7.017,15.594-15.594V0
	H204.02z"/>
<path style="fill:#9AD6D4;" d="M388.821,211.817c-26.513-45.833-76.064-76.67-132.821-76.67c-26.392,0-60.058,16.285-73.851,56.886
	l-58.97,19.785c-13.048,22.555-20.52,48.739-20.52,76.67l20.52,76.67c26.513,45.833,76.064,76.67,132.821,76.67
	c26.212,0,68.615-24.785,83.795-66.274l49.025-10.396c13.048-22.555,20.52-48.739,20.52-76.67L388.821,211.817z"/>
<g>
	<path style="fill:#57BAB7;" d="M332.67,288.487h76.67c0-27.931-7.472-54.115-20.52-76.67h-66.41
		C328.935,234.372,332.67,260.557,332.67,288.487z"/>
	<path style="fill:#57BAB7;" d="M256,211.817h66.41c-13.257-45.833-38.033-76.67-66.41-76.67c0,0,0,11.622,0,31.188V211.817z"/>
	<path style="fill:#57BAB7;" d="M256,211.817h-66.41c-6.523,22.555-10.26,48.739-10.26,76.67H256V211.817z"/>
	<path style="fill:#57BAB7;" d="M256,365.157h66.41c6.525-22.555,10.26-48.739,10.26-76.67H256V365.157z"/>
	<path style="fill:#57BAB7;" d="M256,441.827c56.757,0,106.308-30.837,132.821-76.67h-66.41
		C309.153,410.99,284.378,441.827,256,441.827z"/>
	<path style="fill:#57BAB7;" d="M256,135.147c-56.757,0-106.308,30.837-132.821,76.67h66.41
		C202.847,165.985,227.622,135.147,256,135.147z"/>
	<path style="fill:#57BAB7;" d="M256,365.157h-66.41c13.257,45.833,38.033,76.67,66.41,76.67c0,0,0-11.622,0-31.188V365.157z"/>
	<path style="fill:#57BAB7;" d="M179.33,288.487h-76.67c0,27.931,7.472,54.115,20.52,76.67h66.41
		C183.065,342.602,179.33,316.418,179.33,288.487z"/>
</g>
<g>
</g>
<g>
</g>
<g>
</g>
<g>
</g>
<g>
</g>
<g>
</g>
<g>
</g>
<g>
</g>
<g>
</g>
<g>
</g>
<g>
</g>
<g>
</g>
<g>
</g>
<g>
</g>
<g>
</g>
</svg>
