<?xml version="1.0" encoding="UTF-8" standalone="no"?>
<!-- Created with Inkscape (http://www.inkscape.org/) -->

<svg
   xmlns:dc="http://purl.org/dc/elements/1.1/"
   xmlns:cc="http://creativecommons.org/ns#"
   xmlns:rdf="http://www.w3.org/1999/02/22-rdf-syntax-ns#"
   xmlns:svg="http://www.w3.org/2000/svg"
   xmlns="http://www.w3.org/2000/svg"
   xmlns:sodipodi="http://sodipodi.sourceforge.net/DTD/sodipodi-0.dtd"
   xmlns:inkscape="http://www.inkscape.org/namespaces/inkscape"
   width="244.17757"
   height="145.93832"
   id="svg2"
   version="1.1"
   inkscape:version="0.48.5 r10040"
   sodipodi:docname="Novo documento 1">
  <defs
     id="defs4" />
  <sodipodi:namedview
     id="base"
     pagecolor="#ffffff"
     bordercolor="#666666"
     borderopacity="1.0"
     inkscape:pageopacity="0.0"
     inkscape:pageshadow="2"
     inkscape:zoom="0.7"
     inkscape:cx="110.51822"
     inkscape:cy="-129.01999"
     inkscape:document-units="px"
     inkscape:current-layer="layer1"
     showgrid="false"
     fit-margin-top="0"
     fit-margin-left="0"
     fit-margin-right="0"
     fit-margin-bottom="0"
     inkscape:window-width="1366"
     inkscape:window-height="715"
     inkscape:window-x="-8"
     inkscape:window-y="-8"
     inkscape:window-maximized="1" />
  <metadata
     id="metadata7">
    <rdf:RDF>
      <cc:Work
         rdf:about="">
        <dc:format>image/svg+xml</dc:format>
        <dc:type
           rdf:resource="http://purl.org/dc/dcmitype/StillImage" />
        <dc:title></dc:title>
      </cc:Work>
    </rdf:RDF>
  </metadata>
  <g
     inkscape:label="Camada 1"
     inkscape:groupmode="layer"
     id="layer1"
     transform="translate(-197.59537,-178.9048)">
    <g
       id="g3860">
      <g
         id="g7588"
         transform="matrix(0.88940894,0,0,0.88940894,1695.3858,324.16203)">
        <rect
           inkscape:export-ydpi="90"
           inkscape:export-xdpi="90"
           inkscape:export-filename="C:\Users\Cristiano\Desktop\Lailla\LogoVersao1.png"
           style="fill:#48524f;fill-opacity:1;stroke:none"
           id="rect7590"
           width="57.577621"
           height="43.767273"
           x="-1575.5482"
           y="-163.31883"
           ry="8.6545448" />
        <rect
           inkscape:export-ydpi="90"
           inkscape:export-xdpi="90"
           inkscape:export-filename="C:\Users\Cristiano\Desktop\Lailla\LogoVersao1.png"
           style="fill:#48524f;fill-opacity:1;stroke:none"
           id="rect7592"
           width="8.0956306"
           height="6.7907715"
           x="-1508.5819"
           y="-156.61411"
           ry="1.3428081" />
        <rect
           inkscape:export-ydpi="90"
           inkscape:export-xdpi="90"
           inkscape:export-filename="C:\Users\Cristiano\Desktop\Lailla\LogoVersao1.png"
           ry="1.9725395"
           y="-155.62576"
           x="-1511.0956"
           height="9.9754143"
           width="13.123062"
           id="rect7594"
           style="fill:#ffb700;fill-opacity:1;stroke:none" />
        <rect
           inkscape:export-ydpi="90"
           inkscape:export-xdpi="90"
           inkscape:export-filename="C:\Users\Cristiano\Desktop\Lailla\LogoVersao1.png"
           ry="19.417664"
           y="-153.33829"
           x="-1611.3511"
           height="98.197914"
           width="129.18332"
           id="rect7596"
           style="fill:#02a8f3;fill-opacity:1;stroke:none" />
        <rect
           inkscape:export-ydpi="90"
           inkscape:export-xdpi="90"
           inkscape:export-filename="C:\Users\Cristiano\Desktop\Lailla\LogoVersao1.png"
           ry="1.9077295"
           y="-142.1813"
           x="-1513.876"
           height="9.6476631"
           width="22.179934"
           id="rect7598"
           style="fill:#ffffff;fill-opacity:1;stroke:none" />
        <rect
           inkscape:export-ydpi="90"
           inkscape:export-xdpi="90"
           inkscape:export-filename="C:\Users\Cristiano\Desktop\Lailla\LogoVersao1.png"
           style="fill:#f9f9f9;fill-opacity:1;stroke:none"
           id="rect7600"
           width="16.440361"
           height="7.1511059"
           x="-1511.0061"
           y="-140.93304"
           ry="1.4140602" />
        <rect
           inkscape:export-ydpi="90"
           inkscape:export-xdpi="90"
           inkscape:export-filename="C:\Users\Cristiano\Desktop\Lailla\LogoVersao1.png"
           ry="0.65772676"
           y="-140.05034"
           x="-1508.3512"
           height="3.3262186"
           width="11.130512"
           id="rect7602"
           style="fill:#ffffff;fill-opacity:1;stroke:none" />
        <g
           style="fill:#ffffff"
           transform="matrix(0.36012323,0,0,0.36012323,-1685.479,-199.63948)"
           id="g7604">
          <path
             transform="matrix(0.62266277,0.09790058,-0.09790058,0.62266277,407.0702,60.481398)"
             inkscape:transform-center-y="-0.11645645"
             inkscape:transform-center-x="9.0557468"
             d="m 86.571425,383.50503 c -4.491667,6.13148 -19.983611,88.70482 -27.22144,91.02515 -7.23783,2.32034 -67.8515379,-55.85468 -75.070925,-58.23178 -7.219387,-2.3771 -90.53857,8.40575 -94.98195,2.23919 -4.44339,-6.16656 32.153685,-81.79069 32.183525,-89.3913 0.02984,-7.60061 -35.972305,-83.50978 -31.480635,-89.64126 4.49167,-6.13148 87.723609,5.30526 94.961439,2.98492 7.2378296,-2.32033 68.306462,-60.01763 75.525849,-57.64053 7.219387,2.3771 22.062486,85.06952 26.50587,91.23608 4.443384,6.16657 78.188012,46.41684 78.158172,54.01745 -0.0298,7.60061 -74.088238,47.2706 -78.579905,53.40208 z"
             inkscape:randomized="0"
             inkscape:rounded="0.08"
             inkscape:flatsided="false"
             sodipodi:arg2="1.2605631"
             sodipodi:arg1="0.63224455"
             sodipodi:r2="152.29536"
             sodipodi:r1="91.377213"
             sodipodi:cy="329.50504"
             sodipodi:cx="12.857143"
             sodipodi:sides="5"
             id="path7606"
             style="fill:#ffffff;fill-opacity:1;stroke:none"
             sodipodi:type="star" />
          <path
             sodipodi:type="star"
             style="fill:#ffffff;fill-opacity:1;stroke:none"
             id="path7608"
             sodipodi:sides="5"
             sodipodi:cx="12.857143"
             sodipodi:cy="329.50504"
             sodipodi:r1="91.377213"
             sodipodi:r2="152.29536"
             sodipodi:arg1="0.63224455"
             sodipodi:arg2="1.2605631"
             inkscape:flatsided="false"
             inkscape:rounded="0.08"
             inkscape:randomized="0"
             d="m 86.571425,383.50503 c -4.491667,6.13148 -19.983611,88.70482 -27.22144,91.02515 -7.23783,2.32034 -67.8515379,-55.85468 -75.070925,-58.23178 -7.219387,-2.3771 -90.53857,8.40575 -94.98195,2.23919 -4.44339,-6.16656 32.153685,-81.79069 32.183525,-89.3913 0.02984,-7.60061 -35.972305,-83.50978 -31.480635,-89.64126 4.49167,-6.13148 87.723609,5.30526 94.961439,2.98492 7.2378296,-2.32033 68.306462,-60.01763 75.525849,-57.64053 7.219387,2.3771 22.062486,85.06952 26.50587,91.23608 4.443384,6.16657 78.188012,46.41684 78.158172,54.01745 -0.0298,7.60061 -74.088238,47.2706 -78.579905,53.40208 z"
             inkscape:transform-center-x="10.760229"
             inkscape:transform-center-y="-18.217516"
             transform="matrix(0.4250577,0.46542389,-0.46542389,0.4250577,534.67406,117.44353)" />
        </g>
        <g
           id="g7610"
           transform="matrix(0.26136521,0,0,0.26136521,-1647.4374,-173.47752)"
           style="fill:#48524f;fill-opacity:1">
          <path
             sodipodi:type="star"
             style="fill:#48524f;fill-opacity:1;stroke:none"
             id="path7612"
             sodipodi:sides="5"
             sodipodi:cx="12.857143"
             sodipodi:cy="329.50504"
             sodipodi:r1="91.377213"
             sodipodi:r2="152.29536"
             sodipodi:arg1="0.63224455"
             sodipodi:arg2="1.2605631"
             inkscape:flatsided="false"
             inkscape:rounded="0.08"
             inkscape:randomized="0"
             d="m 86.571425,383.50503 c -4.491667,6.13148 -19.983611,88.70482 -27.22144,91.02515 -7.23783,2.32034 -67.8515379,-55.85468 -75.070925,-58.23178 -7.219387,-2.3771 -90.53857,8.40575 -94.98195,2.23919 -4.44339,-6.16656 32.153685,-81.79069 32.183525,-89.3913 0.02984,-7.60061 -35.972305,-83.50978 -31.480635,-89.64126 4.49167,-6.13148 87.723609,5.30526 94.961439,2.98492 7.2378296,-2.32033 68.306462,-60.01763 75.525849,-57.64053 7.219387,2.3771 22.062486,85.06952 26.50587,91.23608 4.443384,6.16657 78.188012,46.41684 78.158172,54.01745 -0.0298,7.60061 -74.088238,47.2706 -78.579905,53.40208 z"
             inkscape:transform-center-x="9.0557468"
             inkscape:transform-center-y="-0.11645645"
             transform="matrix(0.62266277,0.09790058,-0.09790058,0.62266277,407.0702,60.481398)" />
          <path
             transform="matrix(0.4250577,0.46542389,-0.46542389,0.4250577,534.67406,117.44353)"
             inkscape:transform-center-y="-18.217516"
             inkscape:transform-center-x="10.760229"
             d="m 86.571425,383.50503 c -4.491667,6.13148 -19.983611,88.70482 -27.22144,91.02515 -7.23783,2.32034 -67.8515379,-55.85468 -75.070925,-58.23178 -7.219387,-2.3771 -90.53857,8.40575 -94.98195,2.23919 -4.44339,-6.16656 32.153685,-81.79069 32.183525,-89.3913 0.02984,-7.60061 -35.972305,-83.50978 -31.480635,-89.64126 4.49167,-6.13148 87.723609,5.30526 94.961439,2.98492 7.2378296,-2.32033 68.306462,-60.01763 75.525849,-57.64053 7.219387,2.3771 22.062486,85.06952 26.50587,91.23608 4.443384,6.16657 78.188012,46.41684 78.158172,54.01745 -0.0298,7.60061 -74.088238,47.2706 -78.579905,53.40208 z"
             inkscape:randomized="0"
             inkscape:rounded="0.08"
             inkscape:flatsided="false"
             sodipodi:arg2="1.2605631"
             sodipodi:arg1="0.63224455"
             sodipodi:r2="152.29536"
             sodipodi:r1="91.377213"
             sodipodi:cy="329.50504"
             sodipodi:cx="12.857143"
             sodipodi:sides="5"
             id="path7614"
             style="fill:#48524f;fill-opacity:1;stroke:none"
             sodipodi:type="star" />
        </g>
        <g
           style="fill:#ffb700;fill-opacity:1"
           transform="matrix(0.19655728,0,0,0.19655728,-1622.4733,-156.30926)"
           id="g7616">
          <path
             transform="matrix(0.62266277,0.09790058,-0.09790058,0.62266277,407.0702,60.481398)"
             inkscape:transform-center-y="-0.11645645"
             inkscape:transform-center-x="9.0557468"
             d="m 86.571425,383.50503 c -4.491667,6.13148 -19.983611,88.70482 -27.22144,91.02515 -7.23783,2.32034 -67.8515379,-55.85468 -75.070925,-58.23178 -7.219387,-2.3771 -90.53857,8.40575 -94.98195,2.23919 -4.44339,-6.16656 32.153685,-81.79069 32.183525,-89.3913 0.02984,-7.60061 -35.972305,-83.50978 -31.480635,-89.64126 4.49167,-6.13148 87.723609,5.30526 94.961439,2.98492 7.2378296,-2.32033 68.306462,-60.01763 75.525849,-57.64053 7.219387,2.3771 22.062486,85.06952 26.50587,91.23608 4.443384,6.16657 78.188012,46.41684 78.158172,54.01745 -0.0298,7.60061 -74.088238,47.2706 -78.579905,53.40208 z"
             inkscape:randomized="0"
             inkscape:rounded="0.08"
             inkscape:flatsided="false"
             sodipodi:arg2="1.2605631"
             sodipodi:arg1="0.63224455"
             sodipodi:r2="152.29536"
             sodipodi:r1="91.377213"
             sodipodi:cy="329.50504"
             sodipodi:cx="12.857143"
             sodipodi:sides="5"
             id="path7618"
             style="fill:#ffb700;fill-opacity:1;stroke:none"
             sodipodi:type="star" />
          <path
             sodipodi:type="star"
             style="fill:#ffb700;fill-opacity:1;stroke:none"
             id="path7620"
             sodipodi:sides="5"
             sodipodi:cx="12.857143"
             sodipodi:cy="329.50504"
             sodipodi:r1="91.377213"
             sodipodi:r2="152.29536"
             sodipodi:arg1="0.63224455"
             sodipodi:arg2="1.2605631"
             inkscape:flatsided="false"
             inkscape:rounded="0.08"
             inkscape:randomized="0"
             d="m 86.571425,383.50503 c -4.491667,6.13148 -19.983611,88.70482 -27.22144,91.02515 -7.23783,2.32034 -67.8515379,-55.85468 -75.070925,-58.23178 -7.219387,-2.3771 -90.53857,8.40575 -94.98195,2.23919 -4.44339,-6.16656 32.153685,-81.79069 32.183525,-89.3913 0.02984,-7.60061 -35.972305,-83.50978 -31.480635,-89.64126 4.49167,-6.13148 87.723609,5.30526 94.961439,2.98492 7.2378296,-2.32033 68.306462,-60.01763 75.525849,-57.64053 7.219387,2.3771 22.062486,85.06952 26.50587,91.23608 4.443384,6.16657 78.188012,46.41684 78.158172,54.01745 -0.0298,7.60061 -74.088238,47.2706 -78.579905,53.40208 z"
             inkscape:transform-center-x="10.760229"
             inkscape:transform-center-y="-18.217516"
             transform="matrix(0.4250577,0.46542389,-0.46542389,0.4250577,534.67406,117.44353)" />
        </g>
      </g>
      <g
         transform="matrix(0.86796957,0,0,0.86796957,178.62013,-240.6937)"
         id="g3854">
        <text
           inkscape:export-ydpi="90"
           inkscape:export-xdpi="90"
           inkscape:export-filename="C:\Users\Cristiano\Desktop\Lailla\LogoVersao1.png"
           sodipodi:linespacing="125%"
           id="text7582"
           y="646.86908"
           x="86.403908"
           style="font-size:57.95415878px;font-style:normal;font-weight:normal;line-height:125%;letter-spacing:0px;word-spacing:0px;fill:#02a8f3;fill-opacity:1;stroke:none;font-family:Sans"
           xml:space="preserve"><tspan
             id="tspan7584"
             style="font-style:normal;font-variant:normal;font-weight:normal;font-stretch:normal;text-align:center;text-anchor:middle;fill:#02a8f3;fill-opacity:1;font-family:BlackJack;-inkscape-font-specification:BlackJack"
             y="646.86908"
             x="93.648178"
             sodipodi:role="line">Lailla </tspan></text>
        <text
           xml:space="preserve"
           style="font-size:57.95415878px;font-style:normal;font-weight:normal;line-height:125%;letter-spacing:0px;word-spacing:0px;fill:#48524f;fill-opacity:1;stroke:none;font-family:Sans"
           x="229.97533"
           y="647.68085"
           id="text3850"
           sodipodi:linespacing="125%"
           inkscape:export-filename="C:\Users\Cristiano\Desktop\Lailla\LogoVersao1.png"
           inkscape:export-xdpi="90"
           inkscape:export-ydpi="90"><tspan
             sodipodi:role="line"
             x="229.97533"
             y="647.68085"
             style="font-style:normal;font-variant:normal;font-weight:normal;font-stretch:normal;text-align:center;text-anchor:middle;fill:#48524f;fill-opacity:1;font-family:BlackJack;-inkscape-font-specification:BlackJack"
             id="tspan3852">Photos</tspan></text>
      </g>
    </g>
  </g>
</svg>
