<?xml version="1.0" encoding="UTF-8" standalone="no"?>
<!-- Created with Inkscape (http://www.inkscape.org/) -->

<svg
   xmlns:dc="http://purl.org/dc/elements/1.1/"
   xmlns:cc="http://creativecommons.org/ns#"
   xmlns:rdf="http://www.w3.org/1999/02/22-rdf-syntax-ns#"
   xmlns:svg="http://www.w3.org/2000/svg"
   xmlns="http://www.w3.org/2000/svg"
   xmlns:sodipodi="http://sodipodi.sourceforge.net/DTD/sodipodi-0.dtd"
   xmlns:inkscape="http://www.inkscape.org/namespaces/inkscape"
   width="196.32913"
   height="80.325668"
   id="svg2"
   version="1.1"
   inkscape:version="0.48.5 r10040"
   sodipodi:docname="Novo documento 1">
  <defs
     id="defs4" />
  <sodipodi:namedview
     id="base"
     pagecolor="#ffffff"
     bordercolor="#666666"
     borderopacity="1.0"
     inkscape:pageopacity="0.0"
     inkscape:pageshadow="2"
     inkscape:zoom="1.4"
     inkscape:cx="185.05913"
     inkscape:cy="59.819663"
     inkscape:document-units="px"
     inkscape:current-layer="layer1"
     showgrid="false"
     fit-margin-top="0"
     fit-margin-left="0"
     fit-margin-right="0"
     fit-margin-bottom="0"
     inkscape:window-width="1366"
     inkscape:window-height="745"
     inkscape:window-x="-8"
     inkscape:window-y="-8"
     inkscape:window-maximized="1" />
  <metadata
     id="metadata7">
    <rdf:RDF>
      <cc:Work
         rdf:about="">
        <dc:format>image/svg+xml</dc:format>
        <dc:type
           rdf:resource="http://purl.org/dc/dcmitype/StillImage" />
        <dc:title></dc:title>
      </cc:Work>
    </rdf:RDF>
  </metadata>
  <g
     inkscape:label="Camada 1"
     inkscape:groupmode="layer"
     id="layer1"
     transform="translate(-610.40686,-366.48506)">
    <g
       transform="translate(510.29111,-173.00662)"
       id="layer1-9"
       inkscape:label="Camada 1">
      <g
         transform="matrix(0.37919481,0,0,0.37919481,76.708073,435.34772)"
         id="g3831">
        <g
           id="g3034"
           transform="matrix(5.0891606,0,0,5.0891606,170.2585,180.08647)">
          <g
             id="g2986">
            <g
               id="g2988">
              <circle
                 id="circle2990"
                 r="4.3800001"
                 cy="24.063"
                 cx="49.362"
                 style="fill:#1d94ca;fill-opacity:1"
                 sodipodi:cx="49.362"
                 sodipodi:cy="24.063"
                 sodipodi:rx="4.3800001"
                 sodipodi:ry="4.3800001"
                 d="m 53.742,24.063 c 0,2.419007 -1.960993,4.38 -4.38,4.38 -2.419008,0 -4.380001,-1.960993 -4.380001,-4.38 0,-2.419008 1.960993,-4.38 4.380001,-4.38 2.419007,0 4.38,1.960992 4.38,4.38 z" />
              <path
                 id="path2992"
                 d="m 61.136,27.761 c -4.73,1.212 -9.496,2.252 -14.295,3.13 -0.019,-0.297 -0.066,-0.604 -0.152,-0.92 -0.963,-3.468 -6.215,-4.583 -7.489,-5.088 0.819,-0.891 1.638,-1.781 2.457,-2.671 1.832,-1.99 -1.132,-4.968 -2.97,-2.97 -1.501,1.633 -3.004,3.267 -4.506,4.899 -0.856,0.931 -0.842,2.68 0.426,3.297 0.704,0.343 1.424,0.657 2.149,0.96 -4.802,1.433 -7.063,1.619 -7.169,1.627 -9.448,0.816 -17.768,1.551 -27.216,2.368 -3.347,0.289 -3.065,5.498 0.309,5.207 5.61,-0.483 11.221,-0.972 16.831,-1.454 -5.143,1.29 -10.287,2.581 -15.429,3.869 -3.282,0.822 -1.89,5.885 1.395,5.062 6.599,-1.653 32.015,-7.385 36.833,-9.18 6.711,-1.043 13.36,-2.399 19.942,-4.088 2.623,-0.673 1.51,-4.721 -1.116,-4.048 z"
                 style="fill:#1d94ca;fill-opacity:1"
                 inkscape:connector-curvature="0" />
              <g
                 id="g2994">
                <path
                   id="path2996"
                   d="M 32.806,27.891 C 32.472,27.47 32.241,26.964 32.135,26.406 32.091,26.172 32.087,25.934 32.087,25.698 l -0.051,-0.072 -31.101,-4.9 3.774,9.927 24.747,-2.139 c 0.067,-0.006 1.148,-0.102 3.35,-0.623 z"
                   style="fill:#ff6868;fill-opacity:1"
                   inkscape:connector-curvature="0" />
              </g>
            </g>
          </g>
          <g
             id="g2998" />
          <g
             id="g3000" />
          <g
             id="g3002" />
          <g
             id="g3004" />
          <g
             id="g3006" />
          <g
             id="g3008" />
          <g
             id="g3010" />
          <g
             id="g3012" />
          <g
             id="g3014" />
          <g
             id="g3016" />
          <g
             id="g3018" />
          <g
             id="g3020" />
          <g
             id="g3022" />
          <g
             id="g3024" />
          <g
             id="g3026" />
        </g>
        <text
           xml:space="preserve"
           style="font-size:125.58743286px;font-style:normal;font-variant:normal;font-weight:normal;font-stretch:normal;line-height:125%;letter-spacing:0px;word-spacing:0px;fill:#1d94ca;fill-opacity:1;stroke:none;font-family:SantasSleighFull;-inkscape-font-specification:SantasSleighFull"
           x="57.543636"
           y="486.15277"
           id="text3057"
           sodipodi:linespacing="125%"><tspan
             sodipodi:role="line"
             id="tspan3059"
             x="57.543636"
             y="486.15277"
             style="font-style:normal;font-variant:normal;font-weight:normal;font-stretch:normal;fill:#1d94ca;fill-opacity:1;font-family:Rodina Light;-inkscape-font-specification:Rodina Light">Geek <tspan
   style="fill:#666666"
   id="tspan3811">Store</tspan></tspan></text>
      </g>
    </g>
  </g>
</svg>
