<?xml version="1.0" encoding="iso-8859-1"?>
<!-- Generator: Adobe Illustrator 19.0.0, SVG Export Plug-In . SVG Version: 6.00 Build 0)  -->
<svg version="1.1" id="Capa_1" xmlns="http://www.w3.org/2000/svg" xmlns:xlink="http://www.w3.org/1999/xlink" x="0px" y="0px"
	 viewBox="0 0 512.005 512.005" style="enable-background:new 0 0 512.005 512.005;" xml:space="preserve">
<rect x="79.011" y="64.05" style="fill:#FFF2E6;" width="353.99" height="383.906"/>
<rect x="79.011" y="64.05" style="fill:#E8DBD1;" width="353.99" height="53.403"/>
<polyline style="fill:#B07A55;" points="61.074,23.966 0.26,23.966 0.26,69.989 61.074,69.989 450.931,69.989 511.745,69.989 
	511.745,23.966 450.931,23.966 "/>
<polyline style="fill:#966747;" points="61.074,46.98 0.26,46.98 0.26,69.989 61.074,69.989 450.931,69.989 511.745,69.989 
	511.745,46.98 450.931,46.98 "/>
<rect x="61.067" style="fill:#FFE8D0;" width="389.856" height="93.957"/>
<rect x="61.067" y="59.52" style="fill:#E5CCB5;" width="389.856" height="34.445"/>
<polyline style="fill:#B07A55;" points="61.074,442.006 0.26,442.006 0.26,488.029 61.074,488.029 450.931,488.029 511.745,488.029 
	511.745,442.006 450.931,442.006 "/>
<polyline style="fill:#966747;" points="61.074,465.021 0.26,465.021 0.26,488.029 61.074,488.029 450.931,488.029 511.745,488.029 
	511.745,465.021 450.931,465.021 "/>
<rect x="61.067" y="418.04" style="fill:#FFE8D0;" width="389.856" height="93.957"/>
<rect x="61.067" y="477.56" style="fill:#E5CCB5;" width="389.856" height="34.445"/>
<g>
	<path style="fill:#414551;" d="M390.652,144.062H121.353c-4.324,0-7.829-3.505-7.829-7.829c0-4.324,3.505-7.829,7.829-7.829
		h269.299c4.324,0,7.829,3.505,7.829,7.829C398.48,140.557,394.976,144.062,390.652,144.062z"/>
	<path style="fill:#414551;" d="M390.652,239.257H121.353c-4.324,0-7.829-3.505-7.829-7.829c0-4.324,3.505-7.829,7.829-7.829
		h269.299c4.324,0,7.829,3.505,7.829,7.829C398.48,235.752,394.976,239.257,390.652,239.257z"/>
	<path style="fill:#414551;" d="M390.652,382.048H121.353c-4.324,0-7.829-3.505-7.829-7.829s3.505-7.829,7.829-7.829h269.299
		c4.324,0,7.829,3.505,7.829,7.829S394.976,382.048,390.652,382.048z"/>
	<path style="fill:#414551;" d="M390.652,334.451H121.353c-4.324,0-7.829-3.505-7.829-7.829s3.505-7.829,7.829-7.829h269.299
		c4.324,0,7.829,3.505,7.829,7.829S394.976,334.451,390.652,334.451z"/>
	<path style="fill:#414551;" d="M390.652,191.66H121.353c-4.324,0-7.829-3.505-7.829-7.829c0-4.324,3.505-7.829,7.829-7.829h269.299
		c4.324,0,7.829,3.505,7.829,7.829C398.48,188.155,394.976,191.66,390.652,191.66z"/>
	<path style="fill:#414551;" d="M390.652,286.855H121.353c-4.324,0-7.829-3.505-7.829-7.829s3.505-7.829,7.829-7.829h269.299
		c4.324,0,7.829,3.505,7.829,7.829S394.976,286.855,390.652,286.855z"/>
</g>
<g>
</g>
<g>
</g>
<g>
</g>
<g>
</g>
<g>
</g>
<g>
</g>
<g>
</g>
<g>
</g>
<g>
</g>
<g>
</g>
<g>
</g>
<g>
</g>
<g>
</g>
<g>
</g>
<g>
</g>
</svg>
