<?xml version="1.0" encoding="UTF-8" standalone="no"?>
<svg
   xmlns:dc="http://purl.org/dc/elements/1.1/"
   xmlns:cc="http://creativecommons.org/ns#"
   xmlns:rdf="http://www.w3.org/1999/02/22-rdf-syntax-ns#"
   xmlns:svg="http://www.w3.org/2000/svg"
   xmlns="http://www.w3.org/2000/svg"
   xmlns:sodipodi="http://sodipodi.sourceforge.net/DTD/sodipodi-0.dtd"
   xmlns:inkscape="http://www.inkscape.org/namespaces/inkscape"
   height="133"
   width="300"
   version="1.1"
   id="svg2"
   inkscape:version="0.91 r13725"
   sodipodi:docname="The_Simpsons_Logo.svg">
  <metadata
     id="metadata52">
    <rdf:RDF>
      <cc:Work
         rdf:about="">
        <dc:format>image/svg+xml</dc:format>
        <dc:type
           rdf:resource="http://purl.org/dc/dcmitype/StillImage" />
      </cc:Work>
    </rdf:RDF>
  </metadata>
  <defs
     id="defs50" />
  <sodipodi:namedview
     pagecolor="#ffffff"
     bordercolor="#666666"
     borderopacity="1"
     objecttolerance="10"
     gridtolerance="10"
     guidetolerance="10"
     inkscape:pageopacity="0"
     inkscape:pageshadow="2"
     inkscape:window-width="1920"
     inkscape:window-height="980"
     id="namedview48"
     showgrid="false"
     inkscape:zoom="3.5595182"
     inkscape:cx="145.19177"
     inkscape:cy="65.719167"
     inkscape:window-x="0"
     inkscape:window-y="34"
     inkscape:window-maximized="1"
     inkscape:current-layer="g4" />
  <g
     transform="matrix(0.7239155,0,0,0.72377758,-102.33486,-291.93139)"
     id="g4">
    <path
       d="M 177.39062 0 C 175.26784 -0.017234954 173.16199 0.46133219 171.41211 1.3222656 C 168.70828 3.0919018 165.46339 4.0022309 162.92969 5.8652344 C 158.3321 11.382591 154.17101 17.103385 153.28711 23.919922 C 152.08396 18.372891 153.49697 12.130682 152.4082 6.2695312 C 151.73786 5.6615581 151.58362 4.8638218 150.80469 4.2753906 C 149.29894 3.7607848 147.50733 3.209933 145.9082 3.984375 C 144.40535 4.6307084 144.73988 6.8806183 142.77734 7.1875 C 136.91942 12.495685 143.69487 19.346374 141.95312 25.494141 C 136.31889 26.188243 141.37011 20.263708 138.29492 18.488281 C 139.19402 15.774115 138.83899 12.182672 138.33008 9.3867188 C 137.01834 7.8530341 135.06457 5.6782546 132.85156 6.96875 C 131.51521 8.1666019 131.3384 9.8600765 130.25977 11.083984 C 125.73095 10.855994 129.6135 17.491478 125.01953 15.755859 C 122.88832 18.418637 118.67899 16.786147 116.10547 18.667969 C 114.53023 16.908465 116.25081 14.985987 115.55078 12.974609 C 113.24221 7.7445926 109.14964 13.444675 106.25977 13.289062 C 103.90704 14.20826 103.49271 16.883046 103.47461 19.089844 C 99.119534 20.565626 94.147884 17.894937 89.716797 19.789062 C 87.450217 20.264584 86.783103 22.52163 86.234375 24.230469 C 85.056564 26.732568 87.136795 28.558941 88.597656 30.427734 C 90.900431 32.136573 93.679586 32.62676 96.455078 32.978516 C 98.466839 33.7573 101.42902 32.37761 103.11719 33.945312 C 103.31337 38.928521 101.81997 46.085883 105.21875 50.394531 C 107.26743 51.624229 109.78165 51.54048 111.87305 50.146484 C 118.6098 46.446533 114.46077 38.659627 115.75586 32.912109 C 115.87313 32.700043 116.12252 32.558137 116.24414 32.335938 C 118.0228 32.833896 119.6022 31.840203 121.08984 31.318359 C 125.91112 30.058263 121.64473 36.166418 125.19336 37.671875 C 129.51152 39.241025 127.20467 44.966087 128.83203 48.361328 C 130.2871 50.459559 133.19898 51.220961 135.56836 50.751953 C 136.54637 50.263403 137.40078 49.243316 136.97656 48.111328 C 140.2921 45.610677 138.85728 40.678189 138.94922 37.220703 C 139.98514 37.924939 141.59279 36.891285 142.4043 37.927734 C 141.79259 41.881731 142.54351 44.841991 143.37891 48.435547 C 144.47274 50.335463 146.42628 49.907967 148.19336 50.337891 C 149.95392 49.771173 151.81495 49.118498 152.89648 47.919922 C 153.47634 46.669958 154.90861 44.958011 153.38477 43.833984 C 155.84608 39.595543 150.2749 35.059967 154.16016 30.984375 C 154.58148 32.205388 154.61133 33.361353 154.90234 34.630859 C 158.58418 39.16605 163.18476 45.421766 170.01562 45.882812 C 173.51503 46.839646 177.05465 47.089885 180.52148 46.357422 C 182.78227 46.523167 184.24933 44.793907 186.22852 44.402344 C 190.67119 41.850304 197.3172 38.757191 195.95117 32.388672 C 197.17387 31.300834 197.48603 29.864141 197.68945 28.300781 C 196.89532 27.255646 195.57176 25.852564 194.19922 25.609375 C 191.40129 24.467254 189.14015 27.558692 187.83203 29.222656 C 183.81647 29.75608 181.19976 33.393959 177.04883 32.855469 C 177.75465 31.943509 178.89817 32.067593 179.35352 30.960938 C 182.81673 29.676956 185.30196 26.110152 186.54492 22.986328 C 185.87747 17.429888 188.70537 9.1451428 184.4082 4.0859375 C 182.4739 2.7527392 181.31109 1.6784818 179.50781 0.1875 C 178.80923 0.067714811 178.09822 0.0057449845 177.39062 0 z M 173.40625 15.511719 C 174.322 16.17687 176.95857 16.553891 175.65625 18.265625 C 173.10952 17.516515 171.00622 22.717953 169.64453 19.298828 C 171.78515 18.898579 171.2859 15.928615 173.40625 15.511719 z "
       transform="matrix(1.3813767,0,0,1.3816399,141.36299,403.34406)"
       id="path6" />
    <path
       style="fill:#ee3133;fill-opacity:1"
       d="M 176.60547 1.1972656 C 169.49547 1.3806353 166.52743 9.2942216 162.84766 13.849609 C 162.08682 17.906383 157.58932 21.700251 160.64062 25.875 C 161.20457 28.278665 160.94063 31.011888 161.78906 33.335938 C 165.35217 36.18183 166.83185 41.473657 172.55078 40.310547 C 176.35713 42.20033 180.43105 39.955204 184.16211 39.332031 C 188.02927 35.517 195.40283 34.078515 195.81836 28.367188 C 194.92505 27.943054 193.89719 26.986068 192.75195 26.800781 C 190.89945 27.367499 190.56697 29.283553 188.72461 30.621094 C 183.2272 30.595762 180.409 35.899371 174.74219 35.384766 C 172.57334 34.409113 169.44429 34.612235 167.98633 32.173828 C 167.8039 30.986833 166.7382 28.545149 168.70508 27.869141 C 176.41405 29.384731 180.9432 22.472461 184.87695 17.958984 C 185.04635 15.108024 185.59672 12.339721 185.20508 9.40625 C 184.64766 7.7184007 183.71608 5.8793186 183.50977 4.3398438 C 181.7492 4.2833891 180.55197 2.0713324 178.94922 1.4003906 C 178.11968 1.2416119 177.34099 1.1782963 176.60547 1.1972656 z M 176.49023 7.4238281 C 177.61554 7.3704645 178.7012 7.888361 179.58008 9.3417969 C 182.09858 13.531745 177.21525 16.543721 175.98242 20.306641 C 173.08242 20.242948 170.44823 24.041089 167.58008 21.144531 C 166.72151 18.093809 169.88715 15.3749 170.27734 12.136719 C 171.34838 10.416526 174.01456 7.541228 176.49023 7.4238281 z "
       transform="matrix(1.3813767,0,0,1.3816399,141.36299,403.34406)"
       id="path8" />
    <path
       fill="#ee3133"
       d="m349.79,412.57c1.938,9.459-2.705,20.131,3.438,27.732,1.297,2.42-1.57,4.295-2.141,6.316-2.271,5.17,1.156,9.801,0.852,15.076-1.127,2.158-3.412,1.904-5.807,1.695-2.34-1.156-0.695-4.773-1.813-6.699-1.859-3.043,1.891-9.93-4.514-9.691-1.682,1.508-4.504,0.607-6.744,1.057-5.504,5.625,1.563,12.764-3.465,18.66-1.871,0.57-3.305-0.836-4.236-2.154,0.176-5.078-1.031-9.621-2.072-14.217-1.428-1.713-6.297-2.076-4.008-5.756,0.578-3.395,5.623-3.316,5.635-6.895,1.303-7.117,0.039-14.141,0.123-21.162,0.967-1.531,2.344-1.9,4.068-1.787,0.129,4.137,3.604,8.246,0.799,12.27,2.232,3.563,0.273,7.348,1.611,11.215,1.855,3.064,6.439,2.248,9.57,1.684,1.025-0.678,2.094-0.926,2.896-2.08-2.156-7.311-0.264-17.52-1.281-25.863,1.647-2.553,5.987-2.172,7.089,0.599z"
       id="path10" />
    <path
       fill="#ee3133"
       d="m298.71,426.77c-1.311,1.008,0.951,1.941-0.201,2.816,5.291,4.104,11.207-1.352,16.879-2.014,1.934,1.34,1.557,4.313,1.098,6.113-3.982,4.566-9.998,6.957-16.385,7.287-3.035,1.457-2.559,4.822-1.797,7.15,1.215,5.525,0.068,12.588,0.102,18.021-0.611,2.168-2.855,2.24-4.363,3.416-2.947-1.336-3.646-4.914-2.695-7.777,0.264-6.549,0.154-10.822-0.604-17.332-3.662-4.947-11.168-1.242-16.1-3.721-3.252,0.904-5.777-1.131-7.572-3.002-1.076-1.457,0.455-2.787,0.758-4.299,1.506-1.205,3.893-1.779,5.83-1.021,5.678-1.033,13.807,3.303,17.201-2.9,0.615-2.438-1.766-6.641,2.35-7.121,1.564-0.561,3.361-2.863,4.939-1.508-0.424,2.341,1.021,3.25,0.56,5.892z"
       id="path14" />
    <path
       d="M 51.921875 31.679688 C 37.932208 33.476102 27.179312 40.393827 15.470703 46.9375 C 13.061512 49.913673 9.4926645 50.940201 7.8710938 54.580078 C 3.4653439 57.593888 2.1362242 62.6342 0.55664062 67.083984 C -2.8638601 80.37616 10.196467 88.077981 19.582031 94.259766 C 23.618584 98.319434 29.559485 100.22934 33.4375 104.14062 C 39.080421 107.04297 45.166583 108.59565 50.554688 112.10742 C 50.308555 112.34627 49.942318 112.7171 49.6875 112.94727 C 45.338216 113.34607 39.799564 112.96055 34.896484 112.86719 C 29.714697 114.61583 24.2563 113.248 19.556641 111.36328 C 16.299021 110.69596 12.694728 111.87958 10.650391 114.08203 C 7.3674334 113.94886 5.1919384 116.17192 3.8867188 118.19922 C 3.0831724 120.51096 4.1999459 122.98814 4.78125 125.08203 C 5.7484011 127.21066 8.1582927 128.29688 10.285156 128.80859 C 20.526389 133.45597 31.412122 130.32609 42.632812 132.32227 C 46.934319 133.59684 51.415314 132.98106 55.490234 131.25195 C 60.785676 129.06397 68.112689 126.43492 68.228516 119.67773 C 71.615716 118.84105 69.927571 110.21967 73.861328 114.99805 C 76.117049 115.58937 78.698858 117.05517 81.140625 115.52148 C 82.314816 113.96826 84.559138 113.0588 83.628906 110.9707 C 86.562936 110.01966 86.208804 106.96803 87.917969 105.12891 C 89.499724 107.06863 90.685276 109.65842 92.615234 111.23047 C 95.033112 111.26159 96.572428 113.22202 99.578125 112.41211 C 101.63694 111.04996 103.09957 109.10411 103.3457 106.84375 C 106.19286 105.42587 104.6815 101.57381 107.01758 99.822266 C 107.47582 102.04643 110.37227 102.30654 111.90625 103.66797 C 117.44638 103.3828 118.07621 97.675778 120.36523 94.261719 C 120.52812 99.708145 116.6891 106.82632 120.98047 111.68359 C 122.93721 113.501 125.21734 114.45833 128.19336 113.93359 C 128.66318 113.09474 130.69833 113.70028 130.04102 112.17383 C 132.62539 110.67706 131.0032 107.76409 132.14844 105.81641 C 133.69617 102.81707 132.31407 98.940836 134.19336 96.03125 C 141.87772 96.555265 136.13836 104.39278 139.78906 107.84375 C 140.94733 109.53739 143.51789 110.44115 146.12109 109.84766 C 151.7213 108.48116 150.57503 102.24204 151.72461 98.039062 C 155.37532 98.479119 158.68174 96.867759 162.16016 96.486328 C 163.65794 95.950733 164.74262 94.489296 166.60742 94.880859 C 170.07425 92.7848 169.01163 88.542289 169.91797 85.173828 C 171.50045 87.379178 173.21226 90.145294 176.50391 90.863281 C 177.30239 91.94171 177.58903 93.47155 177.125 94.298828 C 175.30073 94.974836 173.26372 95.387369 171.54297 96.177734 C 171.20635 96.53528 170.71713 96.904257 170.95312 97.371094 C 168.22614 97.952287 165.81191 99.807576 165.13867 102.44141 C 165.34788 104.58306 164.7169 107.70089 167.11523 109.12891 C 172.60541 111.45875 179.28211 112.51753 184.96484 109.71289 C 188.36146 106.9705 195.60972 105.99744 194.26758 99.998047 C 196.23446 102.81282 196.59869 105.88404 199.69922 107.99023 C 202.9467 111.81974 207.56867 111.17299 212.04102 110.20312 C 213.4056 109.67261 213.74217 108.82105 215.23633 108.6582 C 218.79365 106.02727 219.78689 102.33369 222.82227 99.835938 C 224.04134 98.505634 223.84487 96.513725 225.0625 95.496094 C 226.45097 99.614388 222.92523 102.57567 223.95898 106.9082 C 224.27172 108.58881 225.66531 109.59929 227.30859 109.91992 C 229.30732 109.35755 232.05723 108.77214 232.33594 106.39453 C 235.28517 104.84203 236.43287 102.07789 238.49023 100.13672 C 240.49331 102.80529 241.72659 105.72037 244.42969 107.63477 C 249.22128 108.04732 250.00443 103.04571 253.60156 100.82227 C 256.55659 97.385766 255.98522 91.440755 255.43359 86.705078 C 255.69058 86.482155 255.79431 86.344385 256.0332 86.111328 C 257.39778 92.479123 267.04944 92.480095 266.41602 98.949219 C 265.7616 101.33696 263.01229 101.79885 261.16992 102.80273 C 259.32756 103.69588 255.90482 103.19316 255.7832 106.07812 C 253.25384 105.6569 251.52714 107.62125 250.24219 109.45312 C 250.32399 111.43483 251.13809 113.20372 252.21094 114.74609 C 255.3093 117.59271 259.7982 117.65989 264.04688 116.96289 C 271.72907 114.03593 280.3854 111.14064 282.45508 102.29102 C 281.90635 100.53658 282.95472 98.717529 284.02539 97.123047 C 284.57991 94.599234 285.5878 91.632582 282.87891 89.814453 C 283.35959 85.737414 278.38725 86.306542 276.39648 83.722656 C 273.95037 81.963153 270.58987 79.558996 270.36328 76.853516 C 272.06231 74.996302 274.58824 75.02247 276.6543 73.755859 C 278.03263 73.597352 277.83831 75.04274 277.85352 75.984375 C 278.06562 78.20782 280.36353 78.963466 282.27539 79.890625 C 285.42153 81.062421 286.70338 77.702654 288.80273 76.191406 C 287.98978 74.440588 290.17958 73.54371 288.2793 72.195312 C 291.68821 69.932061 289.99869 64.743172 290.19922 60.716797 C 288.28736 58.986968 285.95274 56.593802 283.15625 55.841797 C 273.09744 54.19086 264.59796 58.990608 259.20117 66.074219 C 257.8127 68.816612 256.00697 71.419652 255 74.279297 C 252.58212 70.444723 250.80055 65.645618 246.70898 63.40625 C 245.32051 63.103711 244.49045 63.975936 243.51172 64.720703 C 242.22387 67.696153 240.4359 70.162362 238.38867 72.861328 C 237.1334 76.082862 240.71042 77.723022 242.28711 80.083984 C 242.68454 81.220315 243.00487 83.002742 242.08984 84.070312 C 240.66156 83.310347 239.25514 82.33606 237.49023 82.244141 C 235.58706 78.505106 231.96596 81.736131 229.08984 81.699219 C 226.17464 82.043013 224.182 85.172104 223.50586 87.255859 C 222.55681 85.392856 222.83462 82.956385 221.28906 81.369141 C 218.92186 78.4031 214.90108 78.139015 211.71875 76.59375 C 210.64736 74.745946 207.52528 75.544547 206.01953 75.042969 C 198.2454 75.412095 196.87753 83.174623 193.45703 88.044922 C 191.64145 86.092894 189.7926 84.10146 187.84961 82.314453 C 187.1894 80.89223 186.72971 79.253895 185.31445 78.353516 C 185.24785 75.994001 188.67287 76.911645 189.77539 76.177734 C 193.22123 75.008834 197.50628 75.912637 200.45117 73.769531 C 200.7849 72.712092 201.12365 70.940697 199.82422 70.125 C 198.7854 69.107369 200.13979 68.201469 200.58789 67.265625 C 200.11155 64.425522 199.13945 61.361805 196.42188 59.705078 C 191.51879 58.414583 187.35666 61.924113 183.01172 63.378906 C 181.35612 64.701972 179.45694 65.280237 177.33008 65.542969 C 173.14512 67.261941 169.50677 70.334376 168.66992 74.884766 C 166.49383 70.579013 163.54631 65.685526 158.3457 63.619141 C 153.65184 62.447345 148.99245 64.748707 144.92188 66.705078 C 138.25533 69.88029 138.14283 77.271144 138.87109 83.416016 C 139.63772 86.484833 134.70575 85.670705 133.01758 87.535156 C 130.87551 83.809873 132.84478 79.33465 131.93555 75.097656 C 130.8837 73.240443 128.79017 71.301974 126.41211 71.238281 C 123.94211 68.270793 122.34498 73.291633 120.70312 73.220703 C 120.55689 72.864605 119.93429 72.42239 119.18359 72.669922 C 116.95538 73.843165 115.41996 76.015101 114.88281 78.546875 C 112.942 76.834417 113.83817 73.463309 111.11914 71.78125 C 108.57096 70.560961 106.30568 69.557168 103.21094 70.439453 C 101.34179 71.499787 100.9628 74.612188 98.150391 73.048828 C 96.411546 73.260895 94.919124 74.121379 93.75 75.576172 C 89.864022 82.816843 90.194118 91.623885 87.703125 99.441406 C 87.323793 99.547802 87.051912 99.102426 86.794922 98.847656 C 89.028925 94.512229 88.351982 89.44077 87.785156 84.808594 C 89.537032 80.820579 86.664098 77.284276 86.126953 73.490234 C 85.039632 71.099597 82.382526 70.063339 79.740234 70.378906 C 78.473382 70.039455 77.960999 72.921836 76.802734 71.283203 C 75.302781 71.840512 73.933266 72.615127 72.617188 73.730469 C 70.960144 76.704471 70.592018 80.910767 71.857422 84.273438 C 71.649658 92.251637 72.342527 98.517819 69.890625 105.71289 C 66.521522 103.03274 63.130178 100.24719 59.457031 98.376953 C 51.217425 95.594028 44.562208 88.933555 36.455078 86.109375 C 36.460869 85.888623 36.447635 85.749554 36.4375 85.507812 C 30.094552 83.618754 25.626124 78.050711 20.589844 74.099609 C 21.491842 70.948282 16.094451 71.376015 18.273438 68.476562 C 18.760633 61.692596 25.788888 57.533741 31.986328 55.371094 C 34.971032 55.667843 36.900285 53.697384 39.779297 53.482422 C 45.425114 50.164625 52.327636 50.313521 58.851562 50.5625 C 61.148547 51.898593 59.668739 55.504626 61.853516 57.220703 C 64.712258 59.998561 70.080096 58.850924 73.28125 57.775391 C 75.369746 56.877183 74.009272 54.677651 74.382812 53.117188 C 77.173508 50.773596 76.020965 46.655515 76.039062 43.650391 C 75.415771 40.402077 72.545866 36.814122 69.21875 35.96875 C 64.562526 31.614504 57.938337 32.195016 51.921875 31.679688 z M 154.23828 75.158203 C 155.35239 77.505414 157.29827 79.559862 157.16797 82.384766 C 155.6463 82.350748 150.4504 84.428131 152.56641 80.679688 C 153.6378 78.977363 152.81868 76.642671 154.23828 75.158203 z M 209.75977 88.900391 C 212.69597 90.251683 210.23463 94.460259 213.89258 95.037109 C 214.1626 95.745688 213.68658 96.370087 213.06836 96.490234 C 211.40408 96.429437 209.6663 96.843763 208.29883 96.292969 C 207.42941 93.714149 207.8508 90.869789 209.75977 88.900391 z "
       id="path18"
       transform="matrix(1.3813767,0,0,1.3816399,141.36299,403.34406)" />
    <path
       fill="#ee3133"
       d="m229.84,451.63c5.191,3.756,14.756,5.385,14.539,13.744-0.063,3.16,1.469,7.832-2.475,9.135-7.697,1.582-0.234-8.068-8.238-8.445-14.832-7.529-33.1-0.82-47.313,3.994-4.102,5.492-13.057,2.398-16.242,9.725-6.379,1.146-7.217,7.787-8.209,12.73,1.207,4.189,1.219,9.645,5.463,11.658,1.588,5.857,8.813,9.014,12.393,13.785,3.18,1.523,6.596,4.396,10.275,5.568,14.535,8.854,31.045,15.5,44.932,25.975-0.131,1.85,2.268,1.398,2.695,3.061,1.49,7.326-0.922,13.467-6.803,18.219-5.086,3-10.855,1.221-15.221,5.357-4.621,1.607-10.563-0.992-15.367,1.377-6.762,0.014-12.354-2.406-19.109-2.193-7.154-1.385-15.289-2.105-21.84-5.953-2.178-1.736-1.395-5.395-1.189-7.832,2.197-2.193,6.869-2.352,10.336-1.82,5.064,1.619,10.164,2.918,15.902,2.545,9.607-2.453,19.42,2.127,28.09-2.135,3.148-0.109,6.656,1.414,9.201,0.029,2.617,0.729,3.943-1.465,6.146-1.361,2.238-1.707-0.461-3.285-1.336-4.705-6.99-1.084-7.313-10.453-15.184-8.523-9.457-6.697-20.164-10.105-29.676-15.832-2.846-2.029-3.885-6.422-8.557-5.602-4.039-2.008-5.924-6.697-10.281-8.008-1.502-2.938-6.748-3.211-6.496-6.861-3.057-2.652-2.68-6.764-5.381-9.648-2.846-6.803,2.35-11.848,2.639-18.135,2.783-4.346,8.104-5.873,9.963-10.984,17.109-10.889,34.926-21.559,57.121-20.852,2.843,1.38,6.109,1.273,9.222,1.987z"
       id="path20" />
    <path
       fill="#ee3133"
       d="m534.74,484.09c8.674,1.775,3.961,9.988,5.555,15.016-1.301,2.35-4.441,1.988-6.533,1.541-1.713-3.201,1.139-6.58-2.918-8.539-5.682,0.631-11.148,2.473-14.627,7.209-3.709,2.926-1.992,7.74-4.625,11.143,3.908,6.732,10.926,9.904,17.15,14.635,1.033,4.074,5.65,7.527,2.9,12.195-3.889,8.016-11.73,11.846-18.816,16.422-5.561-0.52-10.705,5.123-15.41,0.535-3.537-7.781,6.594-5.336,9.537-9.045,5.342-1.479,11.152-3.35,13.947-8.369,0.834-3.771-2.486-5.961-5.35-7.678-5.232-1.135-5.814-7.334-11.574-8.305-2.039-5.35-3.646-11.34-0.896-16.861,2.115-8.729,10.684-15.783,18.855-19.152,1.67-2.855,5.291-2.16,8.268-1.809,1.117,1.493,3.277,0.066,4.537,1.062z"
       id="path22" />
    <path
       fill="#ee3133"
       d="m414.44,491.01c1.623,1.223,0.674,3.602,1.096,5.389-5.426,3.604-14.148,1.428-18.102,7.355-4.814,0.813-0.686,5.229-3,7.953,3.311,6.404,9.381,10.641,13.043,16.916,1.381,3.918,0.322,7.896-0.426,12.152-5.605,6.924-15.992,7.432-24.658,6.791-3.211-2.014-2.838-6.17-2.436-9.428,4.91-3.818,12.826-1.121,17.264-5.676-1.164-4.309-4.273-9.088-9.008-10.695-3.844-6.426-7.967-14.66-2.521-21.572,6.008-4.973,12.166-8.916,19.152-12.166,3.621,0.056,8.242-0.927,9.596,2.981z"
       id="path24" />
    <path
       style="fill:#ee3133;fill-opacity:1"
       d="M 154.29102 64.855469 C 152.06259 64.753918 151.56328 66.962511 149.44922 67.357422 C 145.50677 72.381162 144.23504 78.455875 144.3125 84.900391 C 142.86467 86.024417 140.86807 86.176035 138.99023 86.503906 C 136.16841 87.763279 139.72082 89.663792 138.29688 91.603516 C 139.33063 92.546598 140.59728 92.233922 141.97852 92.400391 C 143.89038 93.418022 143.33338 95.573359 143.86328 97.136719 C 144.433 98.862928 144.16437 101.13037 145.60352 102.54102 C 153.64477 103.44139 147.42493 94.485319 150.92578 90.925781 C 155.98378 91.704566 160.52765 89.772042 165.29102 89.021484 C 166.23645 86.821924 169.65256 85.179686 167.69727 82.419922 C 169.19722 78.783663 165.9194 75.703266 165.54297 72.158203 C 162.90068 68.57478 159.88994 64.619634 154.76172 64.90625 C 154.5968 64.877706 154.43958 64.862239 154.29102 64.855469 z M 155.625 71.080078 C 160.60481 70.777539 159.4442 76.621077 162.79883 78.888672 C 163.82824 79.949006 163.46523 80.75092 163.14453 81.972656 C 162.33881 83.86244 159.79836 83.236017 158.17969 83.802734 C 155.70679 83.869322 153.25903 85.277653 150.93164 84.056641 C 149.84432 81.46986 152.76181 79.24896 151.56445 76.667969 C 153.12521 74.934521 152.87123 71.750296 155.625 71.080078 z "
       transform="matrix(1.3813767,0,0,1.3816399,141.36299,403.34406)"
       id="path26" />
    <path
       fill="#ee3133"
       d="m491.07,507.24c-0.648,10.684,4.924,26.85-7.832,32.85-5.17,1.23-8.447-3.914-11.492-6.611-2.176,2.236-2.184,5.76-4.387,8.336-1.967,2.355-4.09,6.016-8.088,5.369,0.23-3.482,0.055-6.885,1.68-9.92-1.332-4.221,0.209-8.355,1.33-12.162-1.414-1.117-0.982-3.549-0.557-5.068,1.16-1.205,1.432-3.668,3.547-3.248,1.67,3.252,5.379,1.633,7.539,3.691,3.193,2.01,3.955,8.381,9.473,7.543,3.4-2.406-0.063-7.09,2.6-9.611-1.088-5.057-1.428-10.256-5.496-13.914,0.604-0.652,0.23-1.621,0.406-2.471-1.574-1.271-2.994-1.729-1.863-3.855,1.498-1.418,0.578-3.992,3.102-4.893,5.944,2.611,7.069,9.109,10.038,13.964z"
       id="path28" />
    <path
       fill="#ee3133"
       d="m258.31,506.24c0.025,5.4,4.713,10.348,1.469,15.707,2.713,4.273-0.883,8.916,0.479,13.266-3.463,5.701,2.691,12.662-2.668,18.301-2.373,1.223-4.471,0.963-7.066,0.516-2.189-3.018-0.803-7.488-1.971-10.852,1.477-7.936,3.123-14.709,1.98-22.928,3.787-5.135-2.76-12.336,1.439-17.352,3.424-1.344,5.25,1.383,6.338,3.342z"
       id="path30" />
    <path
       fill="#ee3133"
       d="m295.37,506.45c1.418,5.65,4.365,10.713,5.99,16.33,0.686,0.307,1.076,1.629,2.088,1.051,2.701-2.211,2.061-5.605,2.65-8.732,3.303-3.604,3.998-8.377,7.473-12.105,3.002,0.41001,6.359,1.828,7.609,4.537,0.822,7.023-0.883,13.127,2.324,19.582,1.102,7.322-1.303,13.158-1.348,20.885-1.516,1.35-3.482,4.48-6.141,3.463-1.578-1.725-2.219-4.342-1.42-6.639,2.361-6.318,1.633-12.676,1.391-19.4-1.068-0.619-1.076-2.092-2.512-2.197-3.613,0.604-4.363,4.547-6.506,6.861-2.193,2.412-2.871,6.723-7.582,5.744-5.277-1.973-3.098-9.064-7.883-11.521,0.098-2.131,1.039-5.453-1.104-7.041-3.777,1.441-2.932,5.832-3.475,9.143-3.537,3.27,2.297,6.979-1.193,10.369,0.832,3.764-0.172,9.365-3.723,11.961-2.971-0.75-5.551-1.143-6.932-4.207-0.314-8.805,2.549-16.678,2.939-25.18,2.004-2.186-0.156-4.451,0.957-6.754,2.467-3.377,3.133-8.535,7.623-10.158,3.445-0.232,6.923,0.95101,8.775,4.008z"
       id="path32" />
    <path
       style="fill:#ee3133;fill-opacity:1"
       d="M 208.50977 76.986328 C 208.29186 76.973489 208.06988 76.973082 207.84375 76.988281 C 200.30055 79.617765 206.33832 87.489158 200.18359 90.894531 C 199.45244 95.097508 200.47883 99.227543 203.37305 102.17188 C 205.7598 105.53815 210.53489 103.9268 214.60547 104.17578 C 216.91983 102.77455 218.63214 101.91207 220.71484 100.15039 C 223.75746 97.087365 223.25566 91.523126 221.76367 87.878906 C 221.49076 84.460505 219.82 82.277823 217.2168 80.089844 C 214.17228 80.31512 211.77832 77.178912 208.50977 76.986328 z M 212.73633 85.59375 C 214.21076 85.711183 215.5831 86.379846 216.39062 87.828125 C 217.05664 89.235872 217.76106 90.981785 217.18555 92.666016 C 214.59393 93.593175 216.73268 97.332236 213.74219 97.880859 C 211.21427 97.268544 206.6608 99.796058 206.17578 96.150391 C 205.64298 92.608947 207.33466 89.693072 208.47266 86.664062 C 209.6863 85.909163 211.26189 85.476317 212.73633 85.59375 z "
       transform="matrix(1.3813767,0,0,1.3816399,141.36299,403.34406)"
       id="path38" />
    <path
       fill="#ee3133"
       d="m539.57,554.06h-2.584v-1.816h7.352v1.816h-2.613v7.748h-2.154v-7.748z"
       id="path44" />
    <path
       fill="#ee3133"
       d="m553.52,558.14c-0.045-1.148-0.088-2.525-0.088-3.93h-0.029c-0.309,1.219-0.707,2.582-1.078,3.703l-1.162,3.732h-1.688l-1.023-3.689c-0.314-1.135-0.625-2.482-0.867-3.746h-0.029c-0.037,1.289-0.096,2.766-0.154,3.959l-0.186,3.633h-2l0.611-9.564h2.879l0.936,3.207c0.314,1.092,0.6,2.283,0.811,3.406h0.059c0.252-1.107,0.58-2.355,0.906-3.436l1.012-3.178h2.836l0.51,9.564h-2.1l-0.156-3.661z"
       id="path46" />
  </g>
</svg>
