<svg xmlns="http://www.w3.org/2000/svg" viewBox="0 0 512 512"><path d="M267.636 418.909v-23.273h-93.091v23.273c0 12.8-10.473 23.273-23.273 23.273H128c-6.982 0-11.636 4.655-11.636 11.636 0 6.982 4.655 11.636 11.636 11.636h186.182c6.982 0 11.636-4.655 11.636-11.636 0-6.982-4.655-11.636-11.636-11.636h-23.273c-12.8 0-23.273-10.473-23.273-23.273z" fill="#d5e3ef"/><path d="M174.545 395.636v11.636h58.182c6.982 0 11.636 4.655 11.636 11.636 0 6.982 4.655 11.636 11.636 11.636h5.818c3.491 0 5.818-2.327 5.818-5.818v-29.091h-93.09zm139.637 69.819H128c-6.982 0-11.636-4.655-11.636-11.636h209.455c-.001 6.981-4.655 11.636-11.637 11.636z" fill="#b0c4d9"/><path d="M442.182 395.636H23.273C10.473 395.636 0 385.164 0 372.364V69.818c0-12.8 10.473-23.273 23.273-23.273h418.909c12.8 0 23.273 10.473 23.273 23.273v302.545c0 12.801-10.473 23.273-23.273 23.273z" fill="#d5e3ef"/><g fill="#595a66"><path d="M465.455 325.818H0v-256c0-12.8 10.473-23.273 23.273-23.273h418.909c12.8 0 23.273 10.473 23.273 23.273v256z"/><circle cx="221.091" cy="360.727" r="11.636"/></g><path fill="#70b7e5" d="M23.273 69.818h418.909v232.727H23.273z"/><path d="M418.909 290.909h-93.091l104.727-104.727v93.091c0 6.982-4.654 11.636-11.636 11.636zm-128 0l139.636-139.636v-34.909L256 290.909z" fill="#90cef1"/><path d="M86.109 58.182c-10.473 0-44.218-4.655-51.2-11.636h256c-6.982 6.982-17.455 11.636-27.927 11.636H86.109z" fill="#6f707e"/><g fill="#1470b8"><circle cx="197.818" cy="244.364" r="11.636"/><circle cx="267.636" cy="244.364" r="11.636"/><path d="M300.218 155.927c-2.327-3.491-5.818-4.655-9.309-4.655h-81.455c0-19.782-15.127-34.909-34.909-34.909-6.982 0-11.636 4.655-11.636 11.636 0 6.982 4.655 11.636 11.636 11.636 6.982 0 11.636 4.655 11.636 11.636v58.181c0 6.982 4.655 11.636 11.636 11.636h81.455c5.818 0 10.473-3.491 11.636-9.309l11.636-46.545c.001-3.489.001-6.979-2.326-9.307zm-131.491 53.528h-34.909c-3.491 0-5.818-2.327-5.818-5.818s2.327-5.818 5.818-5.818h34.909c3.491 0 5.818 2.327 5.818 5.818s-2.327 5.818-5.818 5.818zm-11.636-23.273h-46.545c-3.491 0-5.818-2.327-5.818-5.818 0-3.491 2.327-5.818 5.818-5.818h46.545c3.491 0 5.818 2.327 5.818 5.818 0 3.491-2.327 5.818-5.818 5.818zm-11.636-23.273H87.273c-3.491 0-5.818-2.327-5.818-5.818s2.327-5.818 5.818-5.818h58.182c3.491 0 5.818 2.327 5.818 5.818s-2.328 5.818-5.818 5.818z"/></g><circle cx="430.545" cy="290.909" r="81.455" fill="#f6b545"/><path d="M430.545 209.455c-45.382 0-81.455 36.073-81.455 81.455s36.073 81.455 81.455 81.455S512 336.291 512 290.909s-36.073-81.454-81.455-81.454zm0 139.636c-32.582 0-58.182-25.6-58.182-58.182s25.6-58.182 58.182-58.182 58.182 25.6 58.182 58.182-25.6 58.182-58.182 58.182z" fill="#ffcb5b"/><path d="M430.545 371.2C475.927 372.364 512 335.127 512 290.909h-1.164c-5.818 0-10.473 4.655-11.636 10.473-2.327 16.291-10.473 31.418-22.109 41.891-9.309 9.309-22.109 15.127-36.073 17.455a10.428 10.428 0 0 0-10.473 10.472z" fill="#f6b545"/><path d="M430.545 210.618c-45.382-1.164-81.455 36.073-81.455 80.291h1.164c5.818 0 10.473-4.655 11.636-10.473 2.327-16.291 10.473-31.418 22.109-41.891 9.309-9.309 22.109-15.127 36.073-17.455a10.428 10.428 0 0 0 10.473-10.472z" fill="#ffe27a"/><path d="M380.509 299.055c0-32.582 25.6-58.182 58.182-58.182 13.964 0 26.764 4.655 37.236 13.964-11.636-13.964-26.764-22.109-45.382-22.109-32.582 0-58.182 25.6-58.182 58.182 0 18.618 8.145 33.745 20.945 44.218-8.144-9.31-12.799-22.11-12.799-36.073z" fill="#f19920"/><path d="M465.455 326.982c-1.164 0-2.327 0-3.491-1.164-2.327-2.327-2.327-5.818 0-8.145 6.982-6.982 10.473-17.455 10.473-26.764 0-3.491 2.327-5.818 5.818-5.818s5.818 2.327 5.818 5.818c0 12.8-4.655 25.6-12.8 34.909-2.328 1.164-4.655 1.164-5.818 1.164z" fill="#ffcb5b"/><g fill="#f19920"><path d="M430.545 325.818c-6.982 0-11.636-4.655-11.636-11.636v-46.545c0-6.982 4.655-11.636 11.636-11.636s11.636 4.655 11.636 11.636v46.545c.001 6.982-4.654 11.636-11.636 11.636z"/><path d="M473.6 359.564c-8.145-29.091-29.091-52.364-55.855-62.836-4.655-26.764-22.109-50.036-44.218-64-13.964 15.127-23.273 34.909-23.273 57.018 0 45.382 36.073 81.455 81.455 81.455 15.127 1.163 29.091-3.492 41.891-11.637z"/></g><path d="M393.309 335.127c-8.145-10.473-13.964-23.273-13.964-37.236A56.333 56.333 0 0 1 397.963 256c-2.327-3.491-4.655-5.818-6.982-8.145-11.636 10.473-18.618 25.6-18.618 43.055.001 18.617 8.146 33.745 20.946 44.217zm25.6-37.236v16.291c0 6.982 4.655 11.636 11.636 11.636s11.636-4.655 11.636-11.636v-2.327c-6.981-5.819-15.126-10.473-23.272-13.964z" fill="#e78825"/><path d="M473.6 359.564c-2.327-8.145-4.655-15.127-9.309-22.109-9.309 6.982-20.945 11.636-33.745 11.636-32.582 0-58.182-25.6-58.182-58.182 0-17.455 6.982-32.582 18.618-43.055-5.818-5.818-11.636-10.473-18.618-13.964-13.964 15.127-23.273 34.909-23.273 57.018 0 45.382 36.073 81.455 81.455 81.455 16.29.001 30.254-4.654 43.054-12.799z" fill="#f6b545"/><path d="M470.109 349.091c-8.145 5.818-18.618 9.309-29.091 11.636-5.818 1.164-10.473 5.818-10.473 11.636 16.291 0 30.255-4.655 43.055-12.8l-3.491-10.472z" fill="#f19920"/><path d="M372.364 233.891c-13.964 15.127-23.273 34.909-23.273 57.018h1.164c5.818 0 10.473-4.655 11.636-10.473 2.327-16.291 10.473-30.255 20.945-40.727-3.491-1.164-6.981-3.491-10.472-5.818z" fill="#ffcb5b"/><circle cx="325.818" cy="314.182" r="81.455" fill="#f6b545"/><path d="M314.182 372.364c0 8.145 1.164 15.127 3.491 23.273h8.145c45.382 0 81.455-36.073 81.455-81.455 0-8.145-1.164-15.127-3.491-23.273h-8.145c-45.382 0-81.455 36.073-81.455 81.455z" fill="#f19920"/><path d="M325.818 232.727c-45.382 0-81.455 36.073-81.455 81.455s36.073 81.455 81.455 81.455 81.455-36.073 81.455-81.455-36.073-81.455-81.455-81.455zm0 139.637c-32.582 0-58.182-25.6-58.182-58.182S293.236 256 325.818 256 384 281.6 384 314.182s-25.6 58.182-58.182 58.182z" fill="#ffcb5b"/><path d="M325.818 394.473c45.382 1.164 81.455-36.073 81.455-80.291h-1.164c-5.818 0-10.473 4.655-11.636 10.473-2.327 16.291-10.473 31.418-22.109 41.891-9.309 9.309-22.109 15.127-36.073 17.454a10.43 10.43 0 0 0-10.473 10.473z" fill="#f6b545"/><path d="M325.818 233.891c-45.382-1.164-81.455 36.073-81.455 80.291h1.164c5.818 0 10.473-4.655 11.636-10.473 2.327-16.291 10.473-31.418 22.109-41.891 9.309-9.309 22.109-15.127 36.073-17.455a10.428 10.428 0 0 0 10.473-10.472z" fill="#ffe27a"/><path d="M275.782 322.327c0-32.582 25.6-58.182 58.182-58.182 13.964 0 26.764 4.655 37.236 13.964C359.564 264.145 344.436 256 325.818 256c-32.582 0-58.182 25.6-58.182 58.182 0 18.618 8.145 33.745 20.945 44.218-8.145-9.309-12.799-22.109-12.799-36.073z" fill="#f19920"/><path d="M360.727 350.255c-1.164 0-2.327 0-3.491-1.164-2.327-2.327-2.327-5.818 0-8.145 6.982-6.982 10.473-17.455 10.473-26.764 0-3.491 2.327-5.818 5.818-5.818s5.818 2.327 5.818 5.818c0 12.8-4.655 25.6-12.8 34.909-2.327 1.164-4.654 1.164-5.818 1.164z" fill="#ffcb5b"/><path d="M325.818 349.091c-6.982 0-11.636-4.655-11.636-11.636V290.91c0-6.982 4.655-11.636 11.636-11.636 6.982 0 11.636 4.655 11.636 11.636v46.545c.001 6.981-4.654 11.636-11.636 11.636z" fill="#f19920"/><g fill="#f6b545"><path d="M379.345 292.073c2.327 6.982 4.655 13.964 4.655 22.109 0 32.582-25.6 58.182-58.182 58.182-3.491 0-8.145 0-11.636-1.164v1.164c0 8.145 1.164 15.127 3.491 23.273h8.145c45.382 0 81.455-36.073 81.455-81.455 0-8.145-1.164-15.127-3.491-23.273h-8.145c-5.819 0-10.473 0-16.292 1.164z"/><circle cx="384" cy="384" r="81.455"/></g><path d="M384 302.545c-45.382 0-81.455 36.073-81.455 81.455s36.073 81.455 81.455 81.455 81.455-36.073 81.455-81.455-36.073-81.455-81.455-81.455zm0 139.637c-32.582 0-58.182-25.6-58.182-58.182s25.6-58.182 58.182-58.182 58.182 25.6 58.182 58.182-25.6 58.182-58.182 58.182z" fill="#ffcb5b"/><path d="M384 464.291c45.382 1.164 81.455-36.073 81.455-80.291h-1.164c-5.818 0-10.473 4.655-11.636 10.473-2.327 16.291-10.473 31.418-22.109 41.891-9.309 9.309-22.109 15.127-36.073 17.455A10.428 10.428 0 0 0 384 464.291z" fill="#f6b545"/><path d="M384 303.709c-45.382-1.164-81.455 36.073-81.455 80.291h1.164c5.818 0 10.473-4.655 11.636-10.473 2.327-16.291 10.473-31.418 22.109-41.891 9.309-9.309 22.109-15.127 36.073-17.455A10.428 10.428 0 0 0 384 303.709z" fill="#ffe27a"/><path d="M333.964 392.145c0-32.582 25.6-58.182 58.182-58.182 13.964 0 26.764 4.655 37.236 13.964-11.636-13.964-26.764-22.109-45.382-22.109-32.582 0-58.182 25.6-58.182 58.182 0 18.618 8.145 33.745 20.945 44.218-8.145-9.309-12.799-22.109-12.799-36.073z" fill="#f19920"/><path d="M418.909 420.073c-1.164 0-2.327 0-3.491-1.164-2.327-2.327-2.327-5.818 0-8.145 6.982-6.982 10.473-17.455 10.473-26.764 0-3.491 2.327-5.818 5.818-5.818s5.818 2.327 5.818 5.818c0 12.8-4.655 25.6-12.8 34.909-2.327 1.164-4.654 1.164-5.818 1.164z" fill="#ffcb5b"/><path d="M384 418.909c-6.982 0-11.636-4.655-11.636-11.636v-46.545c0-6.982 4.655-11.636 11.636-11.636 6.982 0 11.636 4.655 11.636 11.636v46.545c0 6.982-4.654 11.636-11.636 11.636z" fill="#f19920"/></svg>