<svg xmlns="http://www.w3.org/2000/svg" viewBox="0 0 512 512"><path d="M494.345 39.724H17.655C7.904 39.724 0 47.628 0 57.379v282.483h512V57.379c0-9.751-7.904-17.655-17.655-17.655zm-8.828 273.655H26.483V66.207h459.034v247.172z" fill="#464655"/><g fill="#fff"><path d="M203.033 176.552a4.411 4.411 0 0 1 4.414 4.414h13.241v-13.241h-17.655a4.411 4.411 0 0 1-4.414-4.414 4.411 4.411 0 0 1 4.414-4.414h17.655v-57.379H141.24v79.448h57.379a4.412 4.412 0 0 1 4.414-4.414z"/><path d="M26.483 313.379h459.034V66.207H26.483v247.172zm194.206-22.069h-17.655c-2.44 0-4.414-1.974-4.414-4.414s1.974-4.414 4.414-4.414h17.655c2.44 0 4.414 1.974 4.414 4.414s-1.975 4.414-4.414 4.414zm-17.656-44.138a4.411 4.411 0 0 1 4.414 4.414v17.655c0 2.44-1.974 4.414-4.414 4.414s-4.414-1.974-4.414-4.414v-17.655a4.412 4.412 0 0 1 4.414-4.414zm-4.413-13.241v-17.655c0-2.44 1.974-4.414 4.414-4.414s4.414 1.974 4.414 4.414v17.655c0 2.44-1.974 4.414-4.414 4.414s-4.414-1.974-4.414-4.414zm57.379 57.379h-17.655c-2.44 0-4.414-1.974-4.414-4.414s1.974-4.414 4.414-4.414h17.655c2.44 0 4.414 1.974 4.414 4.414s-1.974 4.414-4.414 4.414zm75.034-22.069c0 2.44-1.974 4.414-4.414 4.414s-4.414-1.974-4.414-4.414v-17.655c0-2.44 1.974-4.414 4.414-4.414s4.414 1.974 4.414 4.414v17.655zm0-35.31c0 2.44-1.974 4.414-4.414 4.414s-4.414-1.974-4.414-4.414v-17.655c0-2.44 1.974-4.414 4.414-4.414s4.414 1.974 4.414 4.414v17.655zm0-35.31c0 2.44-1.974 4.414-4.414 4.414s-4.414-1.974-4.414-4.414v-17.655c0-2.44 1.974-4.414 4.414-4.414s4.414 1.974 4.414 4.414v17.655zm39.726 8.827V92.69a8.829 8.829 0 0 1 8.828-8.828h79.448a8.829 8.829 0 0 1 8.828 8.828v194.207a8.829 8.829 0 0 1-8.828 8.828h-79.448a8.829 8.829 0 0 1-8.828-8.828v-79.449zm-61.795-48.551h17.655a4.411 4.411 0 0 1 4.414 4.414 4.411 4.411 0 0 1-4.414 4.414h-17.655a4.411 4.411 0 0 1-4.414-4.414 4.412 4.412 0 0 1 4.414-4.414zm0 123.586h17.655c2.44 0 4.414 1.974 4.414 4.414s-1.974 4.414-4.414 4.414h-17.655c-2.44 0-4.414-1.974-4.414-4.414s1.975-4.414 4.414-4.414zm-35.31-123.586h17.655a4.411 4.411 0 0 1 4.414 4.414 4.411 4.411 0 0 1-4.414 4.414h-17.655a4.411 4.411 0 0 1-4.414-4.414 4.411 4.411 0 0 1 4.414-4.414zm0 123.586h17.655c2.44 0 4.414 1.974 4.414 4.414s-1.974 4.414-4.414 4.414h-17.655c-2.44 0-4.414-1.974-4.414-4.414s1.974-4.414 4.414-4.414zM123.585 92.69a8.826 8.826 0 0 1 8.828-8.828h97.103a8.826 8.826 0 0 1 8.828 8.828v66.207h17.655a4.411 4.411 0 0 1 4.414 4.414 4.411 4.411 0 0 1-4.414 4.414h-17.655v22.069c0 .957-.157 1.877-.438 2.739l23.165 20.754c1.919 1.719 1.419 4.847-.94 5.884l-8.778 3.853 7.84 17.857a4.42 4.42 0 0 1-2.268 5.818 4.457 4.457 0 0 1-1.771.371 4.413 4.413 0 0 1-4.047-2.638l-7.841-17.859-8.781 3.854c-2.359 1.036-5.001-.714-4.967-3.29l.371-28.534c-.125.006-.247.019-.373.019h-22.069c0 2.44-1.974 4.414-4.414 4.414s-4.414-1.974-4.414-4.414h-66.207a8.826 8.826 0 0 1-8.828-8.828V92.69h.001zm-79.447 0a8.829 8.829 0 0 1 8.828-8.828h26.483a8.829 8.829 0 0 1 8.828 8.828v194.207a8.829 8.829 0 0 1-8.828 8.828H52.966a8.829 8.829 0 0 1-8.828-8.828V92.69z"/></g><path d="M0 375.172c0 9.751 7.904 17.655 17.655 17.655h476.689c9.751 0 17.655-7.904 17.655-17.655v-35.31H0v35.31zm256-22.069c7.313 0 13.241 5.929 13.241 13.241s-5.929 13.241-13.241 13.241c-7.313 0-13.241-5.929-13.241-13.241s5.928-13.241 13.241-13.241z" fill="#bec8dc"/><path fill="#afbbd0" d="M177.655 454.621h156.69l-5.517-44.138H183.172z"/><path d="M176.552 454.621a8.829 8.829 0 0 0 0 17.656h158.897a8.829 8.829 0 0 0 0-17.656H176.552z" fill="#bec8dc"/><g fill="#96a5b9"><path d="M183.172 410.483h145.656l-2.207-17.655H185.379z"/><circle cx="256" cy="366.345" r="13.241"/></g><path d="M52.966 295.724h26.483a8.829 8.829 0 0 0 8.828-8.828V92.69a8.829 8.829 0 0 0-8.828-8.828H52.966a8.829 8.829 0 0 0-8.828 8.828v194.207a8.827 8.827 0 0 0 8.828 8.827zm8.827-194.207h8.828a8.829 8.829 0 0 1 0 17.656h-8.828a8.829 8.829 0 0 1 0-17.656zm0 26.483h8.828a8.829 8.829 0 0 1 0 17.656h-8.828a8.829 8.829 0 0 1 0-17.656zm0 26.483h8.828a8.829 8.829 0 0 1 0 17.656h-8.828a8.829 8.829 0 0 1 0-17.656zm0 26.483h8.828a8.829 8.829 0 0 1 0 17.656h-8.828a8.829 8.829 0 0 1 0-17.656zm0 26.482h8.828a8.829 8.829 0 0 1 0 17.656h-8.828a8.829 8.829 0 0 1 0-17.656zm-8.827 44.138a8.829 8.829 0 0 1 8.828-8.828h8.828a8.829 8.829 0 0 1 8.828 8.828v17.655a8.829 8.829 0 0 1-8.828 8.828h-8.828a8.829 8.829 0 0 1-8.828-8.828v-17.655z" fill="#bec8dc"/><path d="M61.793 119.172h8.828a8.829 8.829 0 0 0 0-17.656h-8.828a8.829 8.829 0 0 0 0 17.656z" fill="#e4eaf6"/><path d="M61.793 145.655h8.828a8.829 8.829 0 0 0 0-17.656h-8.828a8.829 8.829 0 0 0 0 17.656z" fill="#96a5b9"/><path d="M61.793 172.138h8.828a8.829 8.829 0 0 0 0-17.656h-8.828a8.829 8.829 0 0 0 0 17.656zm0 26.483h8.828a8.829 8.829 0 0 0 0-17.656h-8.828a8.829 8.829 0 0 0 0 17.656zm0 26.482h8.828a8.829 8.829 0 0 0 0-17.656h-8.828a8.829 8.829 0 0 0 0 17.656z" fill="#e4eaf6"/><path d="M61.793 278.069h8.828a8.829 8.829 0 0 0 8.828-8.828v-17.655a8.829 8.829 0 0 0-8.828-8.828h-8.828a8.829 8.829 0 0 0-8.828 8.828v17.655a8.829 8.829 0 0 0 8.828 8.828z" fill="#96a5b9"/><path d="M467.862 92.69a8.829 8.829 0 0 0-8.828-8.828h-79.448a8.829 8.829 0 0 0-8.828 8.828v52.966h97.103V92.69zm-13.241 44.138H384a4.414 4.414 0 1 1 0-8.828h70.621a4.414 4.414 0 1 1 0 8.828zm0-17.656H384a4.414 4.414 0 1 1 0-8.828h70.622a4.414 4.414 0 1 1-.001 8.828zm0-17.655H384a4.414 4.414 0 1 1 0-8.828h70.622a4.414 4.414 0 1 1-.001 8.828zm-75.035 194.207h79.448a8.829 8.829 0 0 0 8.828-8.828v-79.448h-97.103v79.448a8.827 8.827 0 0 0 8.827 8.828zm39.724-79.448h35.31a4.414 4.414 0 1 1 0 8.828h-35.31a4.414 4.414 0 1 1 0-8.828zm0 17.655h35.31a4.414 4.414 0 1 1 0 8.828h-35.31a4.414 4.414 0 1 1 0-8.828zm0 17.655h35.31a4.414 4.414 0 1 1 0 8.828h-35.31a4.414 4.414 0 1 1 0-8.828zm0 17.655h35.31a4.414 4.414 0 1 1 0 8.828h-35.31a4.414 4.414 0 1 1 0-8.828zm-17.655-52.965a4.414 4.414 0 1 1 0 8.828 4.414 4.414 0 1 1 0-8.828zm0 17.655a4.414 4.414 0 1 1 0 8.828 4.414 4.414 0 1 1 0-8.828zm0 17.655a4.414 4.414 0 1 1 0 8.828 4.414 4.414 0 1 1 0-8.828zm0 17.655a4.414 4.414 0 1 1 0 8.828 4.414 4.414 0 1 1 0-8.828zM384 216.276a4.414 4.414 0 1 1 0 8.828 4.414 4.414 0 1 1 0-8.828zm0 17.655a4.414 4.414 0 1 1 0 8.828 4.414 4.414 0 1 1 0-8.828zm0 17.655a4.414 4.414 0 1 1 0 8.828 4.414 4.414 0 1 1 0-8.828zm0 17.655a4.414 4.414 0 1 1 0 8.828 4.414 4.414 0 1 1 0-8.828z" fill="#bec8dc"/><path d="M467.862 145.655h-97.103v61.793h97.103v-61.793zm-75.034 52.966H384a4.414 4.414 0 1 1 0-8.828h8.828a4.414 4.414 0 1 1 0 8.828zm0-17.655H384a4.414 4.414 0 1 1 0-8.828h8.828a4.414 4.414 0 1 1 0 8.828zm0-17.656H384a4.414 4.414 0 1 1 0-8.828h8.828a4.414 4.414 0 1 1 0 8.828zm61.793 35.311h-44.138a4.414 4.414 0 1 1 0-8.828h44.138a4.414 4.414 0 1 1 0 8.828zm0-17.655h-44.138a4.414 4.414 0 1 1 0-8.828h44.138a4.414 4.414 0 1 1 0 8.828zm0-17.656h-44.138a4.414 4.414 0 1 1 0-8.828h44.138a4.414 4.414 0 1 1 0 8.828zm0-70.62h-52.966a4.414 4.414 0 1 1 0 8.828h52.966a4.414 4.414 0 1 0 0-8.828zm-66.207 4.413a4.414 4.414 0 0 1 4.414-4.414H384a4.414 4.414 0 1 0 0 8.828h8.828a4.414 4.414 0 0 1-4.414-4.414zM454.621 128h-35.31a4.414 4.414 0 1 1 0 8.828h35.31a4.414 4.414 0 1 0 0-8.828zm-48.552 4.414a4.414 4.414 0 0 1 4.414-4.414H384a4.414 4.414 0 1 0 0 8.828h26.483a4.414 4.414 0 0 1-4.414-4.414z" fill="#96a5b9"/><path d="M454.621 154.483h-44.138a4.414 4.414 0 1 0 0 8.828h44.138a4.414 4.414 0 1 0 0-8.828z" fill="#bec8dc"/><path d="M432.552 114.759a4.414 4.414 0 0 1 4.414-4.414H384a4.414 4.414 0 1 0 0 8.828h52.966a4.415 4.415 0 0 1-4.414-4.414zm22.069-4.414h-8.828a4.414 4.414 0 1 1 0 8.828h8.828a4.414 4.414 0 1 0 0-8.828z" fill="#96a5b9"/><path d="M406.069 97.103a4.414 4.414 0 0 0-4.414-4.414h-8.828a4.414 4.414 0 1 0 0 8.828h8.828a4.414 4.414 0 0 0 4.414-4.414zm17.655 35.311A4.414 4.414 0 0 0 419.31 128h-8.828a4.414 4.414 0 1 0 0 8.828h8.828a4.414 4.414 0 0 0 4.414-4.414zm-30.896 22.069H384a4.414 4.414 0 1 0 0 8.828h8.828a4.414 4.414 0 1 0 0-8.828z" fill="#e4eaf6"/><path d="M454.621 172.138h-44.138a4.414 4.414 0 1 0 0 8.828h44.138a4.414 4.414 0 1 0 0-8.828z" fill="#bec8dc"/><path d="M392.828 172.138H384a4.414 4.414 0 1 0 0 8.828h8.828a4.414 4.414 0 1 0 0-8.828z" fill="#e4eaf6"/><path d="M454.621 189.793h-44.138a4.414 4.414 0 1 0 0 8.828h44.138a4.414 4.414 0 1 0 0-8.828z" fill="#bec8dc"/><path d="M392.828 189.793H384a4.414 4.414 0 1 0 0 8.828h8.828a4.414 4.414 0 1 0 0-8.828zM384 242.759a4.414 4.414 0 1 0 0-8.828 4.414 4.414 0 1 0 0 8.828zm0-17.656a4.414 4.414 0 1 0 0-8.828 4.414 4.414 0 1 0 0 8.828zm0 52.966a4.414 4.414 0 1 0 0-8.828 4.414 4.414 0 1 0 0 8.828zm0-17.655a4.414 4.414 0 1 0 0-8.828 4.414 4.414 0 1 0 0 8.828z" fill="#e4eaf6"/><path d="M401.655 242.759a4.414 4.414 0 1 0 0-8.828 4.414 4.414 0 1 0 0 8.828zm0-17.656a4.414 4.414 0 1 0 0-8.828 4.414 4.414 0 1 0 0 8.828zm0 52.966a4.414 4.414 0 1 0 0-8.828 4.414 4.414 0 1 0 0 8.828zm0-17.655a4.414 4.414 0 1 0 0-8.828 4.414 4.414 0 1 0 0 8.828zm17.655-17.655h35.31a4.414 4.414 0 1 0 0-8.828h-35.31a4.414 4.414 0 1 0 0 8.828zm0-17.656h35.31a4.414 4.414 0 1 0 0-8.828h-35.31a4.414 4.414 0 1 0 0 8.828zm0 52.966h35.31a4.414 4.414 0 1 0 0-8.828h-35.31a4.414 4.414 0 1 0 0 8.828zm0-17.655h35.31a4.414 4.414 0 1 0 0-8.828h-35.31a4.414 4.414 0 1 0 0 8.828z" fill="#96a5b9"/><path d="M450.207 114.759a4.414 4.414 0 0 0-4.414-4.414h-8.828a4.414 4.414 0 1 0 0 8.828h8.828a4.415 4.415 0 0 0 4.414-4.414z" fill="#e4eaf6"/><path d="M132.413 198.621h66.207v-17.655h-57.38v-79.448h79.448v57.379a4.411 4.411 0 0 1 4.414 4.414 4.411 4.411 0 0 1-4.414 4.414v13.241h-13.241v17.655h22.069c.126 0 .248-.013.373-.019l.07-5.305c.04-3.042 3.641-4.622 5.907-2.593l2.041 1.828a8.827 8.827 0 0 0 .438-2.739v-22.069a4.411 4.411 0 0 1-4.414-4.414 4.411 4.411 0 0 1 4.414-4.414V92.69a8.826 8.826 0 0 0-8.828-8.828h-97.103a8.826 8.826 0 0 0-8.828 8.828v97.103a8.824 8.824 0 0 0 8.827 8.828z" fill="#ff6469"/><path d="M203.033 238.345a4.411 4.411 0 0 0 4.414-4.414v-17.655c0-2.44-1.974-4.414-4.414-4.414s-4.414 1.974-4.414 4.414v17.655a4.412 4.412 0 0 0 4.414 4.414zm105.931 52.965h17.655c2.44 0 4.414-1.974 4.414-4.414s-1.974-4.414-4.414-4.414h-17.655c-2.44 0-4.414 1.974-4.414 4.414s1.975 4.414 4.414 4.414zm17.656-44.138a4.411 4.411 0 0 0-4.414 4.414v17.655c0 2.44 1.974 4.414 4.414 4.414s4.414-1.974 4.414-4.414v-17.655a4.412 4.412 0 0 0-4.414-4.414zm-17.656-79.448h17.655a4.411 4.411 0 0 0 4.414-4.414 4.411 4.411 0 0 0-4.414-4.414h-17.655a4.411 4.411 0 0 0-4.414 4.414 4.412 4.412 0 0 0 4.414 4.414zm17.656 8.828a4.411 4.411 0 0 0-4.414 4.414v17.655c0 2.44 1.974 4.414 4.414 4.414s4.414-1.974 4.414-4.414v-17.655a4.412 4.412 0 0 0-4.414-4.414zm-70.621 105.931h-17.655c-2.44 0-4.414 1.974-4.414 4.414s1.974 4.414 4.414 4.414h17.655c2.44 0 4.414-1.974 4.414-4.414s-1.974-4.414-4.414-4.414zm-52.966-105.931a4.411 4.411 0 0 0-4.414 4.414v17.655c0 2.44 1.974 4.414 4.414 4.414s4.414-1.974 4.414-4.414v-17.655a4.411 4.411 0 0 0-4.414-4.414zm17.656 105.931h-17.655c-2.44 0-4.414 1.974-4.414 4.414s1.974 4.414 4.414 4.414h17.655c2.44 0 4.414-1.974 4.414-4.414s-1.975-4.414-4.414-4.414zm-22.069-13.242c0 2.44 1.974 4.414 4.414 4.414s4.414-1.974 4.414-4.414v-17.655c0-2.44-1.974-4.414-4.414-4.414s-4.414 1.974-4.414 4.414v17.655zm128-57.379a4.411 4.411 0 0 0-4.414 4.414v17.655c0 2.44 1.974 4.414 4.414 4.414s4.414-1.974 4.414-4.414v-17.655a4.412 4.412 0 0 0-4.414-4.414zm-52.966-44.138h17.655a4.411 4.411 0 0 0 4.414-4.414 4.411 4.411 0 0 0-4.414-4.414h-17.655a4.411 4.411 0 0 0-4.414 4.414 4.411 4.411 0 0 0 4.414 4.414zm-75.034-4.414a4.411 4.411 0 0 0 4.414 4.414h17.655a4.411 4.411 0 0 0 4.414-4.414 4.411 4.411 0 0 0-4.414-4.414h-17.655a4.412 4.412 0 0 0-4.414 4.414zm75.034 128h17.655c2.44 0 4.414-1.974 4.414-4.414s-1.974-4.414-4.414-4.414h-17.655c-2.44 0-4.414 1.974-4.414 4.414s1.974 4.414 4.414 4.414zm-39.724-128a4.411 4.411 0 0 0 4.414 4.414h17.655a4.411 4.411 0 0 0 4.414-4.414 4.411 4.411 0 0 0-4.414-4.414h-17.655a4.412 4.412 0 0 0-4.414 4.414z" fill="#96a5b9"/><path d="M229.958 193.297l-.07 5.305-.371 28.534c-.033 2.577 2.607 4.327 4.967 3.29l8.781-3.854 7.841 17.859a4.414 4.414 0 0 0 5.818 2.267 4.423 4.423 0 0 0 2.268-5.818l-7.84-17.857 8.778-3.853c2.359-1.036 2.859-4.163.94-5.884l-23.165-20.754-2.041-1.828c-2.265-2.03-5.867-.449-5.906 2.593z" fill="#464655"/></svg>