<svg xmlns="http://www.w3.org/2000/svg" width="278.469" height="62.666"><path d="M20.244 6.512h-7.507V2.027a2.027 2.027 0 0 0-4.054 0v4.485H2.027C.907 6.512 0 7.42 0 8.54V38.1c0 1.118.907 2.026 2.027 2.026h5.485c.537 0 1.053-.214 1.433-.594l6.588-6.587v11.323L.593 59.207a2.027 2.027 0 0 0 1.434 3.46h37.09c1.12 0 2.027-.908 2.027-2.027V27.412c0-11.524-9.376-20.9-20.9-20.9z" fill="#fff"/><path d="M20.572 6.516v56.15h18.545c1.12 0 2.027-.907 2.027-2.026V27.412c0-11.414-9.199-20.72-20.572-20.896z" fill="gray"/><path d="M68.74 31.344a2.026 2.026 0 0 0-1.588-.767H43.46c-7.103 0-12.881 5.779-12.881 12.881V60.64c0 1.119.907 2.026 2.026 2.026H60.64a2.027 2.027 0 0 0 1.974-1.568l6.512-28.035" fill="#4d4d4d"/><path d="M30.578 46.622V60.64c0 1.119.907 2.026 2.026 2.026H60.64a2.027 2.027 0 0 0 1.974-1.568l3.363-14.476h-35.4z" fill="#4d4d4d"/><path d="M62.81 53.321H49.786a2.027 2.027 0 0 1 0-4.053h13.026a2.027 2.027 0 0 1 0 4.053zm2.172-9.345H51.956a2.027 2.027 0 0 1 0-4.053h13.026a2.027 2.027 0 0 1 0 4.053z" fill="#fff"/><text style="line-height:125%;-inkscape-font-specification:Righteous" x="286.039" y="821.745" font-size="32.506" font-weight="400" letter-spacing="0" word-spacing="0" fill="#fff" font-family="Righteous" transform="translate(-208.83 -772.133)"><tspan x="286.039" y="821.745">Pegasus Web</tspan></text></svg>