<?xml version="1.0" encoding="UTF-8" standalone="no"?>
<!-- Created with Inkscape (http://www.inkscape.org/) -->

<svg
   xmlns:dc="http://purl.org/dc/elements/1.1/"
   xmlns:cc="http://creativecommons.org/ns#"
   xmlns:rdf="http://www.w3.org/1999/02/22-rdf-syntax-ns#"
   xmlns:svg="http://www.w3.org/2000/svg"
   xmlns="http://www.w3.org/2000/svg"
   xmlns:sodipodi="http://sodipodi.sourceforge.net/DTD/sodipodi-0.dtd"
   xmlns:inkscape="http://www.inkscape.org/namespaces/inkscape"
   width="373.11462"
   height="100.2987"
   id="svg2"
   version="1.1"
   inkscape:version="0.48.5 r10040"
   sodipodi:docname="Novo documento 1">
  <defs
     id="defs4" />
  <sodipodi:namedview
     id="base"
     pagecolor="#ffffff"
     bordercolor="#666666"
     borderopacity="1.0"
     inkscape:pageopacity="0.0"
     inkscape:pageshadow="2"
     inkscape:zoom="0.35"
     inkscape:cx="1124.2365"
     inkscape:cy="-184.24771"
     inkscape:document-units="px"
     inkscape:current-layer="layer1"
     showgrid="false"
     fit-margin-top="0"
     fit-margin-left="0"
     fit-margin-right="0"
     fit-margin-bottom="0"
     inkscape:window-width="1366"
     inkscape:window-height="745"
     inkscape:window-x="-8"
     inkscape:window-y="-8"
     inkscape:window-maximized="1" />
  <metadata
     id="metadata7">
    <rdf:RDF>
      <cc:Work
         rdf:about="">
        <dc:format>image/svg+xml</dc:format>
        <dc:type
           rdf:resource="http://purl.org/dc/dcmitype/StillImage" />
        <dc:title></dc:title>
      </cc:Work>
    </rdf:RDF>
  </metadata>
  <g
     inkscape:label="Camada 1"
     inkscape:groupmode="layer"
     id="layer1"
     transform="translate(-210.58555,-570.78426)">
    <g
       transform="translate(22.810329,65.569051)"
       id="layer1-9"
       inkscape:label="Camada 1">
      <g
         transform="matrix(0.1958959,0,0,0.1958959,187.66101,505.21521)"
         id="g3050">
        <path
           inkscape:connector-curvature="0"
           style="fill:#f8e4c5"
           d="M 330.924,124.464 H 71.439 v 286.839 c 0,7.798 6.321,14.119 14.119,14.119 h 231.246 c 7.798,0 14.119,-6.321 14.119,-14.119 V 124.464 z"
           id="path2986" />
        <path
           inkscape:connector-curvature="0"
           style="fill:#ff6600;fill-opacity:1"
           d="M 330.924,366.656 H 71.439 v 44.647 c 0,7.798 6.321,14.119 14.119,14.119 h 231.246 c 7.798,0 14.119,-6.321 14.119,-14.119 v -44.647 z"
           id="path2988" />
        <g
           style="opacity:0.1"
           id="g2990">
          <path
             d="m 192.91701,366.65799 16.522,0 0,58.762 -16.522,0 z"
             id="rect2992"
             inkscape:connector-curvature="0" />
          <path
             d="m 120.519,366.65799 16.522,0 0,58.762 -16.522,0 z"
             id="rect2994"
             inkscape:connector-curvature="0" />
          <path
             d="m 265.315,366.65799 16.522,0 0,58.762 -16.522,0 z"
             id="rect2996"
             inkscape:connector-curvature="0" />
        </g>
        <path
           inkscape:connector-curvature="0"
           style="opacity:0.1;enable-background:new"
           d="m 71.439,124.464 v 86.879 c 6.276,1.38 12.79,2.129 19.481,2.129 20.762,0 39.874,-7.022 55.13,-18.796 15.256,11.774 34.368,18.796 55.13,18.796 20.762,0 39.874,-7.022 55.13,-18.796 15.256,11.774 34.368,18.796 55.131,18.796 6.691,0 13.204,-0.749 19.481,-2.129 V 124.464 H 71.439 z"
           id="path2998" />
        <path
           inkscape:connector-curvature="0"
           style="opacity:0.1;enable-background:new"
           d="m 330.924,206.649 v -47.832 l -87.528,87.527 c -13.301,13.301 -13.301,34.866 0,48.167 l 0,0 c 5.133,5.133 5.133,13.455 0,18.588 L 131.073,425.421 h 72.25 l 76.198,-76.198 c 5.133,-5.133 13.455,-5.133 18.588,0 l 0,0 c 8.892,8.892 21.475,11.831 32.815,8.834 V 237.78 l -3.525,3.525 c -4.299,4.299 -11.268,4.299 -15.567,0 -4.299,-4.299 -4.299,-11.268 0,-15.567 l 19.092,-19.089 z"
           id="path3000" />
        <path
           inkscape:connector-curvature="0"
           style="fill:#f8e4c5"
           d="M 311.443,0 C 290.681,0 271.569,7.022 256.311,18.796 241.056,7.022 221.943,0 201.181,0 180.419,0 161.307,7.022 146.051,18.796 130.794,7.022 111.681,0 90.919,0 41.027,0 0.583,40.445 0.583,90.337 c 0,49.892 40.445,90.337 90.337,90.337 20.762,0 39.874,-7.022 55.13,-18.796 15.256,11.774 34.368,18.796 55.13,18.796 20.762,0 39.874,-7.022 55.13,-18.796 15.256,11.774 34.368,18.796 55.132,18.796 49.892,0 90.337,-40.446 90.337,-90.337 C 401.78,40.445 361.335,0 311.443,0 z"
           id="path3002" />
        <path
           inkscape:connector-curvature="0"
           style="fill:#b7b9bc"
           d="m 482.548,186.223 -82.079,82.079 c -4.299,4.299 -11.268,4.299 -15.567,0 l 0,0 c -4.298,-4.299 -4.298,-11.268 0,-15.567 l 82.079,-82.079 c 6.604,-6.604 6.604,-17.311 0,-23.916 l 0,0 c -6.604,-6.604 -17.311,-6.604 -23.916,0 l -82.079,82.079 c -4.299,4.299 -11.268,4.299 -15.567,0 l 0,0 c -4.299,-4.299 -4.299,-11.268 0,-15.567 l 82.079,-82.079 c 6.604,-6.604 6.604,-17.311 0,-23.916 l 0,0 c -6.604,-6.604 -17.311,-6.604 -23.916,0 l -126.6,126.6 c -13.301,13.301 -13.301,34.866 0,48.167 l 0,0 c 5.133,5.133 5.133,13.455 0,18.588 l -167.78,167.781 c -9.976,9.976 -9.976,26.149 0,36.125 l 0,0 c 9.976,9.976 26.149,9.976 36.125,0 l 167.78,-167.78 c 5.133,-5.133 13.455,-5.133 18.588,0 l 0,0 c 13.301,13.301 34.866,13.301 48.167,0 L 506.463,210.137 c 6.604,-6.604 6.604,-17.311 0,-23.916 l 0,0 c -6.602,-6.603 -17.31,-6.603 -23.915,0.002 z"
           id="path3004" />
        <g
           id="g3006">
          <path
             inkscape:connector-curvature="0"
             style="opacity:0.2;fill:#ffffff;enable-background:new"
             d="m 396.273,294.586 c -18.079,0 -32.735,14.656 -32.735,32.735 0,6.231 1.741,12.054 4.764,17.012 4.211,-1.662 8.158,-4.189 11.563,-7.593 l 35.792,-35.792 c -5.427,-3.998 -12.128,-6.362 -19.384,-6.362 z"
             id="path3008" />
          <path
             inkscape:connector-curvature="0"
             style="opacity:0.2;fill:#ffffff;enable-background:new"
             d="m 409.847,103.31 c -1.07,2.493 -1.664,5.237 -1.664,8.122 0,10.688 8.135,19.475 18.55,20.51 l 0.767,-0.767 c 6.604,-6.604 6.604,-17.311 0,-23.916 -4.774,-4.776 -11.69,-6.08 -17.653,-3.949 z m 96.618,82.913 c -3.292,-3.292 -7.603,-4.941 -11.918,-4.951 -3.802,3.739 -6.161,8.94 -6.161,14.694 0,8.721 5.418,16.171 13.07,19.183 l 5.009,-5.009 c 6.603,-6.606 6.603,-17.313 0,-23.917 z m -50.832,-44.407 c -3.837,3.744 -6.224,8.969 -6.224,14.754 0,8.559 5.218,15.898 12.645,19.015 l 4.928,-4.929 c 6.604,-6.604 6.604,-17.311 0,-23.916 -3.147,-3.146 -7.227,-4.775 -11.349,-4.924 z"
             id="path3010" />
        </g>
        <path
           inkscape:connector-curvature="0"
           style="opacity:0.2;enable-background:new"
           d="m 141.388,480.595 c -2.114,0 -4.228,-0.807 -5.841,-2.419 -3.226,-3.227 -3.226,-8.457 0,-11.683 l 47.068,-47.068 c 3.226,-3.225 8.457,-3.225 11.682,0 3.226,3.227 3.226,8.457 0,11.683 l -47.068,47.068 c -1.612,1.612 -3.726,2.419 -5.841,2.419 z"
           id="path3012" />
        <g
           id="g3014" />
        <g
           id="g3016" />
        <g
           id="g3018" />
        <g
           id="g3020" />
        <g
           id="g3022" />
        <g
           id="g3024" />
        <g
           id="g3026" />
        <g
           id="g3028" />
        <g
           id="g3030" />
        <g
           id="g3032" />
        <g
           id="g3034" />
        <g
           id="g3036" />
        <g
           id="g3038" />
        <g
           id="g3040" />
        <g
           id="g3042" />
      </g>
      <g
         style="font-size:52.93296051px;font-style:normal;font-variant:normal;font-weight:normal;font-stretch:normal;line-height:125%;letter-spacing:0px;word-spacing:0px;fill:#ff6600;fill-opacity:1;stroke:none;font-family:SantasSleighFull;-inkscape-font-specification:SantasSleighFull"
         id="text3081">
        <path
           d="m 327.92214,576.51079 c -4e-5,0.63537 -0.44104,1.12968 -1.323,1.48292 -0.88204,0.35322 -1.87012,0.52984 -2.96423,0.52985 -5.25758,-10e-6 -8.43342,-4.09394 -9.52755,-12.28178 -1.16525,-8.46892 -3.35302,-14.46792 -6.56331,-17.99701 -0.5654,2e-5 -1.13914,0.11471 -1.72119,0.34408 -0.5821,0.2294 -1.13779,0.49405 -1.66708,0.79396 -0.52933,0.29994 -1.02336,0.56459 -1.48212,0.79396 -0.45878,0.2294 -0.86478,0.34409 -1.218,0.34408 -0.77647,10e-6 -1.1647,-0.33491 -1.16469,-1.00477 -1e-5,-0.63537 0.4146,-1.19133 1.24385,-1.66789 0.82921,-0.47652 1.78202,-0.87363 2.85842,-1.19134 1.07637,-0.31768 2.11748,-0.56456 3.12335,-0.74066 1.00582,-0.17606 1.70313,-0.29963 2.09192,-0.37073 1.58736,-0.49429 2.91925,-1.3324 3.99566,-2.51435 1.07636,-1.1819 1.61455,-2.56709 1.61458,-4.15558 -3e-5,-0.98751 -0.17638,-1.91366 -0.52904,-2.77846 -0.35272,-0.86474 -0.85564,-1.60593 -1.50877,-2.22358 -0.65318,-0.61758 -1.42076,-1.10274 -2.30273,-1.45546 -0.88203,-0.35266 -1.85233,-0.52901 -2.91093,-0.52904 l -10.95716,0 c -1.27078,3e-5 -1.90616,0.38826 -1.90616,1.16469 l 0,26.83641 c 0,0.67092 0.1058,1.19162 0.31743,1.56207 0.2116,0.37047 0.44987,0.66151 0.71481,0.87312 0.26491,0.21162 0.51206,0.39685 0.74146,0.55569 0.22937,0.15885 0.34407,0.34435 0.34408,0.5565 -1e-5,0.70539 -1.02363,1.05808 -3.07085,1.05808 -2.85816,0 -4.28724,-0.47654 -4.28724,-1.42962 0,-0.38769 0.14108,-0.62569 0.42323,-0.714 0.28215,-0.0883 0.58208,-0.18549 0.89977,-0.29157 0.31769,-0.10608 0.61762,-0.31769 0.89977,-0.63485 0.28215,-0.31715 0.42323,-0.8995 0.42324,-1.74704 l 0,-25.35509 c -10e-6,-0.56428 -0.14109,-1.00528 -0.42324,-1.32301 -0.28215,-0.31766 -0.59069,-0.57343 -0.92561,-0.7673 -0.33493,-0.19382 -0.64374,-0.37905 -0.92643,-0.5557 -0.28269,-0.17658 -0.42404,-0.4415 -0.42403,-0.79477 -1e-5,-0.84642 0.74145,-1.26965 2.22438,-1.26969 l 15.50932,0 c 1.6929,4e-5 3.17475,0.2383 4.44554,0.71481 1.27075,0.47657 2.33825,1.12057 3.2025,1.932 0.86421,0.81149 1.50821,1.79069 1.93201,2.93758 0.42373,1.14695 0.63562,2.37303 0.63565,3.67823 -3e-5,2.01172 -0.6618,3.79403 -1.98531,5.34693 -1.32357,1.55294 -3.14949,2.69987 -5.47777,3.44077 2.89367,3.52909 5.02813,9.6514 6.40339,18.36694 0.52981,3.31799 1.35931,5.84149 2.4885,7.5705 1.12912,1.72899 2.64677,2.59349 4.55296,2.5935 0.4232,-10e-6 0.93474,-0.14997 1.53462,-0.44988 0.59981,-0.29993 1.11135,-0.4499 1.53462,-0.44989 0.74088,-10e-6 1.11134,0.40546 1.11138,1.21639 z"
           id="path3056"
           inkscape:connector-curvature="0" />
        <path
           d="m 337.12499,561.53132 c -1e-5,0.49431 -0.2294,0.94419 -0.68815,1.34965 -0.45879,0.40547 -1.03225,0.74954 -1.72039,1.03223 -0.68816,0.2827 -1.4202,0.50347 -2.19611,0.66231 -0.77594,0.15885 -1.48159,0.23827 -2.11697,0.23827 -2.54154,0 -4.59739,-0.644 -6.16754,-1.932 -1.57016,-1.288 -2.35523,-3.04392 -2.35523,-5.26777 0,-0.98753 0.22938,-1.89592 0.68815,-2.72516 0.45877,-0.82922 1.0675,-1.55264 1.8262,-2.17027 0.75868,-0.6176 1.64984,-1.10303 2.67346,-1.45627 1.02361,-0.35322 2.09972,-0.52983 3.22835,-0.52985 0.91753,2e-5 1.78229,0.13248 2.59431,0.39739 0.81198,0.26494 1.51791,0.62678 2.11777,1.08554 0.59983,0.45878 1.0761,0.97032 1.42881,1.53462 0.35267,0.56431 0.52902,1.14693 0.52904,1.74784 -2e-5,1.05863 -0.5821,1.58793 -1.74624,1.58793 l -10.90547,0 c -0.0345,0.0345 -0.0517,0.21054 -0.0517,0.52823 0,1.48185 0.55569,2.7257 1.66708,3.73154 1.11138,1.00585 2.56684,1.50877 4.36639,1.50877 0.38876,0 0.71533,-0.009 0.97973,-0.0267 0.26437,-0.0178 0.53764,-0.0705 0.81981,-0.15831 0.28214,-0.0878 0.60872,-0.22885 0.97973,-0.42323 0.37099,-0.19439 0.83864,-0.46766 1.40296,-0.81981 0.88199,-0.56538 1.37576,-0.84808 1.48131,-0.84808 0.77645,0 1.16468,0.3177 1.16469,0.95308 z m -2.75261,-7.09316 c -2e-5,-0.28214 -0.14109,-0.53791 -0.42323,-0.76731 -0.28217,-0.22937 -0.63486,-0.43237 -1.05808,-0.609 -0.42325,-0.1766 -0.87313,-0.3088 -1.34966,-0.39658 -0.47655,-0.0877 -0.9092,-0.13164 -1.29796,-0.13165 -2.61047,10e-6 -4.46278,0.89978 -5.55693,2.69931 l 8.83939,0 c 0.5643,10e-6 0.84645,-0.26491 0.84647,-0.79477 z"
           id="path3058"
           inkscape:connector-curvature="0" />
        <path
           d="m 356.99586,561.68963 c -2e-5,0.38877 -0.19414,0.76838 -0.58235,1.13884 -0.38825,0.37047 -0.91756,0.69677 -1.58792,0.97893 -0.6704,0.28215 -1.4291,0.52042 -2.27608,0.7148 -0.84702,0.19439 -1.74705,0.29158 -2.70012,0.29158 -2.75263,0 -4.93178,-0.60873 -6.53747,-1.82619 -1.60569,-1.21746 -2.40854,-3.00865 -2.40854,-5.37358 0,-1.09415 0.23827,-2.07334 0.71481,-2.93758 0.47654,-0.86422 1.11165,-1.58765 1.90535,-2.17027 0.79369,-0.58261 1.71984,-1.02387 2.77846,-1.32381 1.05861,-0.29991 2.1883,-0.44987 3.38908,-0.44989 1.41076,2e-5 2.7693,0.33548 4.07562,1.00639 0.28214,0.0711 0.44099,0.10663 0.47654,0.10662 0.21106,10e-6 0.44906,-0.0883 0.714,-0.26493 0.26491,-0.1766 0.46791,-0.26491 0.609,-0.26492 0.59983,1e-5 0.89975,0.70593 0.89977,2.11777 -2e-5,1.69293 -0.26494,2.53939 -0.79477,2.53939 -0.28217,0 -0.56432,-0.19384 -0.84646,-0.58154 -1.23525,-1.79953 -2.96425,-2.6993 -5.18701,-2.69931 -1.02308,1e-5 -1.93174,0.14109 -2.72596,0.42323 -0.79424,0.28216 -1.45601,0.64374 -1.98531,1.08473 -0.52931,0.44101 -0.93504,0.95282 -1.21719,1.53542 -0.28216,0.58263 -0.42324,1.19109 -0.42323,1.82539 -1e-5,1.69401 0.60872,2.99089 1.82619,3.89066 1.21746,0.89977 2.83149,1.34965 4.84212,1.34965 1.12968,0 2.17107,-0.19384 3.12416,-0.58154 l 1.3763,-0.74146 c 0.35214,-0.17661 0.66068,-0.35296 0.92562,-0.52904 0.26491,-0.17607 0.3796,-0.26411 0.34408,-0.26411 0.84752,0 1.27129,0.33492 1.27131,1.00477 z"
           id="path3060"
           inkscape:connector-curvature="0" />
        <path
           d="m 365.57355,546.12862 c 0,1.09309 -0.79423,1.63963 -2.38269,1.63961 -0.98862,2e-5 -1.48293,-0.51152 -1.48292,-1.53461 -1e-5,-0.84645 0.67092,-1.26968 2.01277,-1.2697 1.23522,2e-5 1.85284,0.38825 1.85284,1.1647 z m 2.06285,16.99062 c -10e-6,0.95308 -1.42908,1.42962 -4.28723,1.42962 -1.2697,0 -1.90454,-0.35323 -1.90454,-1.05969 0,-0.28216 0.1058,-0.476 0.31742,-0.58154 0.21161,-0.10554 0.44961,-0.22023 0.714,-0.34408 0.26438,-0.12384 0.50265,-0.30908 0.71481,-0.55569 0.21215,-0.24662 0.31823,-0.66985 0.31823,-1.2697 l 0,-6.56492 c 0,-0.52876 -0.22939,-0.79315 -0.68815,-0.79316 l -0.79477,0 c -0.49431,10e-6 -0.74147,-0.33545 -0.74146,-1.00638 -1e-5,-0.70538 0.24715,-1.05807 0.74146,-1.05808 l 2.48769,0 c 0.35323,1e-5 0.63565,0.23828 0.84727,0.71481 0.21161,0.47655 0.31742,0.90866 0.31742,1.29634 l 0,7.62301 c 0,0.56431 0.10581,0.95227 0.31743,1.16388 0.21161,0.21162 0.43211,0.34381 0.6615,0.39658 0.22938,0.0528 0.44987,0.10581 0.6615,0.15912 0.21161,0.0533 0.31741,0.20327 0.31742,0.44988 z"
           id="path3062"
           inkscape:connector-curvature="0" />
        <path
           d="m 389.82049,557.40239 c -2e-5,1.1297 -0.22052,2.16193 -0.6615,3.0967 -0.44101,0.93477 -1.05863,1.72873 -1.85284,2.38188 -0.79425,0.65316 -1.72067,1.15608 -2.77927,1.50877 -1.05863,0.3527 -2.18779,0.52904 -3.38747,0.52904 -2.15278,0 -3.93509,-0.49377 -5.34693,-1.48131 l 0,13.97309 c 0,0.60091 0.12358,1.05133 0.37074,1.35127 0.24714,0.29991 0.52068,0.54679 0.82061,0.74065 0.29992,0.19384 0.57346,0.38768 0.82062,0.58154 0.24714,0.19383 0.37072,0.46737 0.37073,0.82062 -1e-5,0.59983 -0.59986,0.89975 -1.79954,0.89977 l -0.84808,0 c -1.2697,-2e-5 -1.90454,-0.6704 -1.90454,-2.01116 l 0,-25.03686 c 0,-0.74091 -0.31769,-1.11137 -0.95308,-1.11139 l -0.74146,0 c -0.56431,2e-5 -0.84646,-0.37045 -0.84646,-1.11138 0,-0.70645 0.58208,-1.05968 1.74623,-1.05969 1.12969,10e-6 1.92392,0.44101 2.3827,1.323 1.83507,-1.41076 3.97007,-2.11614 6.405,-2.11616 2.47045,2e-5 4.45549,0.60875 5.95512,1.8262 1.4996,1.21747 2.2494,2.84928 2.24942,4.89542 z m -2.32938,0.15831 c -2e-5,-1.58738 -0.57348,-2.82207 -1.72039,-3.70408 -1.14694,-0.88199 -2.53186,-1.32299 -4.15477,-1.323 -1.02309,10e-6 -2.09059,0.2469 -3.2025,0.74065 -1.11193,0.49378 -1.98559,1.1289 -2.62097,1.90535 l 0,5.29362 c 1.09415,1.694 2.982,2.541 5.66355,2.541 0.81199,0 1.57983,-0.13246 2.30354,-0.39738 0.72368,-0.26492 1.36768,-0.63565 1.932,-1.1122 0.56429,-0.47653 1.00529,-1.04999 1.323,-1.72038 0.31767,-0.67038 0.47652,-1.41157 0.47654,-2.22358 z"
           id="path3064"
           inkscape:connector-curvature="0" />
        <path
           d="m 408.6672,561.53132 c -2e-5,0.49431 -0.22941,0.94419 -0.68816,1.34965 -0.45878,0.40547 -1.03225,0.74954 -1.72038,1.03223 -0.68817,0.2827 -1.42021,0.50347 -2.19612,0.66231 -0.77594,0.15885 -1.48159,0.23827 -2.11696,0.23827 -2.54155,0 -4.5974,-0.644 -6.16755,-1.932 -1.57015,-1.288 -2.35523,-3.04392 -2.35523,-5.26777 0,-0.98753 0.22938,-1.89592 0.68815,-2.72516 0.45877,-0.82922 1.0675,-1.55264 1.8262,-2.17027 0.75869,-0.6176 1.64984,-1.10303 2.67346,-1.45627 1.02361,-0.35322 2.09972,-0.52983 3.22835,-0.52985 0.91753,2e-5 1.7823,0.13248 2.59431,0.39739 0.81199,0.26494 1.51791,0.62678 2.11777,1.08554 0.59983,0.45878 1.0761,0.97032 1.42881,1.53462 0.35267,0.56431 0.52902,1.14693 0.52904,1.74784 -2e-5,1.05863 -0.5821,1.58793 -1.74623,1.58793 l -10.90547,0 c -0.0345,0.0345 -0.0517,0.21054 -0.0517,0.52823 0,1.48185 0.55569,2.7257 1.66708,3.73154 1.11138,1.00585 2.56684,1.50877 4.36639,1.50877 0.38876,0 0.71534,-0.009 0.97973,-0.0267 0.26437,-0.0178 0.53764,-0.0705 0.81981,-0.15831 0.28214,-0.0878 0.60872,-0.22885 0.97973,-0.42323 0.37099,-0.19439 0.83864,-0.46766 1.40296,-0.81981 0.88199,-0.56538 1.37576,-0.84808 1.48131,-0.84808 0.77645,0 1.16468,0.3177 1.1647,0.95308 z m -2.75262,-7.09316 c -2e-5,-0.28214 -0.14109,-0.53791 -0.42323,-0.76731 -0.28217,-0.22937 -0.63486,-0.43237 -1.05808,-0.609 -0.42324,-0.1766 -0.87313,-0.3088 -1.34966,-0.39658 -0.47655,-0.0877 -0.9092,-0.13164 -1.29796,-0.13165 -2.61047,10e-6 -4.46278,0.89978 -5.55692,2.69931 l 8.83939,0 c 0.56429,10e-6 0.84644,-0.26491 0.84646,-0.79477 z"
           id="path3066"
           inkscape:connector-curvature="0" />
        <path
           d="m 468.74502,563.54247 c -5e-5,0.70647 -1.18197,1.0597 -3.54577,1.0597 -2.01174,0 -3.01758,-0.42377 -3.01754,-1.27131 -4e-5,-0.17662 0.26488,-0.42377 0.79477,-0.74146 1.51734,-0.882 2.27603,-3.44023 2.27607,-7.6747 -4e-5,-2.68153 -0.34411,-5.39861 -1.03223,-8.15124 -0.68819,-2.7526 -1.54408,-5.25806 -2.56765,-7.51639 -1.02366,-2.25828 -2.13531,-4.10224 -3.33497,-5.53189 -1.19972,-1.42958 -2.31111,-2.14439 -3.33415,-2.14442 -0.74096,3e-5 -1.79957,1.50018 -3.17585,4.50046 -1.44741,3.14034 -3.12364,4.71049 -5.0287,4.71047 -0.98864,2e-5 -1.95033,-0.39709 -2.88508,-1.19135 -0.93479,-0.7942 -1.7904,-1.98501 -2.56684,-3.57242 -0.56541,-1.12967 -1.03333,-2.10913 -1.40377,-2.93839 -0.37048,-0.8292 -0.71456,-1.24382 -1.03224,-1.24385 -0.45878,3e-5 -1.02309,0.28273 -1.69292,0.84808 -1.12971,0.95203 -2.20609,2.24865 -3.22916,3.88985 -1.02308,1.64126 -1.91397,3.44995 -2.67265,5.42608 -0.7587,1.97617 -1.36743,4.04037 -1.8262,6.19258 -0.45877,2.15225 -0.68816,4.19921 -0.68815,6.14089 -1e-5,3.21139 0.28215,6.14897 0.84646,8.81274 0.5643,2.66377 1.36715,4.95734 2.40854,6.88073 1.04138,1.92338 2.30299,3.41438 3.78485,4.47301 1.48183,1.0586 3.12253,1.58791 4.92208,1.58792 0.42321,-1e-5 0.93502,-0.10582 1.53543,-0.31742 0.60036,-0.21163 1.19159,-0.43213 1.77369,-0.6615 0.58205,-0.2294 1.10248,-0.4499 1.56127,-0.6615 0.45875,-0.21163 0.75867,-0.31744 0.89977,-0.31743 0.81198,-1e-5 1.21798,0.44099 1.218,1.323 -2e-5,0.38768 -0.19414,0.75815 -0.58235,1.11139 -0.38825,0.35322 -0.89117,0.66202 -1.50877,0.92642 -0.61763,0.26437 -1.33244,0.48487 -2.14442,0.6615 -0.81202,0.1766 -1.64125,0.26491 -2.48769,0.26493 -2.25833,-2e-5 -4.30502,-0.5646 -6.14009,-1.69374 -1.83508,-1.12916 -3.39662,-2.73485 -4.68461,-4.81708 -1.28801,-2.08223 -2.28497,-4.60546 -2.99089,-7.56969 -0.70593,-2.96423 -1.05889,-6.29866 -1.05889,-10.00328 0,-1.65845 0.18523,-3.44049 0.5557,-5.34612 0.37045,-1.9056 0.87338,-3.79371 1.50877,-5.66435 0.63537,-1.87059 1.37657,-3.6704 2.22357,-5.39943 0.847,-1.72897 1.73815,-3.25524 2.67347,-4.57881 0.93529,-1.32351 1.89699,-2.38212 2.88508,-3.17585 0.98806,-0.79365 1.9581,-1.1905 2.91011,-1.19054 1.3763,4e-5 2.78814,1.67627 4.23555,5.0287 1.19967,2.89372 2.4349,4.34057 3.70569,4.34054 1.16413,3e-5 2.5049,-1.76451 4.02231,-5.29362 1.19966,-2.75258 2.50543,-4.12889 3.91731,-4.12892 1.05858,3e-5 2.10832,0.38826 3.1492,1.16469 1.04081,0.7765 2.04638,1.81761 3.01673,3.12335 0.97027,1.3058 1.87892,2.82318 2.72596,4.55216 0.84696,1.72902 1.57927,3.55521 2.19693,5.47858 0.61757,1.9234 1.10272,3.88179 1.45546,5.87515 0.35265,1.9934 0.52899,3.8904 0.52904,5.69101 -5e-5,0.28216 -0.0176,0.72316 -0.0525,1.323 -0.0351,0.59985 -0.0789,1.22608 -0.13166,1.87869 -0.0528,0.65262 -0.097,1.27885 -0.13246,1.8787 -0.0356,0.59985 -0.0534,1.04085 -0.0533,1.323 -5e-5,0.28323 0.0616,0.53065 0.18496,0.74227 0.12326,0.21161 0.26434,0.41435 0.42323,0.60819 0.1588,0.19385 0.30876,0.37019 0.44988,0.52904 0.14103,0.15885 0.21157,0.30881 0.21162,0.44988 z"
           id="path3068"
           inkscape:connector-curvature="0" />
        <path
           d="m 493.64295,563.27755 c -2e-5,0.67092 -0.56432,1.00639 -1.69292,1.00639 -1.37633,0 -2.61156,-0.79423 -3.7057,-2.3827 -1.87063,1.97616 -4.27055,2.96423 -7.19977,2.96423 -2.01062,0 -3.66881,-0.441 -4.97458,-1.323 -1.30577,-0.882 -1.95866,-2.11723 -1.95866,-3.70569 0,-1.48184 0.71454,-2.65488 2.14362,-3.51912 1.42907,-0.86422 3.41384,-1.29634 5.95431,-1.29635 1.12969,10e-6 2.04722,0.15886 2.75262,0.47654 -0.74093,-0.95307 -1.46436,-1.61483 -2.17027,-1.98531 -0.70593,-0.37045 -1.65874,-0.55568 -2.85843,-0.55569 l -1.69292,0 c -0.882,10e-6 -1.323,-0.28268 -1.323,-0.84808 0,-0.63429 0.38769,-0.95145 1.16308,-0.95146 l 2.27608,0 c 1.41183,10e-6 2.63818,0.29105 3.67904,0.87312 1.04083,0.58209 2.0911,1.63182 3.15081,3.14919 0.0344,0.07 0.21052,0.38743 0.52823,0.95227 0.31768,0.56486 0.67952,1.20024 1.08554,1.90616 0.40598,0.70593 0.82948,1.38519 1.2705,2.03781 0.44098,0.65262 0.80256,1.10277 1.08473,1.35046 -2e-5,0.0345 0.13244,0.13112 0.39738,0.28996 0.26491,0.15885 0.54733,0.34408 0.84727,0.55569 0.29991,0.21162 0.58206,0.41462 0.84647,0.609 0.26436,0.19439 0.39655,0.32658 0.39657,0.39658 z m -6.56331,-3.59908 c -10e-6,-0.4943 -0.14109,-0.9178 -0.42323,-1.2705 -0.28217,-0.35269 -0.64401,-0.65261 -1.08554,-0.89977 -0.44155,-0.24715 -0.95336,-0.42349 -1.53542,-0.52904 -0.58209,-0.10553 -1.15528,-0.1583 -1.71958,-0.15831 -0.81201,1e-5 -1.57097,0.0794 -2.27689,0.23827 -0.70593,0.15886 -1.32354,0.37047 -1.85284,0.63485 -0.52932,0.26439 -0.95255,0.58181 -1.2697,0.95227 -0.31716,0.37047 -0.47573,0.76731 -0.47573,1.19054 0,0.98862 0.46738,1.76535 1.40216,2.33019 0.93476,0.56485 2.14361,0.84727 3.62654,0.84727 0.70537,0 1.39326,-0.0972 2.06365,-0.29157 0.67038,-0.19439 1.27022,-0.45043 1.79954,-0.76812 0.5293,-0.31769 0.9528,-0.67927 1.2705,-1.08473 0.31768,-0.40546 0.47653,-0.80258 0.47654,-1.19135 z"
           id="path3070"
           inkscape:connector-curvature="0" />
        <path
           d="m 510.70627,560.20832 c -2e-5,0.77646 -0.20302,1.45573 -0.609,2.03781 -0.40602,0.58208 -0.95309,1.06723 -1.64123,1.45546 -0.68817,0.38823 -1.49102,0.67927 -2.40854,0.87311 -0.91755,0.19385 -1.87009,0.29077 -2.85762,0.29077 -2.32939,0 -4.16447,-0.36157 -5.50524,-1.08473 -1.34077,-0.72315 -2.01115,-1.6668 -2.01115,-2.83096 0,-0.63538 0.21161,-1.18246 0.63485,-1.64123 0.42322,-0.45877 0.95253,-0.68815 1.58792,-0.68816 0.95307,10e-6 1.42961,0.3527 1.42962,1.05808 -10e-6,0.21216 -0.14997,0.45043 -0.44989,0.71481 -0.29993,0.26439 -0.44989,0.48489 -0.44988,0.6615 -10e-6,1.27077 1.65845,1.90616 4.97538,1.90615 1.34076,1e-5 2.50519,-0.23826 3.49328,-0.7148 0.98806,-0.47654 1.4821,-1.13804 1.48211,-1.9845 -1e-5,-0.77646 -0.97032,-1.28854 -2.91092,-1.53624 l -4.12893,-0.52823 c -2.8937,-0.35322 -4.34054,-1.57068 -4.34054,-3.65239 0,-1.19968 0.61761,-2.1436 1.85285,-2.83177 1.23522,-0.68814 2.75261,-1.03221 4.55215,-1.03223 0.45876,2e-5 0.98807,0.0528 1.58793,0.15831 0.0355,1e-5 0.15022,0.0264 0.34408,0.0792 0.19383,0.0528 0.40545,0.12332 0.63484,0.21162 0.22937,0.0883 0.45876,0.15886 0.68816,0.21161 0.22937,0.0528 0.39683,0.0792 0.50238,0.0792 0.24768,10e-6 0.46845,-0.0794 0.66231,-0.23827 0.19383,-0.15883 0.39683,-0.23826 0.609,-0.23827 0.28214,10e-6 0.51152,0.2119 0.68815,0.63565 0.1766,0.42379 0.26491,0.79452 0.26493,1.1122 -2e-5,1.51739 -0.21217,2.27609 -0.63646,2.27608 -0.17556,10e-6 -0.52825,-0.26492 -1.05808,-0.79477 -1.02309,-1.02307 -2.45217,-1.53461 -4.28724,-1.53462 -1.05862,1e-5 -2.01143,0.15886 -2.85842,0.47654 -0.84701,0.3177 -1.27051,0.74093 -1.2705,1.26969 -10e-6,0.84755 0.88199,1.4124 2.646,1.69454 l 4.9237,0.74146 c 2.57598,0.35216 3.86398,1.48132 3.864,3.38747 z"
           id="path3072"
           inkscape:connector-curvature="0" />
        <path
           d="m 521.42273,563.33086 c 0,0.882 -0.56431,1.323 -1.69292,1.323 l -0.89977,0 c -1.72954,0 -2.59431,-0.98808 -2.59431,-2.96423 l 0,-8.30955 c -1.48185,10e-6 -2.22277,-0.37045 -2.22277,-1.11138 0,-0.74091 0.74092,-1.11138 2.22277,-1.11139 l 0,-7.41139 c 0,-0.6709 -0.1147,-1.17382 -0.34408,-1.50877 -0.22938,-0.3349 -0.47654,-0.59067 -0.74146,-0.76731 -0.26492,-0.17659 -0.50319,-0.32655 -0.71481,-0.44988 -0.21161,-0.12329 -0.31742,-0.32602 -0.31742,-0.6082 0,-0.77643 0.61761,-1.16466 1.85285,-1.16469 1.65846,3e-5 2.48769,0.91756 2.48769,2.75262 l 0,9.15762 c 1.41184,10e-6 2.11776,0.33494 2.11777,1.00477 -10e-6,0.84755 -0.70593,1.27132 -2.11777,1.27131 l 0,6.77493 c 0,1.37631 0.42376,2.06446 1.27131,2.06446 l 0.68815,0 c 0.66984,0 1.00477,0.35269 1.00477,1.05808 z"
           id="path3074"
           inkscape:connector-curvature="0" />
        <path
           d="m 540.17252,561.53132 c -2e-5,0.49431 -0.2294,0.94419 -0.68815,1.34965 -0.45879,0.40547 -1.03225,0.74954 -1.72039,1.03223 -0.68817,0.2827 -1.42021,0.50347 -2.19612,0.66231 -0.77593,0.15885 -1.48159,0.23827 -2.11696,0.23827 -2.54155,0 -4.59739,-0.644 -6.16754,-1.932 -1.57016,-1.288 -2.35524,-3.04392 -2.35523,-5.26777 -10e-6,-0.98753 0.22938,-1.89592 0.68815,-2.72516 0.45877,-0.82922 1.0675,-1.55264 1.82619,-2.17027 0.75869,-0.6176 1.64984,-1.10303 2.67347,-1.45627 1.02361,-0.35322 2.09972,-0.52983 3.22835,-0.52985 0.91752,2e-5 1.78229,0.13248 2.5943,0.39739 0.81199,0.26494 1.51791,0.62678 2.11778,1.08554 0.59983,0.45878 1.0761,0.97032 1.4288,1.53462 0.35268,0.56431 0.52903,1.14693 0.52904,1.74784 -1e-5,1.05863 -0.58209,1.58793 -1.74623,1.58793 l -10.90547,0 c -0.0345,0.0345 -0.0517,0.21054 -0.0517,0.52823 0,1.48185 0.55569,2.7257 1.66708,3.73154 1.11138,1.00585 2.56684,1.50877 4.36639,1.50877 0.38875,0 0.71533,-0.009 0.97973,-0.0267 0.26437,-0.0178 0.53764,-0.0705 0.81981,-0.15831 0.28214,-0.0878 0.60871,-0.22885 0.97973,-0.42323 0.37098,-0.19439 0.83864,-0.46766 1.40296,-0.81981 0.88198,-0.56538 1.37575,-0.84808 1.48131,-0.84808 0.77644,0 1.16467,0.3177 1.16469,0.95308 z m -2.75262,-7.09316 c -10e-6,-0.28214 -0.14109,-0.53791 -0.42323,-0.76731 -0.28217,-0.22937 -0.63486,-0.43237 -1.05808,-0.609 -0.42324,-0.1766 -0.87312,-0.3088 -1.34965,-0.39658 -0.47655,-0.0877 -0.9092,-0.13164 -1.29796,-0.13165 -2.61047,10e-6 -4.46278,0.89978 -5.55693,2.69931 l 8.83939,0 c 0.5643,10e-6 0.84645,-0.26491 0.84646,-0.79477 z"
           id="path3076"
           inkscape:connector-curvature="0" />
        <path
           d="m 560.88984,553.6967 c -2e-5,0.52985 -0.18525,1.06832 -0.55569,1.61538 -0.37048,0.54709 -0.80286,0.82063 -1.29716,0.82062 -0.56432,10e-6 -0.84647,-0.33545 -0.84646,-1.00639 -10e-6,-0.07 0.0705,-0.2991 0.21162,-0.68734 0.14106,-0.38822 0.2116,-0.70619 0.21161,-0.95389 -10e-6,-0.52876 -0.68817,-0.79314 -2.06446,-0.79315 -0.84755,1e-5 -1.71232,0.1322 -2.59431,0.39657 -0.88201,0.2644 -1.68459,0.60848 -2.40773,1.03224 -0.72316,0.42378 -1.32301,0.87366 -1.79954,1.34965 -0.47655,0.47601 -0.71482,0.92616 -0.71481,1.35046 l 0,4.23393 c -10e-6,0.59985 0.11469,0.98808 0.34408,1.16469 0.22938,0.17662 0.47626,0.29131 0.74065,0.34408 0.26438,0.0528 0.51126,0.0969 0.74066,0.13246 0.22937,0.0355 0.34406,0.21216 0.34407,0.52985 -10e-6,0.28215 -0.0442,0.50265 -0.13246,0.6615 -0.0883,0.15884 -0.29105,0.27354 -0.60819,0.34408 -0.31716,0.0705 -0.77566,0.1233 -1.3755,0.1583 -0.59985,0.035 -1.42909,0.0525 -2.4877,0.0525 -1.12969,0 -1.69454,-0.29992 -1.69454,-0.89977 0,-0.31769 0.10581,-0.52069 0.31743,-0.609 0.21161,-0.0883 0.43211,-0.18523 0.6615,-0.29077 0.22938,-0.10553 0.44988,-0.27299 0.6615,-0.50238 0.21161,-0.22938 0.31742,-0.644 0.31742,-1.24385 l 0,-6.2467 c 0,-0.74091 -0.31716,-1.11137 -0.95146,-1.11138 l -1.05969,0 c -0.42324,10e-6 -0.63485,-0.24714 -0.63485,-0.74146 0,-0.98753 0.63538,-1.4813 1.90616,-1.48131 1.41076,1e-5 2.29276,0.7587 2.646,2.27608 0.95307,-0.84753 2.16164,-1.54457 3.62573,-2.09112 1.46407,-0.54653 2.83149,-0.81979 4.10227,-0.81981 1.23522,2e-5 2.27633,0.27328 3.12335,0.81981 0.84698,0.54655 1.27048,1.27859 1.2705,2.19612 z"
           id="path3078"
           inkscape:connector-curvature="0" />
      </g>
    </g>
  </g>
</svg>
