<?xml version="1.0" encoding="iso-8859-1"?>
<!-- Generator: Adobe Illustrator 19.0.0, SVG Export Plug-In . SVG Version: 6.00 Build 0)  -->
<svg version="1.1" id="Capa_1" xmlns="http://www.w3.org/2000/svg" xmlns:xlink="http://www.w3.org/1999/xlink" x="0px" y="0px"
	 viewBox="0 0 512 512" style="enable-background:new 0 0 512 512;" xml:space="preserve">
<g transform="matrix(1.25 0 0 -1.25 0 45)">
	<g>
		<g>
			<path style="fill:#75AADB;" d="M409.6-271.2c0-25.134-20.378-45.511-45.511-45.511H45.511C20.378-316.711,0-296.334,0-271.2
				v204.8c0,25.134,20.378,45.511,45.511,45.511h318.578c25.134,0,45.511-20.378,45.511-45.511V-271.2z"/>
			<path style="fill:#EEEEEE;" d="M409.6-225.689H0v113.778h409.6V-225.689z"/>
			<path style="fill:#FCBF49;" d="M199.987-192.989l-14.063-21.379l5.177,25.065l-21.185-14.37l14.382,21.174l-25.065-5.177
				l21.367,14.063l-25.134,4.813l25.145,4.813l-21.379,14.063l25.065-5.177l-14.382,21.174l21.185-14.37l-5.177,25.065
				l14.063-21.379l4.813,25.134l4.813-25.122l14.063,21.367l-5.177-25.065l21.174,14.37l-14.37-21.174l25.065,5.177l-21.379-14.063
				l25.134-4.813l-25.134-4.813l21.379-14.063l-25.065,5.177l14.359-21.163l-21.163,14.359l5.177-25.065l-14.063,21.379
				l-4.813-25.134L199.987-192.989z"/>
			<path style="fill:#843511;" d="M257.354-146.044h0.057H257.354z M245.02-123.289h0.057H245.02z M226.577-111.911h0.057H226.577z
				 M204.8-111.911l-5.552-28.991l-16.213,24.656l5.962-28.9l-24.428,16.577l16.577-24.428l-28.9,5.962l24.656-16.213l-28.991-5.552
				l28.991-5.552l-24.656-16.225l28.9,5.973l-16.577-24.417l24.428,16.577l-5.962-28.911l16.213,24.656l5.552-28.991l5.552,28.991
				l16.225-24.656l-5.973,28.911l24.417-16.577l-16.577,24.417l28.911-5.973l-24.656,16.225l28.991,5.552l-28.991,5.552
				l24.656,16.213l-28.911-5.962l16.577,24.428l-24.417-16.577l5.973,28.9l-16.225-24.656L204.8-111.911z M204.8-127.044
				l2.753-14.393l1.32-6.884l3.857,5.86l8.044,12.242l-2.958-14.359l-1.422-6.872l5.803,3.948l12.129,8.226l-8.238-12.129
				l-3.937-5.791l6.872,1.411l14.347,2.958l-12.242-8.044l-5.848-3.857l6.884-1.32l14.404-2.753l-14.404-2.753l-6.872-1.32
				l5.837-3.857l12.242-8.044l-14.347,2.958l-6.872,1.422l3.937-5.803l8.238-12.129l-12.129,8.238l-5.803,3.937l1.422-6.872
				l2.958-14.359l-8.044,12.254l-3.857,5.837l-1.32-6.872l-2.753-14.404l-2.753,14.404l-1.32,6.884l-3.857-5.848l-8.044-12.254
				l2.958,14.359l1.411,6.872l-5.791-3.937l-12.129-8.238l8.226,12.129l3.937,5.803l-6.861-1.422l-14.359-2.958l12.242,8.044
				l5.86,3.857l-6.884,1.32l-14.393,2.753l14.393,2.753l6.884,1.32l-5.86,3.857l-12.242,8.044l14.359-2.958l6.861-1.411
				l-3.937,5.791l-8.226,12.129l12.129-8.226l5.791-3.937l-1.411,6.861l-2.958,14.359l8.044-12.242l3.857-5.86l1.32,6.884
				C202.047-141.436,204.8-127.044,204.8-127.044z"/>
			<path style="fill:#FCBF49;" d="M182.044-168.8c0,12.572,10.194,22.756,22.756,22.756c12.572,0,22.756-10.183,22.756-22.756
				c0-12.561-10.183-22.756-22.756-22.756C192.239-191.556,182.044-181.361,182.044-168.8"/>
			<path style="fill:none;stroke:#843511;stroke-width:0.25;stroke-miterlimit:10;" d="M182.044-168.8
				c0,12.572,10.194,22.756,22.756,22.756c12.572,0,22.756-10.183,22.756-22.756c0-12.561-10.183-22.756-22.756-22.756
				C192.239-191.556,182.044-181.361,182.044-168.8z"/>
			<g>
				<path style="fill:#C16540;" d="M202.536-166.229c0-1.764-2.97-3.186-6.633-3.186c-3.675,0-6.645,1.422-6.645,3.186
					c0,1.764,2.97,3.186,6.645,3.186C199.566-163.043,202.536-164.465,202.536-166.229"/>
				<path style="fill:#C16540;" d="M220.217-165.956c0,1.832-3.026,3.322-6.758,3.322c-3.732,0-6.747-1.49-6.747-3.322
					c0-1.832,3.015-3.322,6.747-3.322C217.19-169.278,220.217-167.787,220.217-165.956"/>
			</g>
			<path style="fill:#ED8662;" d="M198.69-178.699c0,1.434,2.799,2.606,6.235,2.606c3.447,0,6.246-1.172,6.246-2.606
				c0-1.434-2.799-2.606-6.246-2.606C201.489-181.304,198.69-180.132,198.69-178.699"/>
		</g>
	</g>
</g>
<g>
</g>
<g>
</g>
<g>
</g>
<g>
</g>
<g>
</g>
<g>
</g>
<g>
</g>
<g>
</g>
<g>
</g>
<g>
</g>
<g>
</g>
<g>
</g>
<g>
</g>
<g>
</g>
<g>
</g>
</svg>
