<?xml version="1.0" encoding="iso-8859-1"?>
<!-- Generator: Adobe Illustrator 19.1.0, SVG Export Plug-In . SVG Version: 6.00 Build 0)  -->
<svg version="1.1" id="Capa_1" xmlns="http://www.w3.org/2000/svg" xmlns:xlink="http://www.w3.org/1999/xlink" x="0px" y="0px"
	 viewBox="0 0 512.004 512.004" style="enable-background:new 0 0 512.004 512.004;" xml:space="preserve">
<g>
	<g>
		<path style="fill:#5C546A;" d="M314.35,408.004c-4.414,0-8-3.59-8-8s3.586-8,8-8c4.422,0,8-3.582,8-8s-3.578-8-8-8h-128
			c-4.422,0-8,3.582-8,8s3.578,8,8,8c4.414,0,8,3.59,8,8s-3.586,8-8,8c-4.422,0-8,3.582-8,8s3.578,8,8,8h128c4.422,0,8-3.582,8-8
			S318.772,408.004,314.35,408.004z"/>
	</g>
	<g>
		<path style="fill:#FFD200;" d="M413.374,196.004c0-2.395,0.93-4.641,2.625-6.336c7.539-7.535,7.539-19.793,0-27.328
			l-95.141-95.144c6.055-9.934,14.086-31.086,0.859-62.312c-1.133-2.664-3.609-4.512-6.492-4.832
			c-2.852-0.328-5.703,0.949-7.383,3.305c-11.539,16.148-34.695,30.871-61.508,47.918c-62.367,39.648-139.984,88.992-139.984,196.73
			c0,90.687,48.359,130.07,63.187,139.984c3.937,2.625,8.539,4.016,13.312,4.016h138.633c8.32,0,15.93-4.215,20.352-11.281
			l15.68-25.09c13.477-21.559,10.719-49.547-6.703-68.066l-84.453-89.723c8.672,1.238,19.359,2.16,31.992,2.16
			c30.273,0,44.43,15.617,56.914,29.398c4.219,4.652,8.203,9.051,12.531,12.449c6.383,5.008,15.531,4.48,21.25-1.227l26.953-26.973
			c3.125-3.125,3.125-8.191,0-11.316C414.304,200.645,413.374,198.398,413.374,196.004z"/>
	</g>
	<g>
		<path style="fill:#FF9600;" d="M186.351,216.004c0-124,109.277-123.334,127.984-215.933c-2.541,0.003-4.989,1.177-6.492,3.285
			c-11.539,16.148-34.695,30.871-61.508,47.918c-62.367,39.648-139.984,88.992-139.984,196.73
			c0,90.687,48.359,130.07,63.187,139.984c3.937,2.625,8.539,4.016,13.312,4.016h91.5
			C274.35,296.671,186.351,298.393,186.351,216.004z"/>
	</g>
	<g>
		<path style="fill:#B9BBC1;" d="M401.718,445.062l-42.242-35.203c-1.438-1.199-3.25-1.855-5.125-1.855h-208
			c-1.875,0-3.688,0.656-5.125,1.855l-42.234,35.199c-5.492,4.574-8.641,11.297-8.641,18.441v40.504c0,4.418,3.578,8,8,8h304
			c4.422,0,8-3.582,8-8v-40.508C410.35,456.351,407.202,449.633,401.718,445.062z"/>
	</g>
	<g>
		<g>
			<path style="fill:#FF9600;" d="M266.35,128.004c-4.422,0-8-3.582-8-8c0-4.418,3.578-8,8-8c3.977,0,7.984-2.199,12.633-4.746
				c9.133-5.012,21.648-11.859,39.195-2.277c3.883,2.117,5.312,6.977,3.195,10.855c-2.117,3.875-7,5.309-10.852,3.191
				c-9.898-5.395-15.445-2.344-23.852,2.266C280.929,124.438,274.421,128.004,266.35,128.004z"/>
		</g>
	</g>
	<g>
		<g>
			<path style="fill:#FF9600;" d="M298.35,128.004c-4.422,0-8-3.582-8-8v-8c0-4.418,3.578-8,8-8s8,3.582,8,8v8
				C306.35,124.422,302.772,128.004,298.35,128.004z"/>
		</g>
	</g>
	<g>
		<path style="fill:#8B8996;" d="M250.351,408.004h-104c-1.875,0-3.688,0.656-5.125,1.855l-42.234,35.199
			c-5.492,4.574-8.641,11.297-8.641,18.441v40.504c0,4.418,3.578,8,8,8h152V408.004z"/>
	</g>
	<g>
		<path style="fill:#8B8996;" d="M90.351,463.5v40.504c0,4.418,3.578,8,8,8h304c4.422,0,8-3.582,8-8v-40.508
			c0-2.598-0.549-5.09-1.342-7.492H91.694C90.899,458.408,90.351,460.901,90.351,463.5z"/>
	</g>
	<g>
		<path style="fill:#5C546A;" d="M250.351,456.004H91.694c-0.794,2.404-1.343,4.897-1.343,7.496v40.504c0,4.418,3.578,8,8,8h152
			V456.004z"/>
	</g>
	<g>
		<path style="fill:#FF9600;" d="M266.358,197.844c1.546,0.221,3.233,0.416,4.907,0.613c-25.263-4.967-38.903-18.777-46.063-30.266
			c-10.203-16.367-11.453-35.137-7.422-45.215c1.641-4.105-0.359-8.758-4.461-10.402c-4.07-1.633-8.758,0.355-10.398,4.457
			c-6.648,16.637-3.156,40.594,8.703,59.621c14.352,23.023,39.25,36.988,70.125,39.328c0.203,0.016,0.406,0.023,0.609,0.023
			c0.325,0,0.61-0.139,0.926-0.178L266.358,197.844z"/>
	</g>
</g>
<g>
</g>
<g>
</g>
<g>
</g>
<g>
</g>
<g>
</g>
<g>
</g>
<g>
</g>
<g>
</g>
<g>
</g>
<g>
</g>
<g>
</g>
<g>
</g>
<g>
</g>
<g>
</g>
<g>
</g>
</svg>
