<?xml version="1.0" encoding="iso-8859-1"?>
<!-- Generator: Adobe Illustrator 19.0.0, SVG Export Plug-In . SVG Version: 6.00 Build 0)  -->
<svg version="1.1" id="Layer_1" xmlns="http://www.w3.org/2000/svg" xmlns:xlink="http://www.w3.org/1999/xlink" x="0px" y="0px"
	 viewBox="0 0 512 512" style="enable-background:new 0 0 512 512;" xml:space="preserve">
<path style="fill:#4E5058;" d="M260.881,73.22c-4.792,0-8.678-3.886-8.678-8.678V8.859c0-4.792,3.886-8.678,8.678-8.678
	c4.792,0,8.678,3.886,8.678,8.678v55.683C269.559,69.334,265.674,73.22,260.881,73.22z"/>
<g>
	<path style="fill:#FD5E95;" d="M295.593,98.172V60.564c0-4.792-3.886-8.678-8.678-8.678h-34.712h-17.356
		c-4.729,0-8.678,3.948-8.678,8.678v37.608C127.67,114.699,52.61,200.351,52.61,303.547c0,115.025,93.246,208.271,208.271,208.271
		s208.271-93.246,208.271-208.271C469.153,200.351,394.092,114.7,295.593,98.172z"/>
	<path style="fill:#FD5E95;" d="M295.593,103.954h-69.424v-43.39c0-4.792,3.886-8.678,8.678-8.678h52.068
		c4.792,0,8.678,3.886,8.678,8.678V103.954z"/>
</g>
<path style="fill:#D14D7B;" d="M252.203,51.886h-17.356c-4.792,0-8.678,3.886-8.678,8.678v43.39h17.356v-43.39
	C243.525,55.772,247.411,51.886,252.203,51.886z"/>
<path style="fill:#FD5E95;" d="M380.129,196.822c53.82,23.534,89.024,62.557,89.024,106.725
	c0-115.025-93.246-208.271-208.271-208.271C311.556,95.276,355.884,136.005,380.129,196.822z"/>
<path style="fill:#B169BF;" d="M380.129,410.273c-24.244,60.817-68.571,101.546-119.247,101.546
	c115.025,0,208.271-93.246,208.271-208.271C469.153,347.716,433.948,386.74,380.129,410.273z"/>
<g>
	<path style="fill:#FD5E95;" d="M141.634,410.273C87.815,386.74,52.61,347.716,52.61,303.547
		c0,115.025,93.246,208.271,208.271,208.271C210.206,511.818,165.878,471.09,141.634,410.273z"/>
	<path style="fill:#FD5E95;" d="M141.634,196.822c24.244-60.817,68.571-101.546,119.247-101.546
		c-115.025,0-208.271,93.246-208.271,208.271C52.61,259.38,87.815,220.356,141.634,196.822z"/>
</g>
<g>
	<path style="fill:#FD8EB4;" d="M380.129,196.822c8.899,22.324,15.092,47.352,17.897,74.073
		c43.592,7.953,71.127,19.632,71.127,32.653C469.153,259.38,433.948,220.356,380.129,196.822z"/>
	<path style="fill:#FD8EB4;" d="M123.737,270.895c2.805-26.719,8.998-51.749,17.897-74.073
		C87.815,220.356,52.61,259.38,52.61,303.547C52.61,290.527,80.145,278.847,123.737,270.895z"/>
</g>
<path style="fill:#FD5E95;" d="M398.026,336.2c-2.805,26.719-8.998,51.749-17.897,74.073c53.82-23.534,89.024-62.557,89.024-106.725
	C469.153,316.567,441.617,328.248,398.026,336.2z"/>
<path style="fill:#D14D7B;" d="M141.634,410.273c-8.899-22.324-15.092-47.352-17.897-74.073
	c-43.592-7.953-71.127-19.633-71.127-32.653C52.61,347.716,87.815,386.74,141.634,410.273z"/>
<path style="fill:#B169BF;" d="M398.026,270.895c1.117,10.639,1.703,21.543,1.703,32.653c0,11.11-0.586,22.014-1.703,32.653
	c43.592-7.953,71.127-19.633,71.127-32.653C469.153,290.527,441.617,278.847,398.026,270.895z"/>
<path style="fill:#FD5E95;" d="M123.737,336.2c-1.117-10.639-1.703-21.542-1.703-32.653c0-11.11,0.586-22.014,1.703-32.653
	c-43.592,7.953-71.127,19.632-71.127,32.653C52.61,316.567,80.145,328.248,123.737,336.2z"/>
<g>
	<path style="fill:#E58FD0;" d="M380.129,410.273c-24.919,10.896-53.827,18.467-85.085,21.692
		c-7.943,48.616-20.292,79.855-34.162,79.855C311.556,511.818,355.884,471.09,380.129,410.273z"/>
	<path style="fill:#E58FD0;" d="M295.043,175.131c31.258,3.224,60.167,10.795,85.085,21.692
		c-24.244-60.817-68.571-101.546-119.247-101.546C274.751,95.276,287.101,126.514,295.043,175.131z"/>
</g>
<path style="fill:#FD8EB4;" d="M141.634,196.822c24.919-10.896,53.827-18.467,85.085-21.692
	c7.943-48.616,20.292-79.855,34.162-79.855C210.206,95.276,165.878,136.005,141.634,196.822z"/>
<path style="fill:#844A8F;" d="M226.719,431.964c-31.258-3.224-60.167-10.795-85.085-21.692
	c24.244,60.817,68.571,101.546,119.247,101.546C247.012,511.818,234.662,480.581,226.719,431.964z"/>
<g>
	<path style="fill:#FD5E95;" d="M398.026,270.895c-2.805-26.719-8.998-51.749-17.897-74.073
		c-24.919-10.896-53.827-18.467-85.085-21.692c4.044,24.75,6.945,54.003,8.323,85.931
		C339.136,262.607,371.543,266.064,398.026,270.895z"/>
	<path style="fill:#FD5E95;" d="M226.719,175.131c-31.258,3.224-60.167,10.795-85.085,21.692
		c-8.899,22.324-15.092,47.352-17.897,74.073c26.483-4.831,58.889-8.289,94.659-9.832
		C219.775,229.134,222.676,199.88,226.719,175.131z"/>
	<path style="fill:#FD5E95;" d="M123.737,336.2c2.805,26.719,8.998,51.749,17.897,74.073c24.919,10.896,53.827,18.467,85.085,21.692
		c-4.044-24.748-6.945-54.002-8.323-85.931C182.627,344.489,150.22,341.032,123.737,336.2z"/>
</g>
<path style="fill:#FD8EB4;" d="M303.366,346.033c-1.379,31.929-4.279,61.182-8.323,85.931c31.258-3.224,60.167-10.795,85.085-21.692
	c8.899-22.324,15.092-47.352,17.897-74.073C371.543,341.032,339.136,344.489,303.366,346.033z"/>
<path style="fill:#844A8F;" d="M217.492,303.547c0-14.559,0.312-28.769,0.905-42.485c-35.771,1.545-68.176,5.001-94.659,9.832
	c-1.117,10.639-1.703,21.543-1.703,32.653s0.586,22.014,1.703,32.653c26.483,4.831,58.889,8.289,94.659,9.832
	C217.804,332.316,217.492,318.108,217.492,303.547z"/>
<path style="fill:#E58FD0;" d="M304.271,303.547c0,14.559-0.312,28.769-0.905,42.485c35.771-1.545,68.176-5.001,94.659-9.832
	c1.117-10.639,1.703-21.542,1.703-32.653c0-11.11-0.586-22.014-1.703-32.653c-26.483-4.831-58.889-8.289-94.659-9.832
	C303.959,274.78,304.271,288.988,304.271,303.547z"/>
<g>
	<path style="fill:#FD5E95;" d="M226.719,175.131c11.116-1.147,22.526-1.753,34.162-1.753c11.636,0,23.045,0.606,34.162,1.753
		c-7.943-48.616-20.292-79.855-34.162-79.855C247.012,95.276,234.662,126.514,226.719,175.131z"/>
	<path style="fill:#FD5E95;" d="M295.043,431.964c-11.116,1.147-22.526,1.753-34.162,1.753c-11.636,0-23.045-0.606-34.162-1.753
		c7.943,48.616,20.292,79.855,34.162,79.855C274.751,511.818,287.101,480.581,295.043,431.964z"/>
</g>
<path style="fill:#B169BF;" d="M260.881,346.937c-14.559,0-28.769-0.312-42.485-0.905c1.379,31.929,4.279,61.182,8.323,85.931
	c11.116,1.147,22.526,1.753,34.162,1.753c11.636,0,23.045-0.606,34.162-1.753c4.044-24.748,6.945-54.002,8.323-85.931
	C289.65,346.625,275.441,346.937,260.881,346.937z"/>
<path style="fill:#FD8EB4;" d="M260.881,260.157c14.559,0,28.769,0.312,42.485,0.905c-1.379-31.928-4.279-61.182-8.323-85.931
	c-11.116-1.147-22.526-1.753-34.162-1.753c-11.636,0-23.045,0.606-34.162,1.753c-4.044,24.75-6.945,54.003-8.323,85.931
	C232.113,260.471,246.322,260.157,260.881,260.157z"/>
<path style="fill:#FD5E95;" d="M303.366,261.062c-13.717-0.592-27.926-0.905-42.485-0.905c-14.559,0-28.769,0.312-42.485,0.905
	c-0.592,13.717-0.905,27.926-0.905,42.485s0.312,28.769,0.905,42.485c13.717,0.592,27.926,0.905,42.485,0.905
	c14.559,0,28.769-0.312,42.485-0.905c0.592-13.718,0.905-27.926,0.905-42.485C304.271,288.988,303.959,274.78,303.366,261.062z"/>
<path style="fill:#D14D7B;" d="M80.278,368.402c-17.595-19.094-27.668-41.238-27.668-64.855
	c0,115.025,93.246,208.271,208.271,208.271c-11.91,0-23.464-2.277-34.495-6.508C157.418,487.638,102.258,435.532,80.278,368.402z"/>
<path style="fill:#B2325E;" d="M70.723,321.261c-11.628-5.41-18.113-11.403-18.113-17.714c0,23.617,10.073,45.76,27.668,64.854
	C75.355,353.368,72.099,337.583,70.723,321.261z"/>
<path style="fill:#D14D7B;" d="M69.966,303.547c0-5.967,0.266-11.873,0.757-17.713c-11.63,5.41-18.113,11.403-18.113,17.713
	s6.485,12.304,18.113,17.713C70.232,315.42,69.966,309.515,69.966,303.547z"/>
<path style="fill:#FD5E95;" d="M80.278,238.695c-17.595,19.094-27.668,41.237-27.668,64.853c0-6.31,6.484-12.304,18.113-17.713
	C72.099,269.512,75.355,253.728,80.278,238.695z"/>
<path style="fill:#D14D7B;" d="M226.386,101.784c11.031-4.233,22.584-6.508,34.495-6.508c-115.025,0-208.271,93.246-208.271,208.271
	c0-23.617,10.073-45.76,27.668-64.854C102.257,171.563,157.418,119.457,226.386,101.784z"/>
<g>
	<path style="fill:#FFE88A;" d="M506.494,70.222l-43.25-14.768L451.011,6.523c-0.905-3.622-4.159-6.162-7.893-6.162
		s-6.987,2.54-7.893,6.162l-12.233,48.93l-43.25,14.768c-3.293,1.125-5.506,4.22-5.506,7.7s2.214,6.575,5.506,7.7l43.25,14.768
		l12.233,48.93c0.905,3.622,4.159,6.162,7.893,6.162s6.987-2.54,7.893-6.162l12.233-48.93l43.25-14.768
		c3.293-1.125,5.506-4.22,5.506-7.7S509.786,71.346,506.494,70.222z"/>
	<path style="fill:#FFE88A;" d="M132.257,104.933l-43.25-14.768L76.774,41.235c-0.895-3.579-4.203-6.162-7.893-6.162
		s-6.998,2.583-7.893,6.162L48.756,90.166l-43.25,14.768C2.251,106.045,0,109.192,0,112.632c0,3.441,2.251,6.587,5.506,7.7
		l43.25,14.768l12.233,48.93c0.895,3.579,4.203,6.162,7.893,6.162s6.998-2.583,7.893-6.162l12.233-48.93l43.25-14.768
		c3.293-1.125,5.506-4.22,5.506-7.7S135.549,106.058,132.257,104.933z"/>
	<path style="fill:#FFE88A;" d="M421.115,424.029l-43.25-14.768l-12.233-48.93c-0.905-3.622-4.159-6.162-7.893-6.162
		s-6.987,2.54-7.893,6.162l-12.233,48.93l-43.25,14.768c-3.293,1.125-5.506,4.22-5.506,7.7c0,3.48,2.214,6.575,5.506,7.7
		l43.25,14.768l12.233,48.93c0.905,3.622,4.159,6.162,7.893,6.162s6.987-2.54,7.893-6.162l12.233-48.93l43.25-14.768
		c3.293-1.125,5.506-4.22,5.506-7.7C426.621,428.248,424.407,425.154,421.115,424.029z"/>
</g>
<g>
</g>
<g>
</g>
<g>
</g>
<g>
</g>
<g>
</g>
<g>
</g>
<g>
</g>
<g>
</g>
<g>
</g>
<g>
</g>
<g>
</g>
<g>
</g>
<g>
</g>
<g>
</g>
<g>
</g>
</svg>
