<?xml version="1.0" encoding="UTF-8" standalone="no"?>
<!-- Created with Inkscape (http://www.inkscape.org/) -->

<svg
   xmlns:dc="http://purl.org/dc/elements/1.1/"
   xmlns:cc="http://creativecommons.org/ns#"
   xmlns:rdf="http://www.w3.org/1999/02/22-rdf-syntax-ns#"
   xmlns:svg="http://www.w3.org/2000/svg"
   xmlns="http://www.w3.org/2000/svg"
   xmlns:sodipodi="http://sodipodi.sourceforge.net/DTD/sodipodi-0.dtd"
   xmlns:inkscape="http://www.inkscape.org/namespaces/inkscape"
   width="202.95361"
   height="113.34933"
   id="svg2"
   version="1.1"
   inkscape:version="0.48.5 r10040"
   sodipodi:docname="logo.svg">
  <defs
     id="defs4" />
  <sodipodi:namedview
     id="base"
     pagecolor="#ffffff"
     bordercolor="#666666"
     borderopacity="1.0"
     inkscape:pageopacity="0.0"
     inkscape:pageshadow="2"
     inkscape:zoom="1.4"
     inkscape:cx="85.473254"
     inkscape:cy="54.704771"
     inkscape:document-units="px"
     inkscape:current-layer="layer1"
     showgrid="false"
     fit-margin-top="0"
     fit-margin-left="0"
     fit-margin-right="0"
     fit-margin-bottom="0"
     inkscape:window-width="1366"
     inkscape:window-height="745"
     inkscape:window-x="-8"
     inkscape:window-y="-8"
     inkscape:window-maximized="1" />
  <metadata
     id="metadata7">
    <rdf:RDF>
      <cc:Work
         rdf:about="">
        <dc:format>image/svg+xml</dc:format>
        <dc:type
           rdf:resource="http://purl.org/dc/dcmitype/StillImage" />
        <dc:title />
      </cc:Work>
    </rdf:RDF>
  </metadata>
  <g
     inkscape:label="Camada 1"
     inkscape:groupmode="layer"
     id="layer1"
     transform="translate(-272.65191,-276.27812)">
    <g
       id="g3259">
      <g
         transform="matrix(0.20569633,-0.10133473,0.10133473,0.20569633,243.2769,301.773)"
         id="g3044">
        <path
           inkscape:connector-curvature="0"
           style="fill:#f4ad31"
           d="m 244.8,207.2 c 25.6,-20.8 58.4,-32.8 94.4,-32.8 19.2,0 37.6,4 55.2,10.4 0.8,-6.4 1.6,-13.6 1.6,-20 C 396,81.6 328.8,14.4 245.6,14.4 162.4,14.4 95.2,81.6 95.2,164.8 c 0,7.2 0.8,13.6 1.6,20 16.8,-6.4 35.2,-10.4 55.2,-10.4 34.4,0 67.2,12.8 92.8,32.8 z"
           id="path2986" />
        <path
           inkscape:connector-curvature="0"
           style="fill:#e2821a"
           d="m 150.4,174.4 c 36,0 68,12.8 94.4,32.8 25.6,-20.8 58.4,-32.8 94.4,-32.8 19.2,0 37.6,4 55.2,10.4 0.8,-6.4 1.6,-13.6 1.6,-20 C 396,81.6 328.8,14.4 245.6,14.4"
           id="path2988" />
        <path
           inkscape:connector-curvature="0"
           style="fill:#d32a0f"
           d="m 188,324.8 c 0,-7.2 0.8,-13.6 1.6,-20 C 140,285.6 103.2,240 95.2,184.8 40,207.2 0,260.8 0,324.8 0,408 67.2,475.2 150.4,475.2 c 36,0 68,-12.8 94.4,-32.8 C 210.4,414.4 188,372 188,324.8 z"
           id="path2990" />
        <path
           inkscape:connector-curvature="0"
           style="fill:#b71100"
           d="m 150.4,475.2 c 36,0 68,-12.8 94.4,-32.8 C 210.4,415.2 188,372.8 188,324.8 c 0,-7.2 0.8,-13.6 1.6,-20"
           id="path2992" />
        <path
           inkscape:connector-curvature="0"
           style="fill:#0878a0"
           d="m 393.6,184.8 c -7.2,55.2 -44,100 -94.4,120 0.8,6.4 1.6,13.6 1.6,20 0,47.2 -22.4,89.6 -56.8,117.6 25.6,20.8 58.4,32.8 94.4,32.8 83.2,0 150.4,-67.2 150.4,-150.4 0.8,-64 -39.2,-117.6 -95.2,-140 z"
           id="path2994" />
        <path
           inkscape:connector-curvature="0"
           style="fill:#0c6c8e"
           d="m 244.8,442.4 c 25.6,20.8 58.4,32.8 94.4,32.8 83.2,0 150.4,-67.2 150.4,-150.4"
           id="path2996" />
        <path
           inkscape:connector-curvature="0"
           style="fill:#3d3736"
           d="m 244.8,207.2 c -29.6,23.2 -49.6,57.6 -55.2,96.8 16.8,6.4 35.2,10.4 55.2,10.4 19.2,0 37.6,-4 55.2,-10.4 -5.6,-38.4 -25.6,-72.8 -55.2,-96.8 z"
           id="path2998" />
        <path
           inkscape:connector-curvature="0"
           d="m 244.8,315.2 c 19.2,0 37.6,-4 55.2,-10.4 -5.6,-39.2 -25.6,-73.6 -55.2,-96.8"
           id="path3000" />
        <path
           inkscape:connector-curvature="0"
           style="fill:#0caa7d"
           d="m 300,304.8 c 49.6,-19.2 86.4,-64.8 94.4,-120 -16.8,-6.4 -35.2,-10.4 -55.2,-10.4 -35.2,0 -68,12.8 -94.4,32.8 29.6,24 49.6,58.4 55.2,97.6 z"
           id="path3002" />
        <path
           inkscape:connector-curvature="0"
           style="fill:#720d20"
           d="m 244.8,207.2 c -25.6,-20.8 -58.4,-32.8 -94.4,-32.8 -19.2,0 -37.6,4 -55.2,10.4 7.2,55.2 44,100 94.4,120 5.6,-39.2 25.6,-73.6 55.2,-97.6 z"
           id="path3004" />
        <path
           inkscape:connector-curvature="0"
           style="fill:#783089"
           d="m 301.6,324.8 c 0,-7.2 -0.8,-13.6 -1.6,-20 -16.8,6.4 -35.2,10.4 -55.2,10.4 -19.2,0 -37.6,-4 -55.2,-10.4 -0.8,6.4 -1.6,13.6 -1.6,20 0,47.2 22.4,89.6 56.8,117.6 34.4,-28 56.8,-70.4 56.8,-117.6 z"
           id="path3006" />
        <g
           id="g3008" />
        <g
           id="g3010" />
        <g
           id="g3012" />
        <g
           id="g3014" />
        <g
           id="g3016" />
        <g
           id="g3018" />
        <g
           id="g3020" />
        <g
           id="g3022" />
        <g
           id="g3024" />
        <g
           id="g3026" />
        <g
           id="g3028" />
        <g
           id="g3030" />
        <g
           id="g3032" />
        <g
           id="g3034" />
        <g
           id="g3036" />
      </g>
      <text
         sodipodi:linespacing="125%"
         id="text3072"
         y="338.53787"
         x="333.38727"
         style="font-size:76.64816284px;font-style:normal;font-variant:normal;font-weight:normal;font-stretch:normal;line-height:125%;letter-spacing:0px;word-spacing:0px;fill:#f4ad31;fill-opacity:1;stroke:none;font-family:SantasSleighFull;-inkscape-font-specification:SantasSleighFull"
         xml:space="preserve"><tspan
           style="font-style:normal;font-variant:normal;font-weight:normal;font-stretch:normal;fill:#f4ad31;fill-opacity:1;font-family:Satisfy;-inkscape-font-specification:Satisfy"
           y="338.53787"
           x="333.38727"
           id="tspan3074"
           sodipodi:role="line">color </tspan></text>
      <text
         sodipodi:linespacing="125%"
         id="text3076"
         y="380.99515"
         x="335.12607"
         style="font-size:49.94061279000000300px;font-style:normal;font-variant:normal;font-weight:normal;font-stretch:normal;line-height:125%;letter-spacing:0px;word-spacing:0px;fill:#ffffff;fill-opacity:1;stroke:none;font-family:SantasSleighFull;-inkscape-font-specification:SantasSleighFull"
         xml:space="preserve"><tspan
           style="font-style:normal;font-variant:normal;font-weight:normal;font-stretch:normal;fill:#ffffff;fill-opacity:1;font-family:Satisfy;-inkscape-font-specification:Satisfy"
           y="380.99515"
           x="335.12607"
           id="tspan3078"
           sodipodi:role="line">Print</tspan></text>
    </g>
  </g>
</svg>
