<?xml version="1.0" encoding="UTF-8" standalone="no"?>
<!-- Created with Inkscape (http://www.inkscape.org/) -->

<svg xmlns:dc="http://purl.org/dc/elements/1.1/" xmlns:cc="http://creativecommons.org/ns#" xmlns:rdf="http://www.w3.org/1999/02/22-rdf-syntax-ns#" xmlns:svg="http://www.w3.org/2000/svg" xmlns="http://www.w3.org/2000/svg" xmlns:sodipodi="http://sodipodi.sourceforge.net/DTD/sodipodi-0.dtd" xmlns:inkscape="http://www.inkscape.org/namespaces/inkscape" id="svg2985" version="1.1" inkscape:version="0.48.5 r10040" width="400" height="155" sodipodi:docname="Rocky.png">
  <metadata id="metadata2991">
    <rdf:RDF>
      <cc:Work rdf:about="">
        <dc:format>image/svg+xml</dc:format>
        <dc:type rdf:resource="http://purl.org/dc/dcmitype/StillImage" />
        <dc:title></dc:title>
      </cc:Work>
    </rdf:RDF>
  </metadata>
  <defs id="defs2989" />
  <sodipodi:namedview pagecolor="#ffffff" bordercolor="#666666" borderopacity="1" objecttolerance="10" gridtolerance="10" guidetolerance="10" inkscape:pageopacity="0" inkscape:pageshadow="2" inkscape:window-width="1366" inkscape:window-height="706" id="namedview2987" showgrid="false" inkscape:zoom="1.6328184" inkscape:cx="40.210611" inkscape:cy="33.668408" inkscape:window-x="-8" inkscape:window-y="-8" inkscape:window-maximized="1" inkscape:current-layer="svg2985" />
  <g id="g3015" transform="matrix(1.4384457,0,0,1.2092043,-2.470982,52.563242)" style="fill:black">
    <g style="font-size:90px;font-style:normal;font-weight:normal;text-align:start;text-anchor:start;fill:black;font-family:Franklin Gothic Heavy" id="text3017">
      <path d="m 58.623047,82.477562 -21.286097,0 -8.425796,-22.559593 -4.204167,0 0,22.559593 -19.4774948,0 0,-59.985352 31.3330078,0 c 6.914019,6e-5 12.282666,1.618711 16.105957,4.855957 3.823186,3.237357 5.734805,7.507372 5.734863,12.810059 -5.8e-5,3.45707 -0.703182,6.511266 -2.109375,9.162598 -1.406305,2.651397 -4.248099,4.987821 -8.52539,7.009277 z m -33.91606,-36.404584 6.801802,0 c 2.314419,3.5e-5 3.429683,-0.356743 4.835969,-1.323576 1.406211,-0.966758 1.790013,-2.514275 1.790052,-4.389315 -2.6e-5,-2.571645 -2.358703,-3.984156 -6.010787,-3.984156 l -7.417036,0 z" style="font-size:90px;font-style:normal;font-weight:normal;text-align:start;text-anchor:start;fill:black;font-family:Franklin Gothic Heavy" id="path3029" inkscape:connector-curvature="0" sodipodi:nodetypes="cccccccscccccccscscc" />
      <path d="m 87.674119,83.400414 c -8.437523,-10e-7 -15.314957,-2.79785 -20.632324,-8.393555 -5.317388,-5.59569 -7.976077,-13.081034 -7.976075,-22.456055 -2e-6,-8.964805 2.541499,-16.369582 7.624512,-22.214355 5.082993,-5.844669 12.136208,-8.767029 21.159668,-8.76709 8.349571,6.1e-5 15.15376,2.753964 20.4126,8.261719 5.25873,5.507859 7.88812,12.861367 7.88818,22.060546 -6e-5,9.521506 -2.65142,17.153334 -7.9541,22.895508 -5.30278,5.74219 -12.143599,8.613281 -20.522461,8.613282 z m -0.08789,-14.836069 c 3.105435,1.2e-5 4.398052,-0.515183 5.760393,-3.225158 1.362262,-2.709941 2.435606,-5.802243 2.435646,-13.009299 -3.7e-5,-9.77648 -2.719443,-15.831107 -7.844476,-15.83115 -5.564549,4.3e-5 -8.268368,4.640975 -8.268346,16.535465 -2.2e-5,11.162127 2.115977,15.530154 7.916783,15.530142 z" style="font-size:90px;font-style:normal;font-weight:normal;text-align:start;text-anchor:start;fill:black;font-family:Franklin Gothic Heavy" id="path3031" inkscape:connector-curvature="0" sodipodi:nodetypes="sssscccssscccss" />
      <path d="m 153.70991,58.52928 19.78216,-0.129762 c -0.53078,7.879917 -4.03106,14.660064 -8.87835,18.585837 -4.84737,3.925782 -10.58207,6.415058 -17.6466,6.415059 -8.50198,-10e-7 -15.36775,-2.695311 -20.59735,-8.085938 -5.22962,-5.390612 -8.43443,-12.74428 -8.43443,-22.236488 0,-9.404258 2.47718,-16.992141 7.43156,-22.763672 4.95436,-5.771426 12.16101,-9.095821 21.02997,-9.095882 8.28784,6.1e-5 14.95165,2.548249 19.40146,6.942722 4.4497,4.394581 7.11262,10.663309 7.69374,17.92889 l -19.85416,0.484196 c -0.22128,-3.574976 -1.17158,-6.212171 -2.77713,-7.999323 -1.60562,-1.787063 -2.68113,-2.066546 -4.26417,-2.066546 -6.05538,4.7e-5 -8.34555,4.514152 -8.34552,16.174267 -3e-5,6.533226 0.78748,9.918925 2.3625,12.262656 1.57497,2.343764 2.60457,3.515618 5.44878,3.515625 3.23291,9e-6 6.98779,-2.790426 7.64754,-9.931641 z" style="font-size:90px;font-style:normal;font-weight:normal;text-align:start;text-anchor:start;fill:black;font-family:Franklin Gothic Heavy" id="path3033" inkscape:connector-curvature="0" sodipodi:nodetypes="ccsssssccccccscsc" />
      <path d="m 231.25442,82.477562 -21.05609,0 -10.08873,-21.096621 -4.99321,7.253848 0,13.842773 -18.85767,0 0,-59.985352 18.85767,0 0,22.153223 14.78694,-22.153223 17.24857,0 -14.05649,21.928711 z" style="font-size:90px;font-style:normal;font-weight:normal;text-align:start;text-anchor:start;fill:black;font-family:Franklin Gothic Heavy" id="path3035" inkscape:connector-curvature="0" sodipodi:nodetypes="ccccccccccccc" />
      <path d="m 275.82291,22.49221 -18.20466,34.584961 0,25.400391 -18.67065,0 0,-25.400391 -21.05609,-34.584961 21.05609,0 10.50269,18.634278 9.58279,-18.634278 z" style="font-size:90px;font-style:normal;font-weight:normal;text-align:start;text-anchor:start;fill:black;font-family:Franklin Gothic Heavy" id="path3037" inkscape:connector-curvature="0" sodipodi:nodetypes="cccccccccc" />
    </g>
    <g style="font-size:90px;font-style:normal;font-weight:normal;text-align:start;text-anchor:start;fill:black;font-family:Franklin Gothic Heavy" id="text3019" />
  </g>
</svg>
