<?xml version="1.0" encoding="UTF-8" standalone="no"?>
<!-- Created with Inkscape (http://www.inkscape.org/) -->

<svg
   xmlns:dc="http://purl.org/dc/elements/1.1/"
   xmlns:cc="http://creativecommons.org/ns#"
   xmlns:rdf="http://www.w3.org/1999/02/22-rdf-syntax-ns#"
   xmlns:svg="http://www.w3.org/2000/svg"
   xmlns="http://www.w3.org/2000/svg"
   xmlns:sodipodi="http://sodipodi.sourceforge.net/DTD/sodipodi-0.dtd"
   xmlns:inkscape="http://www.inkscape.org/namespaces/inkscape"
   width="880.10339"
   height="176.84857"
   id="svg2"
   version="1.1"
   inkscape:version="0.48.5 r10040"
   sodipodi:docname="logo.svg">
  <defs
     id="defs4" />
  <sodipodi:namedview
     id="base"
     pagecolor="#ffffff"
     bordercolor="#666666"
     borderopacity="1.0"
     inkscape:pageopacity="0.0"
     inkscape:pageshadow="2"
     inkscape:zoom="0.7"
     inkscape:cx="636.45684"
     inkscape:cy="8.480557"
     inkscape:document-units="px"
     inkscape:current-layer="text3054"
     showgrid="false"
     inkscape:window-width="1366"
     inkscape:window-height="745"
     inkscape:window-x="-8"
     inkscape:window-y="-8"
     inkscape:window-maximized="1"
     fit-margin-top="0"
     fit-margin-left="0"
     fit-margin-right="0"
     fit-margin-bottom="0" />
  <metadata
     id="metadata7">
    <rdf:RDF>
      <cc:Work
         rdf:about="">
        <dc:format>image/svg+xml</dc:format>
        <dc:type
           rdf:resource="http://purl.org/dc/dcmitype/StillImage" />
        <dc:title></dc:title>
      </cc:Work>
    </rdf:RDF>
  </metadata>
  <g
     inkscape:label="Camada 1"
     inkscape:groupmode="layer"
     id="layer1"
     transform="translate(396.15077,-355.36646)">
    <g
       style="font-size:81.62077332px;font-style:normal;font-variant:normal;font-weight:normal;font-stretch:normal;line-height:125%;letter-spacing:0px;word-spacing:0px;fill:#a78966;fill-opacity:1;stroke:none;font-family:SantasSleighFull;-inkscape-font-specification:SantasSleighFull"
       id="text3054">
      <g
         id="g3331">
        <g
           transform="matrix(0.39703779,0,0,0.39703779,-396.15065,342.14947)"
           id="g3032">
          <g
             id="g2986">
            <path
               inkscape:connector-curvature="0"
               style="fill:#a78966"
               d="m 124.121,385.618 v 69.818 c 0,12.854 10.42,23.273 23.273,23.273 12.853,0 23.273,-10.418 23.273,-23.273 v -69.818 h -23.273 -23.273 z"
               id="path2988" />
            <path
               inkscape:connector-curvature="0"
               style="fill:#a78966"
               d="m 302.545,385.618 v 69.818 c 0,12.854 10.42,23.273 23.273,23.273 12.853,0 23.273,-10.418 23.273,-23.273 v -69.818 h -23.273 -23.273 z"
               id="path2990" />
          </g>
          <path
             inkscape:connector-curvature="0"
             style="fill:#317f46"
             d="m 346.357,45.619 c -4.042,-7.588 -11.94,-12.33 -20.539,-12.33 -8.598,0 -16.497,4.741 -20.539,12.33 l -87.929,165.046 13.16,24.793 13.16,24.793 41.84,78.822 6.006,11.315 c 2.096,3.496 3.302,7.587 3.302,11.958 0,12.854 -10.418,23.273 -23.273,23.273 h 31.001 23.273 23.273 139.636 c 8.173,0 15.746,-4.287 19.952,-11.295 4.208,-7.008 4.428,-15.708 0.586,-22.921 L 346.357,45.619 z"
             id="path2992" />
          <path
             inkscape:connector-curvature="0"
             style="fill:#79ab03"
             d="m 285.51,339.073 -41.84,-78.822 -13.16,-24.793 -13.16,-24.793 -49.4,-93.063 c -4.039,-7.607 -11.945,-12.362 -20.556,-12.362 -8.611,0 -16.517,4.755 -20.556,12.361 L 2.716,351.432 c -3.829,7.215 -3.596,15.906 0.611,22.905 4.208,6.999 11.778,11.28 19.943,11.28 h 100.848 23.273 23.273 100.848 0.031 c 12.854,0 23.273,-10.418 23.273,-23.273 0,-4.371 -1.206,-8.464 -3.302,-11.958 l -6.004,-11.313 z"
             id="path2994" />
          <g
             id="g2996" />
          <g
             id="g2998" />
          <g
             id="g3000" />
          <g
             id="g3002" />
          <g
             id="g3004" />
          <g
             id="g3006" />
          <g
             id="g3008" />
          <g
             id="g3010" />
          <g
             id="g3012" />
          <g
             id="g3014" />
          <g
             id="g3016" />
          <g
             id="g3018" />
          <g
             id="g3020" />
          <g
             id="g3022" />
          <g
             id="g3024" />
        </g>
        <path
           id="path3280"
           style="fill:#317f46;fill-opacity:1;font-family:Righteous;-inkscape-font-specification:Righteous"
           d="m -117.7216,494.15457 c -5e-5,3.34774 -0.57129,6.4032 -1.71372,9.16639 -1.14252,2.76322 -2.69682,5.13452 -4.66291,7.11392 -1.96616,1.97942 -4.27104,3.51379 -6.91465,4.60313 -2.64367,1.08934 -5.47994,1.63401 -8.5088,1.63401 -3.00235,0 -5.82533,-0.55796 -8.46896,-1.67387 -2.64365,-1.1159 -4.95518,-2.6702 -6.93457,-4.6629 -1.97942,-1.99269 -3.54036,-4.36399 -4.68284,-7.11392 -1.14248,-2.74991 -1.71372,-5.77216 -1.71371,-9.06676 l 0,-37.94091 10.91996,0 0,19.92695 c 0.58451,-0.7439 1.29524,-1.40813 2.13219,-1.9927 0.83691,-0.58448 1.74027,-1.06272 2.71006,-1.43474 0.96976,-0.37192 1.97275,-0.65754 3.00897,-0.85686 1.03618,-0.19922 2.04581,-0.29886 3.0289,-0.2989 3.02886,4e-5 5.86513,0.56464 8.5088,1.69379 2.64361,1.12924 4.94849,2.70346 6.91465,4.72269 1.96609,2.0193 3.52039,4.40389 4.66291,7.15377 1.14243,2.74995 1.71367,5.75891 1.71372,9.02691 z m -10.95982,0 c -4e-5,-1.64727 -0.28566,-3.18165 -0.85686,-4.60313 -0.57128,-1.42143 -1.34843,-2.65025 -2.33146,-3.68648 -0.98309,-1.03617 -2.13221,-1.84653 -3.44736,-2.43109 -1.3152,-0.58449 -2.71673,-0.87675 -4.20458,-0.87679 -1.48791,4e-5 -2.88943,0.32551 -4.20459,0.97642 -1.3152,0.65098 -2.46432,1.51448 -3.44736,2.59051 -0.98308,1.07608 -1.75359,2.31155 -2.31153,3.70641 -0.55797,1.39491 -0.83694,2.83629 -0.83693,4.32415 -1e-5,1.64731 0.27896,3.17504 0.83693,4.58319 0.55794,1.40819 1.32845,2.63038 2.31153,3.66656 0.98304,1.03622 2.13216,1.85322 3.44736,2.45102 1.31516,0.59782 2.71668,0.89672 4.20459,0.89671 1.48785,10e-6 2.88938,-0.29889 4.20458,-0.89671 1.31515,-0.5978 2.46427,-1.4148 3.44736,-2.45102 0.98303,-1.03618 1.76018,-2.25837 2.33146,-3.66656 0.5712,-1.40815 0.85682,-2.93588 0.85686,-4.58319 z"
           inkscape:connector-curvature="0" />
        <path
           id="path3282"
           style="fill:#317f46;fill-opacity:1;font-family:Righteous;-inkscape-font-specification:Righteous"
           d="m -70.415032,494.15457 c -4.6e-5,3.18833 -0.571284,6.15744 -1.713718,8.90734 -1.14252,2.74993 -2.696821,5.12788 -4.662905,7.13385 -1.966163,2.00598 -4.271044,3.58685 -6.914651,4.74261 -2.643671,1.15577 -5.479937,1.73365 -8.508806,1.73365 -3.002347,0 -5.825328,-0.57788 -8.468948,-1.73365 -2.64366,-1.15576 -4.95518,-2.73663 -6.93458,-4.74261 -1.97942,-2.00597 -3.54036,-4.38392 -4.68283,-7.13385 -1.14248,-2.7499 -1.71372,-5.71901 -1.71372,-8.90734 0,-3.24143 0.57124,-6.24375 1.71372,-9.00698 1.14247,-2.76317 2.70341,-5.14776 4.68283,-7.15378 1.9794,-2.00594 4.29092,-3.58016 6.93458,-4.72268 2.64362,-1.14244 5.466601,-1.71368 8.468948,-1.71372 3.028869,4e-5 5.865135,0.53807 8.508806,1.61408 2.643607,1.0761 4.948488,2.60383 6.914651,4.5832 1.966084,1.97945 3.520385,4.35739 4.662905,7.13385 1.142434,2.77651 1.713672,5.86519 1.713718,9.26603 z m -10.959821,0 c -3.4e-5,-1.75355 -0.285654,-3.34106 -0.856859,-4.76254 -0.571272,-1.42143 -1.348422,-2.64362 -2.331452,-3.66656 -0.983093,-1.02289 -2.132213,-1.80668 -3.447362,-2.35138 -1.315205,-0.54464 -2.716732,-0.81697 -4.204586,-0.81701 -1.487901,4e-5 -2.889428,0.27237 -4.204586,0.81701 -1.315196,0.5447 -2.457673,1.32849 -3.427434,2.35138 -0.969798,1.02294 -1.733658,2.24513 -2.291598,3.66656 -0.55797,1.42148 -0.83695,3.00899 -0.83693,4.76254 -2e-5,1.64731 0.27896,3.17504 0.83693,4.58319 0.55794,1.40819 1.3218,2.63038 2.291598,3.66656 0.969761,1.03622 2.112238,1.85322 3.427434,2.45102 1.315158,0.59782 2.716685,0.89672 4.204586,0.89671 1.487854,10e-6 2.889381,-0.27897 4.204586,-0.83693 1.315149,-0.55794 2.464269,-1.34174 3.447362,-2.35138 0.98303,-1.00962 1.76018,-2.2318 2.331452,-3.66656 0.571205,-1.43472 0.856825,-3.01559 0.856859,-4.74261 z"
           inkscape:connector-curvature="0" />
        <path
           id="path3284"
           style="fill:#317f46;fill-opacity:1;font-family:Righteous;-inkscape-font-specification:Righteous"
           d="m -42.915843,515.87494 c -2.63038,0 -5.101319,-0.49817 -7.412824,-1.49452 -2.311542,-0.99635 -4.337446,-2.36466 -6.077719,-4.10495 -1.740297,-1.74028 -3.108613,-3.76619 -4.104951,-6.07772 -0.996354,-2.31151 -1.494527,-4.78245 -1.494521,-7.41283 l 0,-12.67353 -5.300568,0 0,-10.84026 5.300568,0 0,-17.05747 10.840259,0 0,17.05747 16.499512,0 0,10.84026 -16.499512,0 0,12.67353 c -1.7e-5,1.1425 0.212537,2.21191 0.637662,3.20824 0.42509,0.99636 1.009613,1.86651 1.753572,2.61043 0.743918,0.74395 1.620703,1.33512 2.630356,1.7735 1.009609,0.4384 2.085663,0.6576 3.228166,0.65759 l 8.249756,0 0,10.84026 z"
           inkscape:connector-curvature="0" />
        <path
           id="path3286"
           style="fill:#317f46;fill-opacity:1;font-family:Righteous;-inkscape-font-specification:Righteous"
           d="m 12.720179,515.87494 -2.630357,0 -4.2245123,-5.85852 c -1.0362388,0.92993 -2.1322197,1.80007 -3.2879462,2.61043 -1.155797,0.81036 -2.37133956,1.51445 -3.6466312,2.11225 -1.275355,0.59781 -2.5838898,1.06942 -3.9256085,1.41482 -1.3417741,0.3454 -2.7034474,0.5181 -4.085024,0.5181 -3.0023478,0 -5.8253288,-0.50482 -8.4689528,-1.51445 -2.643654,-1.00963 -4.955177,-2.47758 -6.934577,-4.40386 -1.979416,-1.92626 -3.540359,-4.28428 -4.682832,-7.07406 -1.142481,-2.78976 -1.71372,-5.96478 -1.713718,-9.52508 -2e-6,-3.32114 0.571237,-6.36996 1.713718,-9.14647 1.142473,-2.77646 2.703416,-5.16104 4.682832,-7.15378 1.9794,-1.99265 4.290923,-3.54031 6.934577,-4.64297 2.643624,-1.10258 5.466605,-1.6539 8.4689528,-1.65394 1.3815766,4e-5 2.7498922,0.17274 4.104951,0.5181 1.3550032,0.34544 2.6701804,0.82369 3.9455354,1.43474 1.27529159,0.61114 2.4908341,1.3285 3.6466312,2.15211 1.1557264,0.82369 2.2384228,1.71376 3.2480923,2.67021 l 4.2245123,-5.06144 2.630357,0 z M 1.7603587,494.15457 c -3.45e-5,-1.48786 -0.2856538,-2.92924 -0.85685867,-4.32415 -0.57127222,-1.39486 -1.34842236,-2.63033 -2.33145273,-3.70641 -0.9830931,-1.07603 -2.1322125,-1.93953 -3.4473618,-2.59051 -1.315205,-0.65091 -2.7167322,-0.97638 -4.2045857,-0.97642 -1.4879008,4e-5 -2.8894278,0.25245 -4.2045858,0.75723 -1.315197,0.50485 -2.457674,1.24878 -3.427435,2.23182 -0.969793,0.98309 -1.733658,2.19863 -2.291599,3.64663 -0.557967,1.44805 -0.836944,3.10198 -0.836931,4.96181 -1.3e-5,1.85987 0.278964,3.5138 0.836931,4.96181 0.557941,1.44804 1.321806,2.66358 2.291599,3.64663 0.969761,0.98307 2.112238,1.72701 3.427435,2.23182 1.315158,0.50482 2.716685,0.75723 4.2045858,0.75722 1.4878535,10e-6 2.8893807,-0.32546 4.2045857,-0.97642 1.3151493,-0.65094 2.4642687,-1.51444 3.4473618,-2.5905 0.98303037,-1.07604 1.76018051,-2.31151 2.33145273,-3.70642 0.57120487,-1.39486 0.85682417,-2.83624 0.85685867,-4.32414 z"
           inkscape:connector-curvature="0" />
        <path
           id="path3288"
           style="fill:#317f46;fill-opacity:1;font-family:Righteous;-inkscape-font-specification:Righteous"
           d="m 31.850052,515.87494 -10.880113,0 0,-42.68352 2.630357,0 3.586851,4.1448 c 1.753559,-1.59411 3.739609,-2.82294 5.958157,-3.68648 2.218514,-0.86346 4.53668,-1.29521 6.954504,-1.29525 2.603762,4e-5 5.061416,0.49821 7.37297,1.49452 2.311493,0.99639 4.330755,2.3647 6.057792,4.10495 1.726964,1.74032 3.088637,3.77287 4.085024,6.09765 0.996306,2.32484 1.494479,4.80242 1.494521,7.43275 l 0,24.39058 -10.880113,0 0,-24.39058 c -3.1e-5,-1.11589 -0.212585,-2.17201 -0.637662,-3.16839 -0.425139,-0.99632 -1.009662,-1.86646 -1.753571,-2.61043 -0.743968,-0.74391 -1.607468,-1.32843 -2.590504,-1.75357 -0.983088,-0.42508 -2.032572,-0.63763 -3.148457,-0.63766 -1.1425,3e-5 -2.218555,0.21258 -3.228165,0.63766 -1.009651,0.42514 -1.886436,1.00966 -2.630357,1.75357 -0.743956,0.74397 -1.32848,1.61411 -1.753572,2.61043 -0.425123,0.99638 -0.637677,2.0525 -0.637662,3.16839 z"
           inkscape:connector-curvature="0" />
        <path
           id="path3290"
           style="fill:#317f46;fill-opacity:1;font-family:Righteous;-inkscape-font-specification:Righteous"
           d="m 79.714575,461.59394 c -1.7e-5,1.00968 -0.192644,1.95289 -0.577882,2.82962 -0.38527,0.87684 -0.910012,1.6407 -1.574228,2.2916 -0.664246,0.651 -1.441396,1.1691 -2.331453,1.5543 -0.890082,0.38531 -1.839932,0.57793 -2.849553,0.57788 -1.009641,5e-5 -1.959491,-0.19257 -2.849554,-0.57788 -0.890076,-0.3852 -1.660584,-0.9033 -2.311526,-1.5543 -0.65095,-0.6509 -1.16905,-1.41476 -1.554301,-2.2916 -0.385257,-0.87673 -0.577884,-1.81994 -0.577882,-2.82962 -2e-6,-0.98301 0.192625,-1.91958 0.577882,-2.8097 0.385251,-0.89002 0.903351,-1.66052 1.554301,-2.31153 0.650942,-0.65089 1.42145,-1.16899 2.311526,-1.5543 0.890063,-0.38519 1.839913,-0.57782 2.849554,-0.57788 1.009621,6e-5 1.959471,0.19269 2.849553,0.57788 0.890057,0.38531 1.667207,0.90341 2.331453,1.5543 0.664216,0.65101 1.188958,1.42151 1.574228,2.31153 0.385238,0.89012 0.577865,1.82669 0.577882,2.8097 z m -1.873133,54.281 -10.959821,0 0,-42.68352 10.959821,0 z"
           inkscape:connector-curvature="0" />
        <path
           id="path3292"
           style="fill:#317f46;fill-opacity:1;font-family:Righteous;-inkscape-font-specification:Righteous"
           d="m 123.47416,481.6803 -7.97078,8.01063 c -0.39857,-1.11588 -0.94324,-2.11887 -1.63401,-3.00897 -0.69083,-0.89004 -1.46798,-1.64062 -2.33145,-2.25174 -0.86353,-0.61106 -1.8001,-1.07603 -2.8097,-1.39489 -1.00966,-0.3188 -2.04586,-0.47821 -3.10861,-0.47825 -1.4879,4e-5 -2.88943,0.30558 -4.20458,0.91664 -1.3152,0.61113 -2.457677,1.46799 -3.427438,2.57058 -0.969793,1.10265 -1.733659,2.41119 -2.291599,3.92561 -0.557967,1.51447 -0.836944,3.18833 -0.836932,5.02159 -1.2e-5,1.4879 0.278965,2.88278 0.836932,4.18466 0.55794,1.30191 1.321806,2.44438 2.291599,3.42743 0.969761,0.98308 2.112238,1.75359 3.427438,2.31153 1.31515,0.55796 2.71668,0.83694 4.20458,0.83693 1.06275,10e-6 2.08566,-0.14612 3.06875,-0.43839 0.98304,-0.29225 1.90632,-0.71072 2.76985,-1.2554 0.86347,-0.54466 1.63398,-1.20889 2.31152,-1.9927 0.67749,-0.78377 1.2288,-1.65392 1.65394,-2.61043 l 7.97078,8.01064 c -1.00967,1.43474 -2.17208,2.72335 -3.48722,3.86583 -1.31521,1.14248 -2.73667,2.11225 -4.26436,2.90933 -1.52777,0.79708 -3.13521,1.40153 -4.82232,1.81335 -1.68718,0.41182 -3.42082,0.61774 -5.20094,0.61774 -3.00234,0 -5.825326,-0.5646 -8.46895,-1.69379 -2.643654,-1.1292 -4.955177,-2.67685 -6.934577,-4.64298 -1.979416,-1.96612 -3.540359,-4.26436 -4.682833,-6.89473 -1.14248,-2.63034 -1.713719,-5.44668 -1.713717,-8.44902 -2e-6,-3.268 0.571237,-6.32346 1.713717,-9.1664 1.142474,-2.84287 2.703417,-5.32046 4.682833,-7.43275 1.9794,-2.11221 4.290923,-3.77943 6.934577,-5.00166 2.643624,-1.22214 5.46661,-1.83324 8.46895,-1.83328 1.78012,4e-5 3.52705,0.22588 5.24079,0.67752 1.71369,0.45172 3.34769,1.10931 4.90203,1.97276 1.55426,0.86355 2.989,1.91967 4.30422,3.16839 1.31514,1.24879 2.45097,2.68353 3.40751,4.30422 z"
           inkscape:connector-curvature="0" />
        <path
           id="path3294"
           style="fill:#317f46;fill-opacity:1;font-family:Righteous;-inkscape-font-specification:Righteous"
           d="m 170.06335,515.87494 -2.63036,0 -4.22451,-5.85852 c -1.03624,0.92993 -2.13222,1.80007 -3.28795,2.61043 -1.15579,0.81036 -2.37134,1.51445 -3.64663,2.11225 -1.27535,0.59781 -2.58389,1.06942 -3.92561,1.41482 -1.34177,0.3454 -2.70344,0.5181 -4.08502,0.5181 -3.00235,0 -5.82533,-0.50482 -8.46895,-1.51445 -2.64366,-1.00963 -4.95518,-2.47758 -6.93458,-4.40386 -1.97942,-1.92626 -3.54036,-4.28428 -4.68283,-7.07406 -1.14248,-2.78976 -1.71372,-5.96478 -1.71372,-9.52508 0,-3.32114 0.57124,-6.36996 1.71372,-9.14647 1.14247,-2.77646 2.70341,-5.16104 4.68283,-7.15378 1.9794,-1.99265 4.29092,-3.54031 6.93458,-4.64297 2.64362,-1.10258 5.4666,-1.6539 8.46895,-1.65394 1.38158,4e-5 2.74989,0.17274 4.10495,0.5181 1.355,0.34544 2.67018,0.82369 3.94554,1.43474 1.27529,0.61114 2.49083,1.3285 3.64663,2.15211 1.15572,0.82369 2.23842,1.71376 3.24809,2.67021 l 4.22451,-5.06144 2.63036,0 z m -10.95982,-21.72037 c -4e-5,-1.48786 -0.28565,-2.92924 -0.85686,-4.32415 -0.57127,-1.39486 -1.34842,-2.63033 -2.33145,-3.70641 -0.9831,-1.07603 -2.13222,-1.93953 -3.44736,-2.59051 -1.31521,-0.65091 -2.71674,-0.97638 -4.20459,-0.97642 -1.4879,4e-5 -2.88943,0.25245 -4.20459,0.75723 -1.31519,0.50485 -2.45767,1.24878 -3.42743,2.23182 -0.96979,0.98309 -1.73366,2.19863 -2.2916,3.64663 -0.55797,1.44805 -0.83694,3.10198 -0.83693,4.96181 -1e-5,1.85987 0.27896,3.5138 0.83693,4.96181 0.55794,1.44804 1.32181,2.66358 2.2916,3.64663 0.96976,0.98307 2.11224,1.72701 3.42743,2.23182 1.31516,0.50482 2.71669,0.75723 4.20459,0.75722 1.48785,10e-6 2.88938,-0.32546 4.20459,-0.97642 1.31514,-0.65094 2.46426,-1.51444 3.44736,-2.5905 0.98303,-1.07604 1.76018,-2.31151 2.33145,-3.70642 0.57121,-1.39486 0.85682,-2.83624 0.85686,-4.32414 z"
           inkscape:connector-curvature="0" />
        <path
           id="path3296"
           style="fill:#317f46;fill-opacity:1;font-family:Righteous;-inkscape-font-specification:Righteous"
           d="m 189.27293,515.87494 -10.95982,0 0,-59.66128 10.95982,0 z"
           inkscape:connector-curvature="0" />
        <path
           id="path3298"
           style="fill:#a78966;font-family:Righteous;-inkscape-font-specification:Righteous"
           d="m 250.7675,494.15457 c -3e-5,-1.48786 -0.28565,-2.92924 -0.85686,-4.32415 -0.57127,-1.39486 -1.34842,-2.63033 -2.33145,-3.70641 -0.98309,-1.07603 -2.13221,-1.93953 -3.44736,-2.59051 -1.31521,-0.65091 -2.71674,-0.97638 -4.20459,-0.97642 -1.4879,4e-5 -2.88943,0.25245 -4.20458,0.75723 -1.3152,0.50485 -2.45768,1.24878 -3.42744,2.23182 -0.96979,0.98309 -1.73366,2.19863 -2.2916,3.64663 -0.55797,1.44805 -0.83694,3.10198 -0.83693,4.96181 -10e-6,1.78016 0.27896,3.38095 0.83693,4.80239 0.55794,1.42147 1.32181,2.63701 2.2916,3.64663 0.96976,1.00965 2.11224,1.7868 3.42744,2.33146 1.31515,0.54468 2.71668,0.81701 4.20458,0.817 1.48785,10e-6 2.88938,-0.32546 4.20459,-0.97642 1.31515,-0.65094 2.46427,-1.51444 3.44736,-2.5905 0.98303,-1.07604 1.76018,-2.31151 2.33145,-3.70642 0.57121,-1.39486 0.85683,-2.83624 0.85686,-4.32414 z m 10.95982,16.34009 c -4e-5,3.00233 -0.57128,5.81867 -1.71372,8.44903 -1.14252,2.63035 -2.70346,4.92859 -4.68283,6.89472 -1.97945,1.96612 -4.29097,3.52042 -6.93458,4.66291 -2.64367,1.14246 -5.46665,1.7137 -8.46895,1.71372 l -5.45998,-0.0797 0,-10.88012 5.38027,0.0797 c 1.70041,0 3.14843,-0.2192 4.34408,-0.65759 1.19559,-0.43839 2.20522,-1.0362 3.02889,-1.79342 0.82362,-0.75723 1.48121,-1.62737 1.97277,-2.61043 0.4915,-0.98306 0.8834,-2.01926 1.17569,-3.10861 -0.42514,0.69081 -1.03623,1.2554 -1.83328,1.69379 -0.79711,0.4384 -1.68053,0.79708 -2.65028,1.07606 -0.96981,0.27898 -1.97944,0.4716 -3.0289,0.57788 -1.04951,0.10628 -2.02593,0.15942 -2.92926,0.15942 -3.00235,0 -5.82533,-0.5181 -8.46895,-1.55431 -2.64366,-1.03619 -4.95518,-2.51743 -6.93458,-4.4437 -1.97942,-1.92627 -3.54036,-4.28429 -4.68283,-7.07407 -1.14248,-2.78976 -1.71372,-5.93821 -1.71372,-9.44537 0,-3.21486 0.57124,-6.2039 1.71372,-8.96713 1.14247,-2.76317 2.70341,-5.1544 4.68283,-7.1737 1.9794,-2.01922 4.29092,-3.60009 6.93458,-4.74261 2.64362,-1.14244 5.4666,-1.71368 8.46895,-1.71372 1.38158,4e-5 2.74989,0.17274 4.10495,0.5181 1.35501,0.34544 2.67018,0.82369 3.94554,1.43474 1.27529,0.61114 2.49083,1.3285 3.64663,2.15211 1.15572,0.82369 2.23842,1.71376 3.24809,2.67021 l 4.22451,-5.06144 2.63036,0 z"
           inkscape:connector-curvature="0" />
        <path
           id="path3300"
           style="fill:#a78966;font-family:Righteous;-inkscape-font-specification:Righteous"
           d="m 311.30557,515.87494 -2.63036,0 -4.22451,-5.85852 c -1.03624,0.92993 -2.13222,1.80007 -3.28795,2.61043 -1.1558,0.81036 -2.37134,1.51445 -3.64663,2.11225 -1.27535,0.59781 -2.58389,1.06942 -3.92561,1.41482 -1.34177,0.3454 -2.70345,0.5181 -4.08502,0.5181 -3.00235,0 -5.82533,-0.50482 -8.46895,-1.51445 -2.64366,-1.00963 -4.95518,-2.47758 -6.93458,-4.40386 -1.97942,-1.92626 -3.54036,-4.28428 -4.68283,-7.07406 -1.14248,-2.78976 -1.71372,-5.96478 -1.71372,-9.52508 0,-3.32114 0.57124,-6.36996 1.71372,-9.14647 1.14247,-2.77646 2.70341,-5.16104 4.68283,-7.15378 1.9794,-1.99265 4.29092,-3.54031 6.93458,-4.64297 2.64362,-1.10258 5.4666,-1.6539 8.46895,-1.65394 1.38157,4e-5 2.74989,0.17274 4.10495,0.5181 1.355,0.34544 2.67018,0.82369 3.94553,1.43474 1.2753,0.61114 2.49084,1.3285 3.64664,2.15211 1.15572,0.82369 2.23842,1.71376 3.24809,2.67021 l 4.22451,-5.06144 2.63036,0 z m -10.95982,-21.72037 c -4e-5,-1.48786 -0.28566,-2.92924 -0.85686,-4.32415 -0.57127,-1.39486 -1.34842,-2.63033 -2.33145,-3.70641 -0.9831,-1.07603 -2.13222,-1.93953 -3.44737,-2.59051 -1.3152,-0.65091 -2.71673,-0.97638 -4.20458,-0.97642 -1.4879,4e-5 -2.88943,0.25245 -4.20459,0.75723 -1.31519,0.50485 -2.45767,1.24878 -3.42743,2.23182 -0.9698,0.98309 -1.73366,2.19863 -2.2916,3.64663 -0.55797,1.44805 -0.83695,3.10198 -0.83693,4.96181 -2e-5,1.85987 0.27896,3.5138 0.83693,4.96181 0.55794,1.44804 1.3218,2.66358 2.2916,3.64663 0.96976,0.98307 2.11224,1.72701 3.42743,2.23182 1.31516,0.50482 2.71669,0.75723 4.20459,0.75722 1.48785,10e-6 2.88938,-0.32546 4.20458,-0.97642 1.31515,-0.65094 2.46427,-1.51444 3.44737,-2.5905 0.98303,-1.07604 1.76018,-2.31151 2.33145,-3.70642 0.5712,-1.39486 0.85682,-2.83624 0.85686,-4.32414 z"
           inkscape:connector-curvature="0" />
        <path
           id="path3302"
           style="fill:#a78966;font-family:Righteous;-inkscape-font-specification:Righteous"
           d="m 330.43541,515.87494 -10.88011,0 0,-42.68352 2.63035,0 3.58685,5.06144 c 1.75356,-1.59411 3.74626,-2.82294 5.97809,-3.68648 2.2318,-0.86346 4.54332,-1.29521 6.93458,-1.29525 l 9.60478,0 0,10.84026 -9.60478,0 c -1.1425,3e-5 -2.21856,0.21258 -3.22817,0.63766 -1.00965,0.42514 -1.88644,1.00966 -2.63036,1.75357 -0.74395,0.74397 -1.32848,1.62075 -1.75357,2.63036 -0.42512,1.00965 -0.63768,2.08571 -0.63766,3.22816 z"
           inkscape:connector-curvature="0" />
        <path
           id="path3304"
           style="fill:#a78966;font-family:Righteous;-inkscape-font-specification:Righteous"
           d="m 394.60019,515.87494 -2.63036,0 -4.22451,-5.85852 c -1.03624,0.92993 -2.13222,1.80007 -3.28795,2.61043 -1.15579,0.81036 -2.37134,1.51445 -3.64663,2.11225 -1.27535,0.59781 -2.58389,1.06942 -3.92561,1.41482 -1.34177,0.3454 -2.70344,0.5181 -4.08502,0.5181 -3.00235,0 -5.82533,-0.5646 -8.46895,-1.69379 -2.64366,-1.1292 -4.95518,-2.69678 -6.93458,-4.70276 -1.97942,-2.00597 -3.54036,-4.38392 -4.68283,-7.13385 -1.14248,-2.7499 -1.71372,-5.74558 -1.71372,-8.98705 0,-3.21486 0.57124,-6.2039 1.71372,-8.96713 1.14247,-2.76317 2.70341,-5.1544 4.68283,-7.1737 1.9794,-2.01922 4.29092,-3.60009 6.93458,-4.74261 2.64362,-1.14244 5.4666,-1.71368 8.46895,-1.71372 0.95647,4e-5 1.94617,0.0797 2.96911,0.23912 1.02289,0.15946 2.01924,0.41851 2.98905,0.77715 0.96974,0.35873 1.87974,0.83034 2.72999,1.41482 0.85018,0.58456 1.56755,1.30193 2.15211,2.15211 l 0,-19.92695 10.95982,0 z m -10.95982,-21.72037 c -4e-5,-1.48786 -0.28566,-2.92924 -0.85686,-4.32415 -0.57127,-1.39486 -1.34842,-2.63033 -2.33145,-3.70641 -0.9831,-1.07603 -2.13222,-1.93953 -3.44737,-2.59051 -1.3152,-0.65091 -2.71673,-0.97638 -4.20458,-0.97642 -1.4879,4e-5 -2.88943,0.26573 -4.20459,0.79708 -1.31519,0.53142 -2.45767,1.29528 -3.42743,2.2916 -0.96979,0.99638 -1.73366,2.21192 -2.2916,3.64663 -0.55797,1.43477 -0.83695,3.05549 -0.83693,4.86218 -2e-5,1.5676 0.27896,3.05548 0.83693,4.46363 0.55794,1.40819 1.32181,2.64366 2.2916,3.70642 0.96976,1.06278 2.11224,1.89971 3.42743,2.51079 1.31516,0.6111 2.71669,0.91665 4.20459,0.91664 1.48785,10e-6 2.88938,-0.32546 4.20458,-0.97642 1.31515,-0.65094 2.46427,-1.51444 3.44737,-2.5905 0.98303,-1.07604 1.76018,-2.31151 2.33145,-3.70642 0.5712,-1.39486 0.85682,-2.83624 0.85686,-4.32414 z"
           inkscape:connector-curvature="0" />
        <path
           id="path3306"
           style="fill:#a78966;font-family:Righteous;-inkscape-font-specification:Righteous"
           d="m 419.90741,505.43322 c 0.42509,0.13286 0.8502,0.21921 1.27533,0.25905 0.42508,0.0399 0.85019,0.0598 1.27532,0.0598 1.06275,10e-6 2.08566,-0.14612 3.06875,-0.43839 0.98304,-0.29225 1.90632,-0.71072 2.76985,-1.2554 0.86347,-0.54466 1.63398,-1.20889 2.31152,-1.9927 0.67749,-0.78377 1.2288,-1.65392 1.65394,-2.61043 l 7.97078,8.01064 c -1.00967,1.43474 -2.17208,2.72335 -3.48722,3.86583 -1.31521,1.14248 -2.73666,2.11225 -4.26436,2.90933 -1.52777,0.79708 -3.13521,1.40153 -4.82232,1.81335 -1.68718,0.41182 -3.42082,0.61774 -5.20094,0.61774 -3.00234,0 -5.82532,-0.55796 -8.46895,-1.67387 -2.64365,-1.1159 -4.95518,-2.6702 -6.93458,-4.6629 -1.97941,-1.99269 -3.54035,-4.36399 -4.68283,-7.11392 -1.14248,-2.74991 -1.71372,-5.77216 -1.71372,-9.06676 0,-3.37427 0.57124,-6.45631 1.71372,-9.24611 1.14248,-2.78973 2.70342,-5.16768 4.68283,-7.13384 1.9794,-1.96609 4.29093,-3.49382 6.93458,-4.5832 2.64363,-1.0893 5.46661,-1.63397 8.46895,-1.63401 1.78012,4e-5 3.5204,0.2126 5.22086,0.63766 1.70041,0.42515 3.31449,1.03625 4.84225,1.83328 1.5277,0.79712 2.9558,1.77354 4.2843,2.92926 1.32842,1.1558 2.49747,2.45105 3.50714,3.88576 z m 5.57955,-22.43774 c -0.50484,-0.18595 -1.00302,-0.30552 -1.49452,-0.35869 -0.49156,-0.0531 -1.00302,-0.0797 -1.53438,-0.0797 -1.4879,4e-5 -2.88942,0.27237 -4.20458,0.81701 -1.3152,0.5447 -2.45768,1.32185 -3.42744,2.33145 -0.96979,1.00966 -1.73366,2.22521 -2.2916,3.64663 -0.55796,1.42148 -0.83694,3.02228 -0.83693,4.8024 -1e-5,0.39856 0.0199,0.85023 0.0598,1.35503 0.0398,0.50484 0.10627,1.01629 0.19927,1.53437 0.093,0.51812 0.2059,1.0163 0.33876,1.49453 0.13283,0.47826 0.30553,0.90337 0.5181,1.27532 z"
           inkscape:connector-curvature="0" />
        <path
           id="path3308"
           style="fill:#a78966;font-family:Righteous;-inkscape-font-specification:Righteous"
           d="m 456.69258,515.87494 -10.88011,0 0,-42.68352 2.63036,0 3.58685,4.1448 c 1.75355,-1.59411 3.73961,-2.82294 5.95815,-3.68648 2.21852,-0.86346 4.53668,-1.29521 6.95451,-1.29525 2.60376,4e-5 5.06141,0.49821 7.37297,1.49452 2.31149,0.99639 4.33075,2.3647 6.05779,4.10495 1.72696,1.74032 3.08864,3.77287 4.08502,6.09765 0.99631,2.32484 1.49448,4.80242 1.49452,7.43275 l 0,24.39058 -10.88011,0 0,-24.39058 c -3e-5,-1.11589 -0.21258,-2.17201 -0.63766,-3.16839 -0.42514,-0.99632 -1.00966,-1.86646 -1.75357,-2.61043 -0.74397,-0.74391 -1.60747,-1.32843 -2.59051,-1.75357 -0.98308,-0.42508 -2.03257,-0.63763 -3.14845,-0.63766 -1.1425,3e-5 -2.21856,0.21258 -3.22817,0.63766 -1.00965,0.42514 -1.88643,1.00966 -2.63036,1.75357 -0.74395,0.74397 -1.32847,1.61411 -1.75357,2.61043 -0.42512,0.99638 -0.63767,2.0525 -0.63766,3.16839 z"
           inkscape:connector-curvature="0" />
      </g>
    </g>
  </g>
</svg>
